<svg width="79" height="64" viewBox="0 0 79 64" fill="none" xmlns="http://www.w3.org/2000/svg">
<path d="M76.2139 36.9433V37.9935C76.2139 43.0178 76.2139 48.0421 76.2139 53.0665C76.2139 55.9028 75.7504 56.4376 72.8557 56.8233C72.8557 57.2512 72.8557 57.6985 72.8557 58.1491C72.8557 59.7699 72.8492 61.3906 72.8557 63.0113C72.859 63.6759 72.5769 64.013 71.8833 64C70.9368 63.9838 69.9935 63.9838 69.047 64C68.3144 64.013 68.0421 63.6661 68.0518 62.9562C68.0745 61.1734 68.0583 59.3906 68.0583 57.6078C68.0583 57.3452 68.0583 57.0827 68.0583 56.778H10.2334C10.2334 58.483 10.2334 60.1491 10.2334 61.8152C10.2334 64.1199 10.4667 64.013 8.04536 63.9968C7.50403 63.9935 6.96594 63.9838 6.42461 63.9968C5.73741 64.0162 5.45865 63.6953 5.46513 63.0113C5.48458 60.9627 5.47161 58.9141 5.47161 56.7974C5.1896 56.7715 4.95946 56.7423 4.72931 56.7326C3.11829 56.6677 2.11019 55.6207 2.10694 53.9579C2.10046 49.3647 2.10694 44.7747 2.10694 40.1815C2.10694 39.1345 2.10694 38.0843 2.10694 36.9887C1.92542 36.966 1.799 36.9433 1.67259 36.94C0.557512 36.9184 -2.41812e-05 36.3382 -2.41812e-05 35.1993C-2.41812e-05 33.4976 -0.00326567 31.7958 -2.41812e-05 30.094C0.0064588 27.517 1.55589 25.9773 4.14908 25.9611C4.55427 25.9611 4.95622 25.9611 5.49106 25.9611V24.9854C5.49106 17.0989 5.49106 9.21232 5.49106 1.32577C5.49106 0.12966 5.59803 0.0226909 6.77469 0.0194494C8.58344 0.0194494 10.3954 0.0194494 12.2042 0.0194494C13.2382 0.0194494 13.41 0.197731 13.4133 1.2577C13.4165 2.20097 13.4133 3.14425 13.4133 4.20746C14.9141 3.83793 16.3306 3.44895 17.7633 3.14425C21.8476 2.27229 25.9157 1.27066 30.0356 0.619125C35.6629 -0.269043 43.2771 -0.126418 48.9368 0.551054C53.9416 1.15073 58.7747 2.48298 63.5915 3.89303C63.8735 3.97407 64.1588 4.04538 64.577 4.15559C64.577 3.11183 64.5705 2.14911 64.577 1.18639C64.5834 0.181524 64.7488 0.0194494 65.7633 0.0194494C67.7082 0.0162079 69.6531 0.0162079 71.598 0.0194494C72.6872 0.0194494 72.8103 0.139385 72.8103 1.23177C72.8103 9.11831 72.8103 17.0049 72.8103 24.8914C72.8103 25.2091 72.8103 25.53 72.8103 25.9611C73.4197 25.9611 73.9481 25.9546 74.4797 25.9611C76.8557 26 78.4246 27.5786 78.4343 29.9514C78.4441 31.8412 78.4343 33.7342 78.4343 35.624C78.4343 36.8169 78.3209 36.9335 77.1539 36.9368C76.8849 36.9368 76.6158 36.9368 76.2107 36.9368L76.2139 36.9433ZM74.8492 36.9919H3.55589C3.53968 37.1864 3.51375 37.342 3.51375 37.4976C3.51375 42.9789 3.50727 48.4603 3.51375 53.9417C3.51375 54.9595 3.90921 55.3485 4.95622 55.3582C6.76173 55.3776 8.57048 55.3647 10.376 55.3647C30.6807 55.3647 52.9303 55.3647 73.2317 55.3647C74.4473 55.3647 74.8428 54.966 74.846 53.7666C74.8525 51.6078 74.846 49.4457 74.846 47.2869C74.846 43.8866 74.846 40.4862 74.846 36.9919H74.8492ZM15.2253 25.8865C15.2253 25.5397 15.2253 25.248 15.2253 24.953C15.2253 22.3598 15.222 19.7666 15.2253 17.1734C15.2285 15.4652 16.2301 14.4344 17.9287 14.4311C23.0048 14.4214 28.0843 14.4214 33.1604 14.4311C34.8298 14.4344 35.8314 15.4425 35.8411 17.1053C35.8541 19.7245 35.8444 22.3436 35.8444 24.966C35.8444 25.2545 35.8444 25.5462 35.8444 25.8606H43.1053C43.1053 22.9627 43.1053 20.1264 43.1053 17.2934C43.1053 15.4198 44.081 14.4311 45.9384 14.4279C50.9335 14.4214 55.9319 14.4214 60.927 14.4279C62.752 14.4279 63.7244 15.4036 63.7309 17.2253C63.7406 19.8185 63.7309 22.4117 63.7309 25.0049C63.7309 25.2934 63.7309 25.5818 63.7309 25.8574H71.3906V1.47488H65.9513C65.9513 2.4765 65.9513 3.44246 65.9513 4.40519C65.9513 5.8282 65.7601 5.96759 64.3825 5.57537C59.8703 4.29173 55.3873 2.9141 50.7293 2.2107C43.2642 1.08266 33.8671 1.08914 26.4667 2.56726C22.0291 3.45543 17.6467 4.63209 13.2415 5.67585C12.2982 5.89951 12.0032 5.66937 11.9967 4.70016C11.987 3.63047 11.9967 2.56078 11.9967 1.46191H6.91408V25.8865H15.2188H15.2253ZM1.4392 35.4911H77.047C77.047 33.7536 77.047 32.0583 77.047 30.3663C77.047 28.1977 76.2236 27.3744 74.0745 27.3744C54.927 27.3744 33.8314 27.3809 14.6839 27.3809C11.0924 27.3809 7.50079 27.3711 3.90597 27.3776C2.59641 27.3776 1.51051 28.1912 1.46189 29.3776C1.38085 31.3938 1.4392 33.4133 1.4392 35.4911V35.4911ZM62.3727 25.8995C62.3727 22.9854 62.3727 20.1588 62.3727 17.3323C62.3727 16.188 62.0291 15.8444 60.8752 15.8444C55.9124 15.8412 50.9497 15.8412 45.9838 15.8444C44.8039 15.8444 44.5154 16.1426 44.5121 17.342C44.5056 19.9579 44.5089 22.5737 44.5121 25.1929C44.5121 25.423 44.551 25.6532 44.5705 25.9028H62.3727V25.8995ZM34.4862 25.8865C34.4862 22.9595 34.4894 20.1297 34.4862 17.2998C34.4862 16.201 34.1296 15.8444 33.034 15.8444C28.0421 15.8379 23.0535 15.8379 18.0616 15.8444C16.9335 15.8444 16.6191 16.1588 16.6159 17.2934C16.6061 19.9384 16.6126 22.5802 16.6159 25.2253C16.6159 25.4327 16.6483 25.6402 16.6677 25.8865H34.4862V25.8865ZM8.80386 62.5316V56.8039H6.87194V62.5316H8.80386V62.5316ZM71.423 62.5413V56.7942H69.5137V62.5413H71.423Z" fill="#1E1E1E" fill-opacity="0.75"/>
</svg>
