<svg width="69" height="64" viewBox="0 0 69 64" fill="none" xmlns="http://www.w3.org/2000/svg">
<path d="M68.848 1.13372C68.848 0.115891 68.5406 0.0151153 68.2534 -1.0447e-06C67.9611 -0.0151174 67.7067 0.052906 67.5354 1.03295C67.5177 1.12868 67.4346 1.19923 67.3363 1.19923H1.58536V0.415698C1.58536 0.186434 1.39892 -1.0447e-06 1.16714 -1.0447e-06H0.726246C0.496982 -1.0447e-06 0.310547 0.186434 0.310547 0.415698V3.33567C0.310547 3.56493 0.496982 3.75137 0.726246 3.75137H1.16714C1.3964 3.75137 1.58284 3.56493 1.58284 3.33567V2.76377C1.58284 2.74361 1.58284 2.72598 1.58536 2.7033C1.59291 2.59749 1.68109 2.51687 1.78691 2.51687H3.27335C3.3842 2.51687 3.4749 2.60756 3.4749 2.71842V3.55989C3.4749 23.2867 3.4749 43.0135 3.4749 62.7403C3.4749 62.8033 3.4749 62.8688 3.47238 62.9343C3.46734 63.1182 3.4623 63.292 3.49757 63.4508C3.55048 63.7052 3.70164 64.0025 4.12994 63.9849C4.48517 63.9672 4.68168 63.7758 4.71444 63.4155C4.72955 63.2517 4.72703 63.0829 4.72703 62.9066V30.5249C4.72703 30.4216 4.80513 30.3334 4.90843 30.3233C6.4125 30.1747 6.47549 30.2024 7.23382 31.316C9.16115 34.1553 10.8088 37.3348 12.1265 40.7662C14.4594 46.8329 15.6637 53.1691 16.7924 59.6717C16.8906 60.2411 16.9889 60.8104 17.0846 61.3823C17.198 62.05 17.3114 62.7201 17.4273 63.3878C17.5003 63.8136 17.7296 64.0101 18.1251 63.9899C18.2813 63.9824 18.4098 63.9244 18.503 63.8161C18.624 63.6775 18.6794 63.4659 18.6592 63.219C18.6416 63.0074 18.6013 62.7982 18.5559 62.574L18.5408 62.4959C18.2461 60.9994 17.9614 59.4752 17.6842 58.0013C17.0519 54.643 16.3994 51.1688 15.6234 47.7852C14.1773 41.4842 11.7687 35.8005 8.46328 30.8877C8.43053 30.8398 8.40534 30.7869 8.36755 30.7063C8.34991 30.6685 8.32724 30.6206 8.29952 30.5652C8.26929 30.5022 8.27181 30.4292 8.3096 30.3687C8.34739 30.3107 8.41038 30.273 8.48092 30.273C8.77569 30.273 9.0629 30.273 9.34759 30.2755C10.0379 30.2805 10.6904 30.283 11.3455 30.2629C11.3656 30.2629 11.3858 30.2629 11.4059 30.2629C11.8695 30.2629 12.1668 30.4292 12.396 30.8096C12.7336 31.3739 13.0889 31.9383 13.434 32.4875C14.0236 33.4222 14.6307 34.3922 15.1674 35.3798C17.6893 40.0331 19.5209 45.4548 20.9343 52.4436C21.4205 54.8445 21.8513 57.2959 22.2695 59.6692C22.4736 60.8256 22.6777 61.982 22.8868 63.1358C22.9573 63.5238 23.0883 63.7934 23.2647 63.9169C23.3755 63.9924 23.5065 64.0151 23.6653 63.9874C23.8341 63.9572 24.28 63.874 24.1188 62.9267C23.9701 62.0525 23.824 61.1758 23.6753 60.2915L23.4814 59.125C23.4713 59.067 23.4889 59.0066 23.5267 58.9612C23.5645 58.9159 23.6224 58.8907 23.6804 58.8907H45.5033C45.5638 58.8907 45.6192 58.9159 45.657 58.9612C45.6948 59.0066 45.7124 59.067 45.7023 59.125L45.0272 63.0653C44.9793 63.35 45.0171 63.5969 45.1355 63.7607C45.2237 63.8841 45.3547 63.9622 45.5235 63.9874C46.0475 64.0731 46.2062 63.5339 46.2491 63.2996C46.3649 62.6773 46.4708 62.055 46.5766 61.4302C46.6648 60.9188 46.7529 60.4073 46.8436 59.8959C47.0603 58.6967 47.2669 57.4748 47.4684 56.2932C47.9295 53.5748 48.4057 50.7657 49.0229 48.0296C50.3809 42.0133 52.9884 36.2288 56.7751 30.8323L56.7927 30.8071C56.9489 30.5828 57.1454 30.3032 57.3999 30.2956C58.2086 30.2654 59.0123 30.2679 59.8638 30.273C60.1435 30.273 60.4256 30.273 60.7154 30.273C60.7884 30.273 60.8539 30.3107 60.8892 30.3737C60.9245 30.4367 60.9245 30.5123 60.8892 30.5753L60.7884 30.7491C60.7381 30.8373 60.7053 30.8952 60.6675 30.9532C57.9894 34.9363 55.9134 39.4788 54.3237 44.8375C52.8473 49.8133 51.9177 54.9504 51.0157 60.2134L50.9099 60.823C50.7739 61.6167 50.6328 62.438 50.5119 63.2467C50.4514 63.6548 50.6353 63.9118 51.0283 63.9723C51.1669 63.9924 51.5902 64.0579 51.7413 63.4079C51.7741 63.2668 51.7967 63.1232 51.8194 62.9721C51.8371 62.8512 51.8547 62.7302 51.8799 62.6118C52.1847 61.0775 52.4845 59.5155 52.7717 58.0039C53.4343 54.5397 54.1171 50.9571 54.9384 47.4678C56.3543 41.4364 58.7503 35.9441 62.0582 31.1421C62.7133 30.1923 63.0886 30.0664 64.2979 30.3888C64.3861 30.4115 64.4466 30.4921 64.4466 30.5828V62.9116C64.4466 63.0729 64.4466 63.2265 64.4541 63.3777C64.4793 63.7732 64.6834 63.9773 65.0563 63.9824C65.0613 63.9824 65.0689 63.9824 65.0739 63.9824C65.4216 63.9824 65.6282 63.7808 65.6861 63.3802C65.7063 63.2341 65.7038 63.0804 65.6987 62.9192C65.6987 62.8537 65.6962 62.7856 65.6962 62.7201V2.72094C65.6962 2.61008 65.7869 2.51939 65.8978 2.51939H67.3666C67.4598 2.51939 67.5429 2.58489 67.5631 2.67559L67.5807 2.74361C67.5933 2.79148 67.6009 2.82675 67.6034 2.86202C67.679 3.72113 68.1047 3.70602 68.2458 3.70098C68.7673 3.68334 68.848 3.14671 68.853 2.82675C68.8555 2.43121 68.8555 2.03566 68.853 1.64012V1.1312L68.848 1.13372ZM7.33712 28.1164C6.83576 28.7387 6.30165 29.0334 5.62645 29.0334C5.40979 29.0334 5.178 29.0032 4.92858 28.9427C4.83789 28.92 4.7749 28.8394 4.7749 28.7462V2.70078C4.7749 2.58993 4.8656 2.49923 4.97645 2.49923H13.7742C13.8749 2.49923 13.9606 2.57481 13.9732 2.67559C14.0009 2.90485 14.0336 3.1316 14.0664 3.35834C14.1344 3.84458 14.205 4.34594 14.2428 4.84478C14.9557 13.708 12.6304 21.5382 7.33712 28.1164V28.1164ZM11.3631 29.0334C11.3329 29.0334 11.3026 29.0334 11.2724 29.0334C10.7005 29.0082 10.1261 29.0133 9.51639 29.0183C9.25185 29.0183 8.98228 29.0233 8.70263 29.0233C8.62704 29.0233 8.5565 28.9805 8.52123 28.9125C8.48848 28.8445 8.49604 28.7613 8.54138 28.7009C14.1672 21.2888 16.3792 12.796 15.3034 2.73857C15.2984 2.68063 15.316 2.6252 15.3538 2.58237C15.3916 2.53954 15.447 2.51435 15.505 2.51435H19.8912C19.9945 2.51435 20.0802 2.59245 20.0928 2.69574C20.1406 3.16435 20.1961 3.63044 20.2515 4.09904C20.3724 5.1068 20.4984 6.1473 20.5236 7.17773C20.7302 15.3053 18.0546 22.4704 12.5724 28.4792C12.2247 28.8596 11.8493 29.0334 11.3631 29.0334ZM55.9084 29.8522L55.8101 30.0009C55.7295 30.1243 55.6413 30.2578 55.5506 30.3888C51.0309 36.9468 48.1033 44.3387 46.8537 52.3629C46.6774 53.4891 46.4758 54.6304 46.2818 55.7339C46.1987 56.2 46.118 56.6661 46.0374 57.1347C46.0273 57.1976 46.0072 57.2581 45.9845 57.3312C45.9744 57.3614 45.9644 57.3942 45.9543 57.432C45.9291 57.5176 45.851 57.5756 45.7603 57.5756L23.368 57.5655C23.2697 57.5655 23.1866 57.4949 23.1689 57.3967C21.5994 48.1077 19.3092 38.3451 13.2526 29.8724C13.1972 29.7943 13.2048 29.691 13.2678 29.6204C20.1633 22.027 22.8036 13.2343 21.3424 2.73857C21.3348 2.68063 21.3525 2.62268 21.3903 2.57733C21.4281 2.5345 21.4835 2.50931 21.5414 2.50931H47.6246C47.6826 2.50931 47.738 2.5345 47.7758 2.57733C47.8136 2.62016 47.8312 2.68063 47.8237 2.73857C46.3574 13.2142 48.9952 22.0018 55.8908 29.6053C55.9537 29.6733 55.9613 29.7741 55.9084 29.8522V29.8522ZM60.6877 28.9049C60.6549 28.9755 60.5844 29.0183 60.5063 29.0183C60.209 29.0183 59.9218 29.0183 59.6421 29.0208C59.3751 29.0208 59.113 29.0233 58.8561 29.0233C58.3547 29.0233 57.8659 29.0183 57.3772 29.0007C57.1202 28.9906 56.8909 28.7689 56.6944 28.5623C52.8146 24.4431 50.3027 19.4824 49.2295 13.8163C48.5442 10.196 48.514 6.55293 49.1388 2.67811C49.1539 2.57985 49.2396 2.50931 49.3378 2.50931H53.1371C53.195 2.50931 53.2504 2.5345 53.2882 2.57733C53.326 2.62016 53.3436 2.67811 53.3361 2.73605C52.1243 12.3425 54.5882 21.0747 60.6599 28.6908C60.7078 28.7512 60.7179 28.8344 60.6826 28.9049H60.6877ZM64.4038 28.7588C64.4038 28.8571 64.3332 28.9427 64.235 28.9578C64.0032 28.9956 63.7664 29.0259 63.5295 29.0259C62.9879 29.0259 62.4462 28.8646 61.9474 28.26C57.6291 23.0196 55.0971 17.0462 54.4194 10.5033C54.1473 7.88316 54.2305 5.2504 54.6588 2.67811C54.6739 2.57985 54.7595 2.50931 54.8578 2.50931H64.2022C64.3131 2.50931 64.4038 2.60001 64.4038 2.71086V28.7563V28.7588Z" fill="#1E1E1E" fill-opacity="0.75"/>
</svg>
