<svg width="88" height="64" viewBox="0 0 88 64" fill="none" xmlns="http://www.w3.org/2000/svg">
<path d="M75.7699 55.9274C75.7699 57.6417 75.7816 59.1962 75.7699 60.7507C75.7543 62.8818 74.6206 64.0078 72.5284 64C70.4791 63.9961 69.3337 62.8156 69.3142 60.6923C69.3025 59.2001 69.2986 57.7079 69.2869 56.2157C69.2869 56.1573 69.2402 56.1028 69.1934 55.9898H20.9684C20.9684 57.7469 21.0035 59.4611 20.9607 61.1715C20.9178 62.9325 19.6321 64.0156 17.6997 64.0039C15.853 63.9922 14.5868 62.8818 14.54 61.1598C14.501 59.7962 14.5322 58.4326 14.5283 57.069C14.5283 56.7222 14.5283 56.3755 14.5283 55.9313C12.031 55.9313 9.63491 55.9547 7.24275 55.9196C6.47134 55.908 5.67655 55.8456 4.9402 55.6391C2.55583 54.9573 0.970151 52.908 0.962359 50.3522C0.927295 40.2537 0.931191 30.1552 0.954567 20.0606C0.962359 17.5789 2.75063 15.8646 5.22851 15.8412C6.98172 15.8218 8.73493 15.8685 10.4881 15.8257C11.9141 15.7906 13.2699 15.9347 14.5166 17.0529C14.54 16.5542 14.5712 16.2192 14.5712 15.8841C14.5712 12.7049 14.5673 9.52188 14.5751 6.34273C14.5868 2.43502 17.0023 0.00389598 20.8827 -3.9814e-08C38.185 -0.00389606 50.8081 -0.00389606 68.1103 -3.9814e-08C71.9557 -3.9814e-08 74.3557 2.40774 74.3674 6.26091C74.3752 9.72837 74.3674 13.1997 74.3674 16.6984C77.5621 15.1555 80.9049 15.9192 84.1542 15.9192C86.2347 15.9192 87.7697 17.8243 87.7736 19.9243C87.7892 30.0851 87.797 40.242 87.7736 50.4029C87.7658 53.5236 85.3113 55.8495 82.0269 55.9157C79.9854 55.9547 77.9439 55.9235 75.7699 55.9235V55.9274ZM72.7349 32.5941V31.5072C72.7349 23.1658 72.7349 14.8244 72.7349 6.48688C72.7349 3.29214 71.0635 1.64023 67.861 1.64023C50.7263 1.64023 38.2629 1.64023 21.1282 1.64023C17.9101 1.64023 16.2737 3.26876 16.2737 6.47909C16.2737 14.8205 16.2737 23.1619 16.2737 31.4994V32.5941H72.7349ZM74.7881 32.9876C75.3531 32.9876 75.8634 32.9798 76.3738 32.9876C78.1114 33.0149 79.101 33.9577 79.1439 35.6915C79.1828 37.2148 79.179 38.7421 79.1439 40.2693C79.101 42.0147 78.1426 42.9186 76.3777 42.9576C76.2141 42.9576 76.0543 42.9576 75.8907 42.9576C53.4613 42.9576 35.7032 42.9576 13.2738 42.9576C13.0128 42.9576 12.7556 42.9576 12.4946 42.9459C11.0375 42.8602 10.0791 41.9095 10.0518 40.4485C10.0206 38.7927 10.0206 37.1369 10.0518 35.4811C10.0791 34.0435 11.0648 33.0695 12.5141 32.9915C12.9816 32.9643 13.453 32.9876 13.9751 32.9876C13.9751 28.6475 13.9829 24.4631 13.9751 20.2788C13.9712 18.4438 13.0673 17.5438 11.2167 17.5282C9.33492 17.5087 7.44924 17.5165 5.56746 17.5282C3.54932 17.5399 2.66103 18.4321 2.66103 20.4424C2.66103 30.3111 2.66103 40.1797 2.66103 50.0483C2.66103 50.434 2.68051 50.8314 2.76622 51.2055C3.22205 53.1574 4.73761 54.2288 7.05574 54.2288C23.61 54.2288 35.4928 54.2288 52.047 54.2288C61.9819 54.2288 71.9129 54.2327 81.8477 54.2249C84.4425 54.2249 86.0554 52.6782 86.0593 50.1691C86.071 40.2031 86.071 30.237 86.0593 20.271C86.0593 18.436 85.1516 17.5438 83.2932 17.5282C81.4114 17.5087 79.5257 17.5165 77.6439 17.5282C75.6336 17.5399 74.7414 18.4399 74.7375 20.4541C74.7336 24.319 74.7375 28.1799 74.7375 32.0448C74.7375 32.3292 74.7648 32.6136 74.7803 32.9915L74.7881 32.9876ZM44.6368 34.6824C40.8732 34.6824 39.4473 34.6824 35.6798 34.6824C28.1527 34.6824 20.6217 34.6824 13.0946 34.6824C11.8479 34.6824 11.7076 34.8266 11.6998 36.0889C11.692 37.2265 11.6998 38.3603 11.6998 39.4979C11.6998 41.255 11.7699 41.3251 13.4881 41.3251C35.7811 41.3251 53.4029 41.3251 75.6959 41.3251C75.8907 41.3251 76.0855 41.3173 76.2803 41.3251C77.153 41.3641 77.5037 40.9472 77.4764 40.0823C77.4374 38.8161 77.4686 37.5499 77.4686 36.2876C77.4686 34.7447 77.4102 34.6863 75.8907 34.6863C64.6935 34.6863 55.8379 34.6863 44.6407 34.6863L44.6368 34.6824ZM16.2114 55.9781C16.2114 57.7547 16.1841 59.4339 16.2231 61.1091C16.2426 61.978 16.8153 62.3364 17.6412 62.3637C18.4672 62.387 19.223 62.1728 19.2659 61.2377C19.3438 59.504 19.2893 57.7664 19.2893 55.9781H16.2153H16.2114ZM71.0168 55.9781C71.0168 57.7547 70.9934 59.4378 71.0246 61.113C71.0402 61.9974 71.6285 62.3286 72.4466 62.3637C73.2882 62.3987 74.0323 62.1377 74.0791 61.2338C74.1687 59.5001 74.1063 57.7586 74.1063 55.9781H71.0129H71.0168Z" fill="#1E1E1E" fill-opacity="0.75"/>
</svg>
