<svg width="60" height="64" viewBox="0 0 60 64" fill="none" xmlns="http://www.w3.org/2000/svg">
<path d="M59.0157 62.2936V9.77781C59.0157 8.75128 58.9209 8.65648 57.8781 8.65648H39.4493C39.1947 8.65648 38.9888 8.45063 38.9888 8.19603V6.97989C38.9888 6.33255 38.9753 5.73668 38.8182 5.57958C38.6611 5.42249 38.0679 5.40894 37.4206 5.40894H34.0403C33.7857 5.40894 33.5799 5.2031 33.5799 4.94849V3.68902C33.5799 2.74916 33.5799 1.8418 33.5799 0.934442C33.5799 0.167926 33.4146 -3.30071e-06 32.6617 -3.30071e-06C30.7251 -0.00542037 28.7858 -3.30071e-06 26.8492 -3.30071e-06C25.9878 -3.30071e-06 25.847 0.138132 25.8443 0.980487C25.8443 1.88243 25.8443 2.78437 25.8443 3.70798V4.94849C25.8443 5.2031 25.6384 5.40894 25.3838 5.40894H24.1731C23.2387 5.40894 22.3286 5.40894 21.4185 5.40894C20.5789 5.40894 20.4408 5.5525 20.4381 6.41652C20.4381 6.79571 20.4381 7.1722 20.4381 7.58119V8.19603C20.4381 8.45063 20.2322 8.65648 19.9776 8.65648H1.6381C0.468012 8.65648 0.411133 8.71336 0.411133 9.88886V62.2936C0.411133 62.5482 0.446344 64 0.446344 64H59.0293C59.0293 63.2335 59.0157 62.5482 59.0157 62.2936V62.2936ZM21.7192 7.11803C21.7192 6.86343 21.925 6.65758 22.1796 6.65758H25.3838C26.0258 6.65758 26.7516 6.65758 26.9223 6.48965C27.0902 6.32172 27.0902 5.59583 27.0902 4.95933V1.74159C27.0902 1.48698 27.2961 1.28113 27.5507 1.28113H31.8762C32.1308 1.28113 32.3367 1.48698 32.3367 1.74159V2.96855C32.3367 3.85695 32.3367 4.73181 32.3367 5.60938C32.3367 6.5384 32.4585 6.65487 33.4119 6.65758C34.2868 6.65758 35.1644 6.65758 36.0717 6.65758H37.2851C37.5397 6.65758 37.7456 6.86343 37.7456 7.11803V11.4436C37.7456 11.6982 37.5397 11.904 37.2851 11.904H36.0528C35.1346 11.904 34.2353 11.904 33.3334 11.904C32.4775 11.904 32.3394 12.0449 32.3367 12.8926C32.3367 13.7729 32.3367 14.6559 32.3367 15.5714V16.8498C32.3367 17.1044 32.1308 17.3103 31.8762 17.3103H27.5507C27.2961 17.3103 27.0902 17.1044 27.0902 16.8498V13.0497C27.0902 11.9853 27.0008 11.8986 25.9147 11.8986H22.1769C21.9223 11.8986 21.7165 11.6927 21.7165 11.4381V7.11261L21.7192 7.11803ZM17.1661 62.2476C17.1661 62.5022 16.9603 62.708 16.7057 62.708H15.69C15.4354 62.708 15.2295 62.5022 15.2295 62.2476V47.1827C15.2295 46.9281 15.4354 46.7223 15.69 46.7223H16.7057C16.9603 46.7223 17.1661 46.9281 17.1661 47.1827V62.2476ZM29.0539 62.2367C29.0539 62.4913 28.8481 62.6972 28.5935 62.6972H18.9456C18.691 62.6972 18.4852 62.4913 18.4852 62.2367V47.1773C18.4852 46.9227 18.691 46.7168 18.9456 46.7168H28.5935C28.8481 46.7168 29.0539 46.9227 29.0539 47.1773V62.2367V62.2367ZM40.9444 62.2611C40.9444 62.5157 40.7385 62.7216 40.4839 62.7216H30.8307C30.5761 62.7216 30.3703 62.5157 30.3703 62.2611V47.2017C30.3703 46.9471 30.5761 46.7412 30.8307 46.7412H40.4839C40.7385 46.7412 40.9444 46.9471 40.9444 47.2017V62.2611ZM44.1892 62.2611C44.1892 62.5157 43.9834 62.7216 43.7288 62.7216H42.7293C42.4747 62.7216 42.2689 62.5157 42.2689 62.2611V47.1773C42.2689 46.9227 42.4747 46.7168 42.7293 46.7168H43.7288C43.9834 46.7168 44.1892 46.9227 44.1892 47.1773V62.2611ZM44.2082 44.9373C44.2082 45.1919 44.0023 45.3978 43.7477 45.3978H15.6846C15.43 45.3978 15.2241 45.1919 15.2241 44.9373V43.9379C15.2241 43.6833 15.43 43.4774 15.6846 43.4774H43.7477C44.0023 43.4774 44.2082 43.6833 44.2082 43.9379V44.9373ZM57.7319 62.2584C57.7319 62.513 57.526 62.7189 57.2714 62.7189H45.9416C45.687 62.7189 45.4812 62.513 45.4812 62.2584V43.2932C45.4812 42.3073 45.3674 42.1963 44.3896 42.1963C34.6118 42.1963 24.8313 42.1963 15.0535 42.1963C14.0378 42.1963 13.9457 42.2938 13.9457 43.3447V62.2638C13.9457 62.5184 13.7398 62.7243 13.4852 62.7243H2.15543C1.90083 62.7243 1.69498 62.5184 1.69498 62.2638V10.3954C1.69498 10.1408 1.90083 9.93491 2.15543 9.93491H19.9749C20.2295 9.93491 20.4353 10.1408 20.4353 10.3954V10.9912C20.4326 11.4327 20.4299 11.8742 20.4353 12.3184C20.4435 12.9549 20.6304 13.1391 21.2642 13.1445C22.204 13.1499 23.1412 13.1499 24.1081 13.1472H25.3838C25.6384 13.1472 25.8443 13.3531 25.8443 13.6077V14.8292C25.8443 15.7258 25.8443 16.606 25.8443 17.4863C25.8443 18.4343 25.9635 18.5562 26.8979 18.5562C28.8128 18.5562 30.7278 18.5589 32.6427 18.5562C33.4092 18.5562 33.5772 18.391 33.5799 17.6407C33.5826 16.7198 33.5826 15.7962 33.5799 14.8536V13.6077C33.5799 13.3531 33.7857 13.1472 34.0403 13.1472H35.2673C36.1936 13.1472 37.101 13.1472 38.0083 13.1472C38.848 13.1472 38.9861 13.0037 38.9888 12.1397C38.9888 11.7469 38.9888 11.3542 38.9888 10.9452V10.4116C38.9888 10.157 39.1947 9.95116 39.4493 9.95116H57.2687C57.5233 9.95116 57.7292 10.157 57.7292 10.4116V62.2584H57.7319Z" fill="#1E1E1E" fill-opacity="0.75"/>
</svg>
