<svg width="42" height="42" viewBox="0 0 42 42" fill="none" xmlns="http://www.w3.org/2000/svg">
<circle cx="21" cy="21" r="20.5" stroke="white"/>
<path fill-rule="evenodd" clip-rule="evenodd" d="M8.5 13.5C8.5 12.8096 9.05964 12.25 9.75 12.25H32.25C32.9404 12.25 33.5 12.8096 33.5 13.5C33.5 14.1904 32.9404 14.75 32.25 14.75H9.75C9.05964 14.75 8.5 14.1904 8.5 13.5ZM8.5 21C8.5 20.3096 9.05964 19.75 9.75 19.75H32.25C32.9404 19.75 33.5 20.3096 33.5 21C33.5 21.6904 32.9404 22.25 32.25 22.25H9.75C9.05964 22.25 8.5 21.6904 8.5 21ZM8.5 28.5C8.5 27.8096 9.05964 27.25 9.75 27.25H32.25C32.9404 27.25 33.5 27.8096 33.5 28.5C33.5 29.1904 32.9404 29.75 32.25 29.75H9.75C9.05964 29.75 8.5 29.1904 8.5 28.5Z" fill="white"/>
</svg>
