<svg width="85" height="64" viewBox="0 0 85 64" fill="none" xmlns="http://www.w3.org/2000/svg">
<path d="M79.3273 14.7615H5.60239V15.9785C5.60239 30.9871 5.60239 45.9994 5.60239 61.008C5.60239 61.4724 5.62486 61.9592 5.50877 62.401C5.20546 63.5843 4.08206 64.1385 2.48683 63.97C1.35594 63.8502 0.565821 63.0152 0.498417 61.8543C0.47595 61.4798 0.487183 61.1054 0.487183 60.7309C0.487183 45.7523 0.487183 30.7736 0.487183 15.795C0.487183 10.5562 0.487183 5.31367 0.487183 0H84.3976C84.4163 0.27336 84.45 0.546721 84.45 0.816336C84.4762 5.21631 84.5249 9.61254 84.5211 14.0125C84.5061 29.7401 84.4575 45.4639 84.4762 61.1915C84.4762 63.6106 82.7274 64.2397 81.0011 63.8352C80.065 63.6143 79.4321 62.8729 79.346 61.9217C79.3123 61.551 79.3273 61.1728 79.3273 60.7983C79.3273 45.8496 79.3273 30.9047 79.3273 15.956V14.7652V14.7615ZM2.10113 13.0127H41.6148V1.58399H2.10113V13.009V13.0127ZM82.821 1.58025C82.5776 1.55029 82.3679 1.50535 82.1582 1.50535C68.2131 1.50535 58.0127 1.50535 44.0676 1.49038C43.4609 1.49038 43.255 1.66637 43.2587 2.28424C43.2849 5.6844 43.2699 9.08455 43.2737 12.4847C43.2737 12.6644 43.3298 12.8404 43.3636 13.0389H82.8173V1.58025H82.821ZM80.9075 14.9974C80.9075 15.398 80.9075 15.765 80.9075 16.1283C80.9075 21.8389 80.9075 27.5495 80.9075 33.2601C80.9075 42.5281 80.9075 51.7962 80.9075 61.0642C80.9075 62.1876 81.1285 62.3861 82.117 62.3074C83.0457 62.2325 82.866 61.5435 82.866 60.9818C82.8735 45.9732 82.8697 30.9646 82.866 15.9523C82.866 15.6489 82.836 15.3456 82.821 14.9974H80.9038H80.9075ZM2.04871 15.1097V16.4128C2.04871 30.1632 2.04871 43.9099 2.04871 57.6603C2.04871 58.9073 2.06743 60.1542 2.04122 61.4012C2.02624 62.1277 2.36326 62.3973 3.05977 62.401C4.04836 62.4085 4.02589 61.757 4.02589 61.0642C4.02214 46.0668 4.02589 31.0695 4.02589 16.0758V15.1097H2.05245H2.04871Z" fill="#1E1E1E" fill-opacity="0.75"/>
</svg>
