<svg width="115" height="30" viewBox="0 0 115 30" fill="none" xmlns="http://www.w3.org/2000/svg">
<path d="M0.454102 17.2039V18.1986H7.00976C9.0325 18.1986 13.3864 17.174 13.3864 12.5118C13.3864 9.64346 11.5195 7.36207 8.06092 7.31233V7.25928C8.79674 7.11781 9.4574 6.71708 9.92288 6.1299C10.3884 5.54273 10.6278 4.80806 10.5976 4.05937C10.5976 0.806406 6.95007 0.703613 5.29209 0.703613H0.454102V1.6984H2.04245V17.1939L0.454102 17.2039ZM4.14146 1.70835H5.21914C6.75444 1.70835 8.75064 1.96368 8.75064 4.3976C8.75064 6.54966 6.88044 7.01058 5.10308 7.01058H4.15472L4.14146 1.70835ZM4.14146 8.00868H5.83259C8.39252 8.00868 11.2874 8.5724 11.2874 12.4653C11.2874 16.7761 8.06092 17.2039 5.98181 17.2039H4.13814L4.14146 8.00868Z" fill="white"/>
<path d="M20.6082 18.202V17.2072H19.0199V12.9528H20.7806C21.9081 14.0803 23.6987 15.7714 25.9536 18.202H29.2695V17.2072H27.784L23.2245 12.7506C26.5405 12.3692 29.1667 10.4294 29.1667 6.86142C29.1667 2.6601 25.8508 0.713623 22.0739 0.713623H15.3856V1.70841H16.9209V17.2039H15.3325V18.1987L20.6082 18.202ZM19.0199 1.70841H20.8138C23.4268 1.70841 27.0644 2.42798 27.0644 6.44693C27.0644 11.0064 24.1961 11.9547 20.7641 11.9547H19.0199V1.70841Z" fill="white"/>
<path d="M32.0088 0.710205V1.70831H33.5441V17.2038H32.0088V18.2019H37.1817V17.2038H35.6464V1.70831H37.1817V0.710205H32.0088Z" fill="white"/>
<path d="M53.8808 2.3217C52.2484 1.0226 50.2271 0.309136 48.1409 0.295654C43.2498 0.295654 39.2275 4.88163 39.2275 9.77267C39.2275 15.307 43.0177 18.6097 48.4758 18.6097C50.8566 18.6097 53.1612 17.5851 55.1342 16.3051C55.0429 15.7373 55.0008 15.1626 55.0082 14.5874V9.64998C54.988 9.46117 55.02 9.27044 55.1007 9.09854C55.1814 8.92665 55.3077 8.78018 55.4658 8.67509L54.8524 8.08485C53.9893 8.23163 53.1148 8.30044 52.2394 8.29044H48.1409V9.41786H52.9059V14.7466C52.9059 16.9749 50.8301 17.4856 49.013 17.4856C44.6558 17.4856 41.3398 13.5429 41.3398 9.26533C41.3398 5.21654 43.6941 1.30702 48.2039 1.30702C50.1934 1.30702 51.8149 2.30181 51.8149 3.48561C51.8234 3.75385 51.7701 4.02045 51.6591 4.26481C51.5482 4.50917 51.3825 4.72475 51.175 4.89489L51.9675 5.58793L55.3763 2.41123L54.6335 1.64193L53.8808 2.3217Z" fill="white"/>
<path d="M59.7168 17.2038H58.1284V18.1986H62.8669V17.2038H61.209V4.47713H61.262L70.1753 18.3047H71.6575V1.7083H73.1962V0.713514H68.3747V1.7083H70.1687V14.7467H70.1156L61.8423 1.88737C61.5842 1.52101 61.3695 1.12599 61.2023 0.710205H58.1815V1.70499H59.7168V17.2038Z" fill="white"/>
<path d="M84.9913 17.615C80.1765 17.615 77.3645 13.1583 77.3645 8.70164C77.3645 4.75564 80.2328 1.30042 84.3281 1.30042C89.2722 1.30042 92.3228 5.42215 92.3228 10.2369C92.3434 11.2073 92.1683 12.1718 91.808 13.073C91.4476 13.9742 90.9094 14.7935 90.2254 15.4821C89.5415 16.1707 88.7258 16.7145 87.8271 17.0809C86.9283 17.4473 85.965 17.629 84.9946 17.615H84.9913ZM75.2622 9.34163C75.2622 15.2341 79.573 18.6263 85.2532 18.6263C90.4526 18.6263 94.4218 14.8627 94.4218 9.43116C94.4218 3.69454 89.8624 0.312256 84.4574 0.312256C79.2314 0.312256 75.2622 4.25825 75.2622 9.35488" fill="white"/>
<path d="M96.5176 0.710205V1.70499H98.0429V17.2005H96.4546V18.1953H106.001L105.799 18.885H106.824L108.283 13.9674L107.437 13.7884C106.081 16.8092 104.313 17.1939 102.622 17.1939H100.162V1.7083H102.059V0.713514L96.5176 0.710205Z" fill="white"/>
<path d="M109.781 0.710205V1.70831H111.317V17.2038H109.781V18.2019H114.954V17.2038H113.419V1.70831H114.954V0.710205H109.781Z" fill="white"/>
<path d="M26.0864 29.748C26.4051 29.7544 26.7204 29.6827 27.0049 29.5391C27.1442 29.4308 27.2139 29.1523 27.2139 28.7035V23.5439C27.2545 23.254 27.1795 22.9598 27.0049 22.7248C26.7277 22.561 26.4079 22.4837 26.0864 22.5026V22.2871H29.5019V22.5026C29.1804 22.4837 28.8606 22.561 28.5833 22.7248C28.4088 22.9598 28.3338 23.254 28.3744 23.5439V28.7035C28.3744 29.1456 28.4441 29.4242 28.5833 29.5391C28.8679 29.6827 29.1832 29.7544 29.5019 29.748V29.9603H26.0864V29.748Z" fill="white"/>
<path d="M38.226 22.2871H44.7784L44.8381 24.2568H44.5628C44.5086 23.8139 44.3279 23.3959 44.0422 23.0531C43.8333 22.8641 43.379 22.7679 42.7159 22.7679H42.0692V28.7035C42.0692 29.1456 42.1389 29.4242 42.2782 29.5391C42.5627 29.6827 42.878 29.7544 43.1967 29.748V29.9603H39.8243V29.748C40.1471 29.7635 40.4667 29.679 40.7395 29.506C40.8622 29.38 40.9219 29.0683 40.9219 28.5675V22.7679H40.2587C39.6199 22.7679 39.1777 22.8608 38.9323 23.0465C38.7035 23.2322 38.5278 23.6367 38.4117 24.2568H38.1299L38.226 22.2871Z" fill="white"/>
<path d="M52.5811 29.9603V29.7514C52.7084 29.7444 52.833 29.7114 52.9471 29.6544C53.0611 29.5973 53.1623 29.5175 53.2442 29.4198C53.5509 28.9226 53.8096 28.3974 54.0169 27.8513L56.4309 22.1611H56.6597L59.5479 28.7334C59.656 29.0279 59.8105 29.3033 60.0055 29.5491C60.1766 29.6726 60.3786 29.7461 60.5891 29.7613V29.9702H57.6379V29.7613C57.8626 29.7522 58.0854 29.7155 58.3011 29.6519C58.4006 29.6055 58.4503 29.4994 58.4503 29.3203C58.4419 29.2181 58.423 29.1169 58.3939 29.0186C58.3507 28.865 58.2975 28.7143 58.2348 28.5676L57.754 27.4501H54.7165C54.4181 28.2095 54.2357 28.6737 54.176 28.8428C54.127 28.9702 54.0979 29.1044 54.0898 29.2407C54.0833 29.3249 54.1027 29.4091 54.1454 29.482C54.188 29.5549 54.252 29.613 54.3286 29.6486C54.5072 29.7094 54.6937 29.744 54.8823 29.7514V29.9603H52.5811ZM57.5848 26.9759L56.2585 23.7826L54.9321 26.9759H57.5848Z" fill="white"/>
<path d="M69.1709 29.748C69.461 29.7454 69.7454 29.6677 69.9966 29.5225C70.1259 29.4131 70.1889 29.1412 70.1889 28.7035V23.5439C70.2239 23.2628 70.1581 22.9785 70.0032 22.7414C69.7591 22.5735 69.4669 22.4896 69.1709 22.5026V22.2871H72.4471V22.5026C72.147 22.4916 71.8497 22.5639 71.5882 22.7116C71.5012 22.8147 71.4369 22.9351 71.3998 23.0648C71.3626 23.1946 71.3534 23.3307 71.3727 23.4643V29.0351C71.3668 29.1405 71.3885 29.2457 71.4357 29.3402C71.4704 29.3834 71.5142 29.4184 71.5642 29.4425C71.6141 29.4666 71.6688 29.4792 71.7242 29.4794C71.8104 29.4794 71.8999 29.496 71.9961 29.4993H72.5399C73.5679 29.4993 74.2631 29.4142 74.6257 29.244C74.9882 29.0738 75.3397 28.6394 75.6801 27.9408H75.9753L75.4082 29.9536H69.1709V29.748Z" fill="white"/>
<path d="M86.7157 22.2872V22.5028C86.5102 22.4879 86.3037 22.5092 86.1055 22.5658C86.0409 22.5873 85.9857 22.6303 85.9489 22.6876C85.9121 22.7449 85.896 22.8131 85.9033 22.8808C85.9051 22.9451 85.9163 23.0088 85.9364 23.0698C85.9743 23.1723 86.0256 23.2693 86.089 23.3583L87.8033 25.9348L89.4613 23.3185C89.519 23.2355 89.5626 23.1437 89.5906 23.0466C89.6097 22.9954 89.622 22.9419 89.6271 22.8874C89.6285 22.8094 89.6023 22.7334 89.5532 22.6727C89.5041 22.612 89.4351 22.5707 89.3585 22.5558C89.1805 22.5133 88.9976 22.4944 88.8147 22.4995V22.2839H91.3514V22.4995C91.127 22.5086 90.9097 22.581 90.7247 22.7084C90.339 23.02 90.0112 23.3972 89.7564 23.8225L88.0421 26.4388V28.7003C88.0421 29.148 88.1117 29.4298 88.2576 29.5426C88.562 29.6897 88.898 29.7591 89.2358 29.7449V29.9571H85.6977V29.7449C86.2216 29.715 86.5466 29.6387 86.6726 29.5127C86.7986 29.3867 86.8649 29.0684 86.8649 28.5644V26.5483L85.3462 24.3233C85.0132 23.8071 84.6442 23.3151 84.242 22.851C84.0417 22.6372 83.7653 22.511 83.4727 22.4995V22.2839L86.7157 22.2872Z" fill="white"/>
</svg>
