<svg width="50" height="56" viewBox="0 0 50 56" fill="none" xmlns="http://www.w3.org/2000/svg">
<path fill-rule="evenodd" clip-rule="evenodd" d="M49.5163 11.0459C49.3601 10.9975 49.1929 10.9975 49.0367 11.0459L49.1177 10.877C49.1177 10.877 49.1785 10.7352 49.3339 10.4109C49.4268 10.2148 49.4731 9.99975 49.469 9.78272C49.469 9.70841 49.469 9.63409 49.469 9.55303C49.4767 9.2621 49.3868 8.97696 49.2137 8.743C49.0406 8.50905 48.7942 8.33976 48.5138 8.26207C48.2333 8.18437 47.9349 8.20276 47.6661 8.3143C47.3973 8.42584 47.1734 8.6241 47.0303 8.87753L46.9088 9.12074C46.8432 9.24807 46.7846 9.37883 46.7332 9.5125C46.5086 10.1375 46.1797 10.72 45.7605 11.2351C45.1808 12.0297 44.4995 12.7451 43.734 13.3628C43.3265 13.7174 42.8282 13.9513 42.2951 14.0383C42.125 14.0862 41.9452 14.0862 41.7751 14.0383C41.7751 14.0383 42.1398 13.9032 43.9029 11.9376C45.0192 10.7916 45.9737 9.49841 46.7399 8.09398C47.255 7.23502 47.5648 6.26873 47.6451 5.2704C47.7379 4.56654 47.6709 3.85084 47.4492 3.17638C47.0579 2.09237 46.3131 1.17154 45.3348 0.562173C44.9859 0.323311 44.5934 0.155636 44.1796 0.0687022C43.7658 -0.0182312 43.339 -0.0227155 42.9234 0.0555502C42.6429 0.0669209 42.3744 0.172408 42.1612 0.354997C41.948 0.537586 41.8025 0.786676 41.7481 1.06207C41.667 1.39982 42.025 1.66324 42.025 1.66324C41.7441 1.81848 41.5222 2.062 41.3937 2.35609C41.2652 2.65018 41.2372 2.97844 41.3142 3.29001C41.3911 3.60158 41.5687 3.8791 41.8193 4.07959C42.0699 4.28007 42.3796 4.39236 42.7005 4.39903C42.8995 4.42673 43.1024 4.40105 43.2882 4.32469C43.3801 4.41447 43.4554 4.51965 43.511 4.63544C43.6726 5.09024 43.746 5.57167 43.7272 6.05396C43.8133 7.01465 43.6036 7.97871 43.1261 8.81676C42.8179 9.41452 42.4316 9.96876 41.9776 10.465C41.8493 10.5798 41.6264 10.8027 41.6264 10.8027L41.4845 10.904L41.3698 10.9918H41.2415H41.14L41.0591 10.8433C41.0982 10.7856 41.132 10.7245 41.1603 10.6609C41.2178 10.5628 41.246 10.4502 41.2415 10.3366C41.2443 10.1103 41.2261 9.88415 41.1874 9.66113C41.0866 9.372 40.9332 9.10405 40.7348 8.87081C40.4763 8.5603 40.1375 8.32666 39.7554 8.19532C39.7005 8.1733 39.6406 8.16666 39.5822 8.17619C39.5239 8.18571 39.4692 8.211 39.4242 8.24933C39.3702 8.24933 39.3703 8.35068 39.3703 8.40472C39.3703 8.45065 39.3845 8.49548 39.4109 8.53306C39.433 8.5763 39.4627 8.61518 39.4986 8.64789L39.5595 8.81676C39.5672 8.83011 39.5712 8.84526 39.5712 8.86067C39.5712 8.87609 39.5672 8.89123 39.5595 8.90458L39.5189 8.9924H39.4176C39.3388 8.98191 39.2654 8.94638 39.2082 8.89106C39.0913 8.77898 38.9871 8.6544 38.8975 8.51954C38.721 8.35827 38.5232 8.22192 38.3097 8.11426C38.1846 8.0585 38.048 8.03301 37.9111 8.03992C37.7159 8.03992 37.5286 8.11751 37.3905 8.25559C37.2524 8.39367 37.1749 8.58096 37.1749 8.77623C37.1749 8.8873 37.2005 8.99688 37.2497 9.09646C37.2989 9.19604 37.3704 9.28292 37.4586 9.35039C37.4977 9.43383 37.5452 9.51307 37.6004 9.58684C37.7108 9.76048 37.7887 9.95272 37.8302 10.1542C37.8625 10.2947 37.8872 10.4367 37.9044 10.5798C37.9044 10.7217 37.8302 10.7149 37.7019 10.7487C37.5735 10.7824 37.5734 10.6203 37.5734 10.5663C37.5576 10.4176 37.5141 10.2733 37.4451 10.1407C37.4141 10.0676 37.3609 10.006 37.293 9.96483C37.2251 9.9236 37.1459 9.90478 37.0668 9.91106C36.7493 9.91106 36.7359 10.0529 36.6548 10.2083C36.558 10.6283 36.558 11.0649 36.6548 11.485C36.7233 11.8987 36.7233 12.3209 36.6548 12.7346C36.4602 13.1131 36.2343 13.4747 35.9793 13.8155C35.6956 14.2005 33.7974 16.2269 33.3718 16.7808C32.9463 17.3348 30.9739 20.0503 30.9739 20.0503C30.0095 21.596 29.3044 23.2891 28.8866 25.0624C27.333 32.3646 30.7712 39.3425 36.4183 40.5381L36.7157 40.5989C36.9116 40.6394 37.8098 40.7069 38.4583 40.7272C39.2051 40.7071 39.9458 40.5867 40.6605 40.3692C41.2395 40.1589 41.7838 39.8628 42.275 39.491C43.1066 38.8739 43.7385 38.0259 44.092 37.0525C44.3811 36.2226 44.469 35.3359 44.3486 34.4653C44.2701 33.7704 43.9354 33.1298 43.4098 32.6685C43.2428 32.536 43.0467 32.4449 42.8377 32.4026C42.6287 32.3604 42.4128 32.3682 42.2074 32.4254C41.7683 32.5537 41.667 33.1009 41.5319 33.1887C41.4234 33.2328 41.3064 33.2521 41.1895 33.2451C41.0726 33.2381 40.9588 33.205 40.8564 33.1482C40.6335 33.0333 40.5659 32.8037 40.5254 32.4727C40.4812 32.059 40.5085 31.6408 40.6064 31.2365C40.7858 30.6947 41.0605 30.1892 41.4171 29.7436C42.6315 28.529 44.2664 27.8277 45.9834 27.7847C48.0099 27.6361 39.3702 27.582 38.6137 31.2635L38.553 31.5607C38.4868 31.9262 38.4731 32.2992 38.5124 32.6685C38.5743 33.2881 38.8432 33.8688 39.2757 34.3168C39.4814 34.5301 39.7281 34.6998 40.0008 34.8159C40.2735 34.9319 40.5668 34.9919 40.8631 34.9923C41.0599 34.99 41.2544 34.9489 41.4352 34.8712C41.6161 34.7935 41.7798 34.6809 41.9169 34.5397C42.0761 34.3608 42.2228 34.1712 42.356 33.9722C42.3965 33.9317 42.6465 33.8844 42.7884 34.1816C42.8814 34.4979 42.9336 34.8248 42.9437 35.1544C42.9306 36.124 42.5759 37.058 41.942 37.7919C41.3082 38.5258 40.4358 39.0127 39.4783 39.1668C39.2203 39.1967 38.9597 39.1967 38.7016 39.1668C38.2179 39.1022 37.7493 38.9536 37.3168 38.7277C36.709 38.3979 36.1828 37.9363 35.7766 37.3767C35.3 36.7338 34.9367 36.0142 34.7025 35.2489C34.4545 34.5634 34.4689 33.8102 34.7431 33.1346C34.8843 32.8843 35.0807 32.6695 35.3173 32.5064C35.3531 32.4747 35.3869 32.4409 35.4186 32.4051C35.4431 32.3449 35.4568 32.2809 35.4592 32.216C35.4592 32.1214 35.4592 32.1484 35.4592 32.0741C35.4539 32.0356 35.4387 31.9991 35.415 31.9683C35.3913 31.9375 35.36 31.9134 35.3241 31.8985C35.2845 31.8778 35.2405 31.8669 35.1958 31.8669C35.1511 31.8669 35.1069 31.8778 35.0673 31.8985C34.9764 31.9418 34.8977 32.0067 34.8378 32.0876C34.79 32.1885 34.7559 32.2952 34.7363 32.4051C34.7293 32.4309 34.7173 32.455 34.7009 32.4761C34.6845 32.4972 34.6641 32.5148 34.6408 32.528C34.6176 32.5412 34.592 32.5496 34.5655 32.5529C34.539 32.5561 34.5122 32.5541 34.4865 32.547C34.4122 32.547 34.3986 32.4186 34.3918 32.297C34.3868 32.2138 34.3868 32.1303 34.3918 32.0471C34.3992 31.9684 34.4174 31.8911 34.4459 31.8174C34.5198 31.6811 34.6156 31.5578 34.7296 31.4527C34.8217 31.3384 34.9507 31.2596 35.0944 31.2297C35.324 31.2297 35.351 31.2297 35.3713 31.3716C35.3915 31.5135 35.2363 31.6688 35.8037 31.8782C35.9228 31.9116 36.0487 31.9115 36.1678 31.8782C36.2869 31.8448 36.3947 31.7794 36.4792 31.6891C36.6551 31.4374 36.7299 31.1287 36.6886 30.8244C36.6438 30.5567 36.5101 30.3117 36.3091 30.1292C36.1082 29.9466 35.8515 29.837 35.5807 29.8179C35.0918 29.7022 34.5859 29.677 34.0879 29.7436C33.6531 29.8566 33.2682 30.1109 32.9937 30.4664L32.8855 30.1287C32.9404 29.8535 33.0662 29.5974 33.2503 29.3856C33.5472 29.003 33.9714 28.7394 34.4459 28.6426C34.7399 28.5451 35.0544 28.5265 35.3579 28.5886C35.77 28.6426 35.7767 28.8115 35.8375 28.9263C35.8983 29.0411 35.9118 29.0209 36.0064 29.0952C36.0296 29.1166 36.058 29.1315 36.0888 29.1386C36.1196 29.1457 36.1517 29.1447 36.182 29.1357L36.29 29.0749C36.3321 29.0108 36.3682 28.9429 36.398 28.8723C36.4313 28.774 36.4517 28.6718 36.4589 28.5683C36.4589 28.4737 36.3644 28.3926 36.3441 28.2981C36.2766 27.9468 36.6143 28.1292 36.6683 28.1832C36.7224 28.2373 36.7426 28.3791 36.7831 28.4737C36.8645 28.5978 36.9731 28.7017 37.1006 28.7777C37.1951 28.8385 37.3438 28.7304 37.3438 28.7304C37.3438 28.7304 37.4924 28.6831 37.5262 28.3589C37.5446 28.2629 37.5446 28.1644 37.5262 28.0684C37.4908 27.9514 37.4309 27.8431 37.3506 27.7509C37.1942 27.6317 37.0268 27.5277 36.8507 27.4402C36.7426 27.3659 36.7831 27.1903 37.1209 27.1768C37.214 27.1726 37.3068 27.1911 37.3912 27.2308C37.5838 27.3053 37.7521 27.4315 37.8775 27.5956C38.0666 27.8455 37.9923 27.8252 38.2288 28.1089C38.4652 28.3927 38.5258 28.3656 38.7555 28.3724C38.8674 28.3657 38.9766 28.3352 39.0756 28.2827C39.1747 28.2303 39.2613 28.1572 39.3297 28.0684C39.499 27.8128 39.5969 27.5166 39.6134 27.2105C39.5998 26.7683 39.4354 26.344 39.1473 26.0082C38.9492 25.7179 38.6661 25.4961 38.3368 25.3732C38.3368 25.3732 38.2286 25.2921 38.2489 25.2381C38.2683 25.1932 38.2985 25.1537 38.3368 25.1233L38.6813 25.0489C38.8585 24.9998 39.0323 24.9389 39.2014 24.8666C39.2894 24.8177 39.3601 24.7427 39.4036 24.6519C39.4472 24.5612 39.4614 24.4592 39.4445 24.3599C39.4445 24.1168 39.3297 24.0762 39.1541 23.9817C38.9785 23.8871 38.8097 23.9073 38.3571 23.9073C37.9037 23.923 37.4521 23.9727 37.0061 24.056C36.4049 24.1573 35.8577 24.3802 35.7766 24.3802C35.6956 24.3802 35.6956 24.2924 35.6551 24.2384C35.6146 24.1843 35.7226 24.0762 35.7631 23.9951C36.0172 23.7949 36.2938 23.6249 36.5872 23.4885C36.9281 23.3044 37.2948 23.1724 37.6748 23.0968C38.2632 22.9308 38.8798 22.8894 39.4851 22.9752C39.8904 23.0157 40.2821 23.063 40.8023 23.1508C41.0085 23.2053 41.2238 23.2161 41.4344 23.1824C41.645 23.1486 41.8462 23.0711 42.025 22.9549C42.1379 22.8559 42.2274 22.733 42.287 22.5951C42.3466 22.4573 42.3747 22.3079 42.3695 22.1578C42.3396 21.9548 42.2477 21.766 42.1061 21.6174C41.9916 21.4988 41.8594 21.3985 41.7143 21.3202C42.0361 21.2345 42.3727 21.2207 42.7005 21.2797C43.2746 21.3743 43.376 21.7593 43.6327 22.1375C43.8894 22.5158 43.8015 22.8941 43.6664 22.9887C43.5905 23.0451 43.4975 23.0737 43.403 23.0697L43.2882 23.2251C43.3538 23.4444 43.4886 23.6366 43.6725 23.7729C43.8563 23.9093 44.0793 23.9825 44.3082 23.9817C44.5877 23.9817 44.8557 23.8706 45.0533 23.673C45.2509 23.4754 45.3619 23.2074 45.3619 22.9279C45.3647 22.7703 45.3276 22.6146 45.2539 22.4753L45.085 22.1578C45.0043 22.0975 44.9275 22.0321 44.8553 21.9619C44.8045 21.9182 44.7571 21.8708 44.7134 21.8201C44.6594 21.7458 44.7134 21.7052 44.7134 21.6512C44.7177 21.6078 44.7368 21.5673 44.7675 21.5364H44.8958C44.8958 21.5364 45.004 21.6107 45.2944 21.7728C45.5957 21.8675 45.9111 21.9086 46.2265 21.8944C46.7956 21.8071 47.3277 21.5586 47.7599 21.1783C47.9414 21.009 48.0759 20.7956 48.1504 20.5588C48.225 20.3221 48.2372 20.0701 48.1856 19.8273C48.1638 19.6209 48.0723 19.4281 47.9262 19.2807C47.78 19.1333 47.5878 19.0402 47.3816 19.0167C47.1641 19.0053 46.9507 19.0783 46.7858 19.2206C46.6209 19.3628 46.5174 19.5633 46.4968 19.7801C46.4968 19.7801 46.5441 19.8949 46.4968 19.9557C46.4663 19.9983 46.424 20.0312 46.3751 20.0503C46.3037 20.0886 46.226 20.1138 46.1456 20.1246C46.0736 20.1286 46.0014 20.1286 45.9294 20.1246C45.7375 20.0849 45.5601 19.9938 45.416 19.8611C45.3243 19.7799 45.2466 19.684 45.1862 19.5774C45.103 19.4652 45.035 19.3426 44.9837 19.2127C44.9094 19.0303 45.0985 19.0776 45.0985 19.0776C45.1893 19.0523 45.2818 19.0342 45.3754 19.0235C45.6051 19.0235 45.6727 19.0235 45.666 18.8614C45.6531 18.7772 45.628 18.6952 45.5916 18.6182C45.542 18.4822 45.4582 18.3613 45.3484 18.267C45.0221 17.9672 44.6205 17.7617 44.1865 17.6725C43.7089 17.5235 43.2139 17.4372 42.714 17.4158C41.9832 17.4212 41.2555 17.5119 40.5457 17.686C40.0352 17.8264 39.5398 18.0164 39.0664 18.2534C38.8232 18.3345 38.8974 18.321 38.8434 18.3345C38.7678 18.3518 38.6893 18.3518 38.6137 18.3345C38.4988 18.3345 38.4718 18.2534 38.4718 18.2534C38.4718 18.2534 38.4245 18.1116 38.6002 17.9697C38.7758 17.8279 39.0799 17.8549 39.4041 17.7941C39.7284 17.7333 41.1401 17.355 42.8558 16.9024C44.2977 16.5588 45.6831 16.0106 46.9696 15.2745C47.9274 14.7396 48.7626 14.0102 49.4216 13.1332C49.7385 12.7504 49.9275 12.2779 49.9621 11.7822C49.9731 11.6406 49.9392 11.4991 49.8652 11.3778C49.7913 11.2565 49.6811 11.1617 49.5501 11.1067L49.5163 11.0459ZM42.7951 14.8489C43.6079 14.7881 44.3937 14.5308 45.085 14.0991C45.7696 13.633 46.4036 13.0964 46.9764 12.4982C47.8748 11.539 47.8005 10.8905 48.1247 10.8838C48.2666 10.8838 48.2463 11.0932 48.2395 11.1269C48.1985 11.2701 48.1419 11.4083 48.0706 11.539C47.7653 12.1227 47.3659 12.6522 46.8885 13.1061C46.175 13.8711 45.2876 14.4527 44.3015 14.8017C43.6048 14.9702 42.8817 15 42.1736 14.8895L42.7951 14.8489ZM37.0399 25.7852C37.3065 25.8495 37.5632 25.9495 37.8031 26.0825L38.0935 26.231C38.0935 26.231 38.4246 26.5485 38.1409 26.6769C37.8572 26.8052 37.5194 26.5756 37.3235 26.508C37.0022 26.38 36.6665 26.2915 36.3238 26.2446C35.9275 26.1855 35.5245 26.1855 35.1282 26.2446C34.6247 26.2925 34.1334 26.4274 33.6759 26.6431C33.3298 26.8491 33.0099 27.0963 32.7234 27.3794C32.6153 27.528 32.4465 27.7914 32.4465 27.7914L32.3315 28.0076H32.1087L32.0682 27.7104C32.4528 27.1771 32.9072 26.6977 33.4191 26.2851C34.0661 25.8677 34.8064 25.617 35.5739 25.5555C36.0636 25.5314 36.5541 25.5862 37.0264 25.7177L37.0399 25.7852ZM40.6605 22.3402C40.5483 22.3543 40.4348 22.3543 40.3227 22.3402L39.985 22.2659C39.6992 22.1834 39.4041 22.1381 39.1068 22.1308C38.4196 22.0879 37.7308 22.182 37.0803 22.4077C36.067 22.6982 35.4523 23.2386 34.3783 24.2518C33.7441 24.8436 33.1485 25.4754 32.5951 26.1433L32.3586 26.1838L32.6828 25.7042C33.2455 24.9009 33.8499 24.1275 34.4932 23.3872C35.233 22.4411 36.2875 21.7915 37.4654 21.5566C38.3382 21.3481 39.2453 21.3274 40.1268 21.4958C40.728 21.5904 40.8767 21.6579 40.924 21.8944C40.9848 22.2321 40.7888 22.2929 40.674 22.3132L40.6605 22.3402ZM40.4781 19.341C43.0855 19.1316 43.8555 20.0165 43.8555 20.0165L43.6395 19.9692C43.6395 19.9692 43.1599 19.8814 42.964 19.8611C42.3642 19.7553 41.7558 19.7056 41.1468 19.7125C39.722 19.7619 38.3156 20.0496 36.9858 20.5637C35.7294 20.9907 34.6131 21.752 33.7569 22.7658C33.4096 23.1898 33.0979 23.6416 32.8248 24.1168C32.9037 23.7704 33.0238 23.4348 33.1827 23.117C33.4106 22.7236 33.6901 22.3624 34.0137 22.043C34.5803 21.474 35.2292 20.9935 35.9387 20.6177C37.3524 19.9052 38.8926 19.4783 40.4713 19.3613L40.4781 19.341ZM39.9107 15.342C38.5059 16.3356 37.1718 17.4258 35.9185 18.6047C34.3587 20.1699 33.0893 21.9996 32.1694 24.0087C31.244 25.9068 31.2035 28.5345 31.217 31.1284C31.2687 32.7655 31.6549 34.3746 32.3518 35.8569L32.1627 35.8163L31.9534 35.4111C31.5826 34.6749 31.3165 33.8904 31.1629 33.0806C30.8766 31.77 30.7519 30.4293 30.7915 29.0884C30.7498 27.3621 31.0056 25.6414 31.548 24.0019C32.2206 22.2787 33.1523 20.6682 34.3108 19.2261C35.3887 17.8885 36.6378 16.6984 38.0261 15.6865C39.9564 14.0603 41.7628 12.2924 43.4301 10.3974C44.247 9.51627 44.8706 8.47395 45.2606 7.33742C45.5041 6.64615 45.6141 5.91491 45.5848 5.18259C45.5459 4.36004 45.2995 3.56069 44.8688 2.85888C44.6167 2.43212 44.2975 2.04891 43.9232 1.72405C43.8276 1.66413 43.7371 1.59636 43.6529 1.52141C43.511 1.37955 43.5178 1.31877 43.5178 1.31877L43.6192 1.17014C43.6927 1.15503 43.7685 1.15503 43.842 1.17014C44.1391 1.20408 44.4193 1.32646 44.646 1.52141C45.0968 1.85288 45.4606 2.28861 45.7064 2.79134C45.9637 3.66742 46.0599 4.58292 45.9902 5.49333C45.9044 6.41197 45.6574 7.3083 45.2606 8.14126C44.5765 9.50928 43.7182 10.783 42.7072 11.9308C41.2954 13.633 40.6402 13.6803 40.6807 14.1397C40.7213 14.599 41.3158 14.3491 41.2415 14.5585C41.1671 14.7679 40.397 14.9976 39.9309 15.315L39.9107 15.342ZM48.6584 12.5793C48.572 12.7345 48.475 12.8834 48.368 13.0251C48.0097 13.5774 47.5288 14.0397 46.9629 14.3761C45.9107 15.172 44.6562 15.6565 43.3422 15.7744C42.6767 15.8637 42.0003 15.8248 41.3495 15.6595C41.696 15.6781 42.0433 15.6781 42.3898 15.6595C43.0625 15.6021 43.7264 15.4683 44.3689 15.261C45.2549 14.9585 46.0889 14.5211 46.8413 13.964C47.4377 13.5352 47.9467 12.9964 48.3409 12.3766C48.5436 12.0659 48.9151 12.174 48.6584 12.6063" fill="white"/>
<path fill-rule="evenodd" clip-rule="evenodd" d="M21.0035 25.3529C20.59 23.5781 19.8846 21.8844 18.9162 20.3407C18.9162 20.3407 16.9505 17.6387 16.5249 17.0646C16.0993 16.4904 14.1945 14.4842 13.9108 14.0991C13.6528 13.7629 13.4267 13.4033 13.2353 13.0251C13.1627 12.6117 13.1627 12.1888 13.2353 11.7754C13.3247 11.3545 13.3247 10.9196 13.2353 10.4987C13.1475 10.3434 13.1339 10.2285 12.8232 10.2015C12.7437 10.1932 12.6636 10.2103 12.5944 10.2504C12.5253 10.2904 12.4705 10.3514 12.4381 10.4244C12.3697 10.5597 12.3263 10.7061 12.3098 10.8568C12.3098 10.9108 12.2423 11.0526 12.1815 11.0391C12.1207 11.0256 11.9721 11.0391 11.9856 10.8702C11.9991 10.7014 12.0397 10.4987 12.0532 10.4447C12.0977 10.2441 12.1752 10.0524 12.2828 9.87728C12.3413 9.80447 12.3911 9.72511 12.4313 9.64083C12.5181 9.57095 12.5881 9.48247 12.636 9.38191C12.6839 9.28135 12.7087 9.17131 12.7084 9.05991C12.7084 8.96354 12.6893 8.86814 12.6522 8.77918C12.6151 8.69023 12.5608 8.6095 12.4924 8.54166C12.4239 8.47383 12.3425 8.42023 12.2532 8.38396C12.1639 8.3477 12.0684 8.32947 11.9721 8.33037C11.8358 8.32183 11.6993 8.34498 11.5735 8.39794C11.3625 8.50906 11.1672 8.6476 10.9926 8.80998C10.8986 8.94154 10.7948 9.06573 10.6819 9.1815C10.6202 9.23276 10.5452 9.26556 10.4657 9.27608H10.3645L10.3239 9.19502C10.3177 9.1812 10.3145 9.16624 10.3145 9.15111C10.3145 9.13598 10.3177 9.12102 10.3239 9.1072C10.3239 9.05316 10.3778 8.93833 10.3778 8.93833C10.4119 8.904 10.4415 8.86541 10.4657 8.82351C10.4914 8.78555 10.5055 8.74096 10.5063 8.69516C10.5063 8.64112 10.5062 8.56679 10.4522 8.53977C10.4095 8.49987 10.3558 8.47348 10.2982 8.46386C10.2405 8.45425 10.1813 8.46187 10.128 8.48576C9.74405 8.61354 9.4044 8.84781 9.14853 9.16125C8.94445 9.39158 8.78818 9.66024 8.68907 9.95157C8.64974 10.1745 8.63176 10.4007 8.63514 10.6271C8.63664 10.7408 8.66677 10.8523 8.72288 10.9513C8.74838 11.015 8.78015 11.0761 8.81754 11.1337L8.7364 11.2756H8.63514H8.50684L8.39189 11.1945L8.25682 11.0932L7.89879 10.7554C7.44482 10.2592 7.05871 9.70496 6.75048 9.1072C6.27398 8.26646 6.06643 7.29992 6.15596 6.33768C6.13701 5.85814 6.20807 5.37927 6.3654 4.92588C6.42309 4.8076 6.50085 4.70021 6.59513 4.60841C6.77788 4.68746 6.97855 4.71547 7.17596 4.68947C7.56177 4.68947 7.93193 4.53665 8.20537 4.26448C8.47881 3.99231 8.63336 3.62293 8.63514 3.23714C8.63753 2.97384 8.56755 2.71493 8.43295 2.48862C8.29836 2.26232 8.10423 2.07728 7.87175 1.95368C7.96789 1.88583 8.04462 1.79405 8.09438 1.68742C8.14414 1.58079 8.16533 1.46302 8.15557 1.34575C8.09868 1.07034 7.95147 0.821776 7.73734 0.63946C7.52321 0.457144 7.25441 0.351505 6.97345 0.339271C6.55752 0.260849 6.13011 0.265818 5.71613 0.353949C5.30215 0.442079 4.9098 0.611621 4.56188 0.852655C3.5891 1.46341 2.84746 2.38085 2.45425 3.46006C2.22929 4.13611 2.16014 4.85426 2.25173 5.56085C2.33267 6.56001 2.64477 7.52666 3.16355 8.38442C3.93029 9.78678 4.88224 11.0796 5.99384 12.228C7.76365 14.1937 8.12852 14.3288 8.12852 14.3288C7.95609 14.3762 7.77404 14.3762 7.60161 14.3288C7.06917 14.2397 6.57135 14.0061 6.16272 13.6533C5.40411 13.0387 4.73363 12.3227 4.17004 11.5255C3.74615 11.0136 3.41681 10.4303 3.19736 9.80298C3.15008 9.68815 3.04875 9.47198 3.02173 9.41118L2.89342 9.17474C2.74874 8.92483 2.52519 8.73003 2.25783 8.62091C1.99048 8.51178 1.6945 8.49452 1.41627 8.5718C1.13803 8.64909 0.893254 8.81657 0.720486 9.04796C0.547718 9.27934 0.456627 9.56151 0.461567 9.85023C0.454556 9.92663 0.454556 10.0035 0.461567 10.0799C0.456506 10.2949 0.50279 10.5079 0.596634 10.7014C0.751998 11.0256 0.806077 11.1675 0.806077 11.1675L0.893978 11.3431C0.736038 11.291 0.56558 11.291 0.40764 11.3431C0.277915 11.3991 0.168985 11.4945 0.0962781 11.6157C0.0235717 11.7368 -0.00931508 11.8778 0.00227588 12.0186C0.0330722 12.514 0.2199 12.9869 0.535945 13.3696C1.19423 14.2498 2.03235 14.9798 2.99468 15.5109C4.28003 16.2511 5.66566 16.8018 7.10851 17.1456C8.82427 17.5982 10.2292 17.9832 10.5534 18.0373C10.8777 18.0913 11.1885 18.0373 11.3574 18.2062C11.4054 18.2349 11.4437 18.2771 11.4677 18.3276C11.4918 18.3781 11.5004 18.4345 11.4925 18.4899C11.4563 18.5341 11.4064 18.565 11.3507 18.5777C11.2751 18.5948 11.1965 18.5948 11.1209 18.5777C11.0601 18.5777 11.1209 18.5777 10.8912 18.4899C10.4194 18.2545 9.92637 18.0645 9.41866 17.9224C8.70875 17.7489 7.98113 17.6582 7.25034 17.6522C6.74889 17.6797 6.25243 17.7658 5.77104 17.9089C5.33725 18.0026 4.93625 18.2101 4.60921 18.5101C4.50148 18.6063 4.41806 18.7267 4.36596 18.8614C4.32836 18.9375 4.30538 19.02 4.29834 19.1045C4.29834 19.2937 4.35249 19.2396 4.58216 19.2667C4.67797 19.2738 4.77287 19.2896 4.86582 19.3139C4.86582 19.3139 5.04815 19.2734 4.9806 19.4558C4.92578 19.5854 4.85559 19.7079 4.77132 19.8206C4.71323 19.9268 4.63785 20.0227 4.54835 20.1043C4.4007 20.2357 4.22147 20.3264 4.02821 20.3677C3.9539 20.3677 3.8728 20.3677 3.812 20.3677C3.73435 20.3583 3.65904 20.3354 3.5892 20.3002C3.53573 20.2827 3.4901 20.2468 3.46073 20.1988C3.41345 20.1448 3.46073 20.03 3.46073 20.03C3.44177 19.812 3.33902 19.6099 3.17394 19.4662C3.00887 19.3225 2.79449 19.2486 2.57596 19.2599C2.36869 19.2837 2.17571 19.3777 2.02943 19.5265C1.88314 19.6752 1.79227 19.8696 1.77199 20.0773C1.72236 20.3201 1.73547 20.5715 1.80992 20.8079C1.88438 21.0442 2.01781 21.2577 2.19764 21.4283C2.62986 21.8085 3.16199 22.057 3.73103 22.1443C4.04652 22.1597 4.36215 22.1185 4.66314 22.0227C4.80186 21.9517 4.93514 21.8704 5.06174 21.7795L5.19004 21.8133C5.21939 21.8424 5.23843 21.8804 5.24414 21.9214C5.24414 21.9822 5.24414 22.0227 5.24414 22.0903C5.24414 22.1578 5.20363 22.1375 5.10231 22.2321C5.03241 22.3043 4.9579 22.372 4.87934 22.4347L4.70371 22.7455C4.63641 22.8892 4.60187 23.0461 4.60245 23.2048C4.6022 23.4591 4.69383 23.7048 4.86054 23.8968C5.02725 24.0888 5.25771 24.214 5.50949 24.2493C5.76126 24.2847 6.01734 24.2279 6.2305 24.0893C6.44366 23.9507 6.59951 23.7397 6.66934 23.4953L6.55456 23.3399C6.46067 23.3476 6.36721 23.3213 6.29119 23.2656C6.15609 23.1711 6.10192 22.786 6.32483 22.4077C6.54775 22.0294 6.68969 21.6512 7.2571 21.5566C7.58443 21.4869 7.92274 21.4869 8.25006 21.5566C8.10395 21.6392 7.9698 21.7415 7.85146 21.8606C7.70879 22.0084 7.61664 22.1975 7.58809 22.401C7.5847 22.5508 7.61373 22.6996 7.67319 22.8372C7.73265 22.9747 7.82115 23.0978 7.9326 23.198C8.11208 23.3128 8.31316 23.3894 8.52349 23.4231C8.73382 23.4568 8.94895 23.4469 9.15529 23.394C9.67542 23.3062 10.0672 23.2521 10.4725 23.2116C11.078 23.1324 11.6932 23.1737 12.2828 23.3332C12.6645 23.4105 13.0331 23.5425 13.3771 23.725C13.6694 23.8662 13.9456 24.0383 14.2012 24.2383C14.2418 24.3126 14.343 24.4207 14.3025 24.4747C14.262 24.5288 14.2552 24.6234 14.1809 24.6234C13.7775 24.4924 13.367 24.3841 12.9515 24.2991C12.5063 24.2096 12.0544 24.1576 11.6005 24.1438C11.1479 24.1438 10.9723 24.1437 10.8035 24.2181C10.6346 24.2924 10.5333 24.3532 10.513 24.5963C10.4963 24.6973 10.5113 24.8009 10.5561 24.8929C10.6009 24.9849 10.6731 25.0606 10.7629 25.1097C10.9312 25.1841 11.1051 25.2451 11.283 25.2921L11.6208 25.3664C11.6615 25.396 11.6942 25.4356 11.7154 25.4812C11.7154 25.5353 11.6208 25.6096 11.6208 25.6096C11.2932 25.7355 11.0109 25.9567 10.8102 26.2445C10.5227 26.5833 10.3584 27.0095 10.3442 27.4537C10.3604 27.7609 10.4608 28.0577 10.6346 28.3116C10.7036 28.3997 10.7903 28.4723 10.8892 28.5247C10.9881 28.5771 11.0971 28.608 11.2088 28.6155C11.4317 28.6155 11.4991 28.6155 11.7356 28.3521C11.972 28.0886 11.8909 28.0886 12.0801 27.8387C12.2043 27.6706 12.3761 27.5436 12.5732 27.474C12.656 27.4299 12.7501 27.4111 12.8435 27.4199C13.1812 27.4199 13.2149 27.609 13.1068 27.6834C12.8637 27.8455 12.6813 27.8928 12.607 27.9873C12.5261 28.0807 12.4683 28.1918 12.4381 28.3116C12.4192 28.4075 12.4192 28.5061 12.4381 28.602C12.4381 28.9195 12.6273 28.9735 12.6273 28.9735C12.6273 28.9735 12.7692 29.0749 12.8638 29.0208C12.9915 28.9424 13.1 28.8362 13.1812 28.7101C13.2218 28.6156 13.242 28.4804 13.3028 28.4264C13.3636 28.3723 13.6945 28.1832 13.6202 28.5345C13.6202 28.6358 13.5122 28.7101 13.5122 28.8047C13.5167 28.9079 13.5349 29.0102 13.5663 29.1086C13.5993 29.1812 13.6376 29.2512 13.6811 29.318L13.7891 29.3789C13.8194 29.3879 13.8515 29.3889 13.8823 29.3818C13.9131 29.3747 13.9415 29.3597 13.9647 29.3383C14.0593 29.264 14.0728 29.2775 14.1336 29.1695C14.1944 29.0614 14.1944 28.8857 14.6132 28.8249C14.9175 28.7689 15.231 28.7899 15.5252 28.8858C15.9982 28.9865 16.4211 29.2493 16.7208 29.6288C16.9052 29.8378 17.0311 30.0918 17.0856 30.3651L16.9707 30.7096C16.6978 30.3552 16.3155 30.1011 15.8832 29.9868C15.383 29.9203 14.8748 29.9455 14.3836 30.0611C14.1716 30.0707 13.9662 30.1374 13.7891 30.2543C13.612 30.3712 13.4698 30.5339 13.3776 30.725C13.2855 30.9162 13.2469 31.1287 13.2658 31.3401C13.2847 31.5514 13.3606 31.7537 13.4852 31.9255C13.5667 32.0199 13.6742 32.0881 13.7944 32.1218C13.9145 32.1554 14.0419 32.1529 14.1607 32.1146C14.7213 31.912 14.5728 31.7634 14.5931 31.6147C14.6133 31.4661 14.6403 31.4459 14.8632 31.4729C15.0085 31.4988 15.1387 31.5783 15.228 31.6958C15.342 31.801 15.4378 31.9242 15.5117 32.0606C15.5456 32.1325 15.564 32.2107 15.5657 32.2902C15.5743 32.3711 15.5743 32.4526 15.5657 32.5334C15.5657 32.6618 15.5657 32.7631 15.4711 32.7901C15.4193 32.8012 15.3653 32.7929 15.3192 32.7667C15.2731 32.7406 15.2383 32.6984 15.2212 32.6482C15.2026 32.536 15.1684 32.4269 15.1198 32.324C15.0602 32.2454 14.9842 32.1809 14.897 32.1349C14.8557 32.116 14.8107 32.1063 14.7652 32.1063C14.7198 32.1063 14.6748 32.116 14.6335 32.1349C14.5993 32.1522 14.5694 32.177 14.5461 32.2074C14.5227 32.2378 14.5064 32.273 14.4984 32.3105C14.4876 32.3594 14.4876 32.4102 14.4984 32.4591C14.5006 32.5235 14.512 32.5871 14.5322 32.6482C14.5651 32.6852 14.6012 32.7191 14.6402 32.7496C14.8778 32.9096 15.0726 33.1252 15.2077 33.3778C15.4825 34.0532 15.497 34.8066 15.2483 35.4921C15.0188 36.258 14.6576 36.978 14.1809 37.6199C13.7705 38.1781 13.2424 38.6394 12.634 38.9709C12.2119 39.1917 11.7549 39.3379 11.283 39.4032C11.0251 39.4349 10.7643 39.4349 10.5063 39.4032C9.54263 39.2466 8.66567 38.7535 8.03122 38.0115C7.39677 37.2694 7.04584 36.3265 7.0409 35.3502C7.04784 35.0231 7.09778 34.6983 7.18949 34.3843C7.3381 34.0803 7.58812 34.1276 7.6219 34.1749C7.75928 34.3726 7.90809 34.562 8.06767 34.7423C8.34385 35.0246 8.71988 35.1871 9.11472 35.1949C9.41195 35.1935 9.70586 35.1331 9.97954 35.0172C10.2532 34.9012 10.5013 34.732 10.709 34.5194C11.1421 34.0753 11.4092 33.4957 11.4654 32.8779C11.5048 32.5086 11.4911 32.1356 11.4249 31.7701L11.3642 31.4729C10.6144 27.7914 1.94765 27.8455 4.00116 27.9873C5.71546 28.04 7.34556 28.7427 8.56077 29.953C8.91768 30.3995 9.19422 30.9046 9.37809 31.4459C9.47437 31.8482 9.49959 32.2643 9.45247 32.6753C9.41194 33.0333 9.35115 33.263 9.12148 33.3508C9.01907 33.4076 8.90525 33.4407 8.78835 33.4477C8.67145 33.4547 8.55445 33.4355 8.44598 33.3913C8.30413 33.2765 8.2028 32.7563 7.77049 32.628C7.56562 32.5698 7.34996 32.5609 7.141 32.602C6.93204 32.6431 6.73568 32.733 6.56808 32.8644C6.04605 33.3313 5.71229 33.9726 5.62922 34.668C5.51543 35.5364 5.60319 36.4194 5.88582 37.2484C6.23579 38.2237 6.86835 39.0727 7.70287 39.6869C8.19688 40.0561 8.74044 40.354 9.3174 40.5718C10.0324 40.7869 10.7731 40.905 11.5195 40.9231C12.1023 40.9115 12.684 40.8686 13.2622 40.7947L13.5595 40.7407C19.2067 39.5383 22.6449 32.5604 21.0913 25.2651L21.0035 25.3529ZM1.94763 11.0256C2.27862 11.0256 2.19769 11.7011 3.0961 12.6333C3.63166 13.2516 4.23169 13.811 4.8861 14.3018C5.57825 14.737 6.3671 14.9945 7.18273 15.0516L7.79753 15.0989C7.09142 15.2058 6.37124 15.1759 5.67638 15.011C4.68731 14.664 3.79731 14.0822 3.08258 13.3155C2.60936 12.8579 2.21051 12.3291 1.90046 11.7484C1.83254 11.6169 1.77823 11.4788 1.73835 11.3363C1.73835 11.3363 1.70451 11.0864 1.84637 11.0932L1.94763 11.0256ZM6.62218 16.1459C5.31127 16.0236 4.06005 15.5395 3.0082 14.7476C2.44209 14.4114 1.9612 13.9491 1.60312 13.3966C1.49527 13.2555 1.39822 13.1065 1.3127 12.9508C1.04926 12.5185 1.42076 12.4104 1.63016 12.7211C2.02621 13.3395 2.53488 13.878 3.12975 14.3085C3.87925 14.8646 4.71127 15.2999 5.59541 15.5987C6.23802 15.807 6.90182 15.9429 7.57457 16.004C7.92107 16.0226 8.26835 16.0226 8.61486 16.004C7.96351 16.1657 7.28778 16.2046 6.62218 16.1189V16.1459ZM6.98697 20.2327C6.79783 20.2327 6.31147 20.3407 6.31147 20.3407L6.08851 20.3812C6.08851 20.3812 6.84506 19.5098 9.46599 19.7057C11.0449 19.8217 12.5853 20.2487 13.9985 20.9622C14.7094 21.342 15.3604 21.8245 15.9305 22.3942C16.2573 22.7091 16.5351 23.0711 16.7546 23.4683C16.9172 23.7851 17.0398 24.1209 17.1194 24.468C16.8432 23.9932 16.5291 23.5414 16.1804 23.117C15.3247 22.1072 14.2111 21.3485 12.9583 20.9216C11.6294 20.4034 10.2227 20.1134 8.79725 20.0638C8.18809 20.06 7.57989 20.112 6.98021 20.2191L6.98697 20.2327ZM12.857 22.759C12.2075 22.5291 11.5178 22.4348 10.8305 22.482C10.5314 22.4883 10.2341 22.5314 9.94557 22.6104C9.84424 22.6441 9.69563 22.6712 9.60782 22.6914C9.49794 22.7056 9.38671 22.7056 9.27683 22.6914C9.162 22.6914 8.95927 22.6036 9.02682 22.2659C9.06735 22.0362 9.22282 21.9687 9.81726 21.8741C10.6984 21.7059 11.6051 21.7243 12.4787 21.9281C13.6573 22.17 14.7124 22.8208 15.4576 23.7655C16.0996 24.5051 16.7017 25.2785 17.2612 26.0824L17.5922 26.562L17.349 26.5148C16.7957 25.8467 16.2002 25.2149 15.5657 24.6234C14.4917 23.6101 13.8702 23.0697 12.8638 22.786L12.857 22.759ZM17.2274 27.6901C16.9416 27.411 16.6243 27.1662 16.2818 26.9606C15.822 26.7448 15.3283 26.61 14.8226 26.562C14.428 26.4917 14.025 26.4803 13.627 26.5282C13.2845 26.5761 12.9489 26.6646 12.6273 26.7917C12.4314 26.8525 12.0937 27.0889 11.8099 26.9606C11.5262 26.8322 11.864 26.508 11.864 26.508L12.1545 26.3594C12.3938 26.2302 12.6477 26.1304 12.9109 26.0621C13.3832 25.9306 13.8737 25.8759 14.3633 25.9C15.1314 25.9635 15.8718 26.2165 16.5181 26.6363C17.0326 27.0463 17.4873 27.526 17.8691 28.0616L17.8218 28.3589L17.599 28.3251L17.4908 28.1022C17.4908 28.1022 17.322 27.8455 17.2072 27.6901H17.2274ZM18.7608 33.4791C18.6128 34.2904 18.3466 35.0756 17.9706 35.8096L17.7679 36.2149L17.5787 36.2554C18.2715 34.7717 18.6575 33.1634 18.7135 31.5269C18.7135 28.9263 18.6798 26.3054 17.7611 24.4072C16.8412 22.3982 15.5718 20.5684 14.0121 19.0032C12.7595 17.8186 11.4231 16.7259 10.0132 15.7338C9.55384 15.4231 8.79041 15.2137 8.70935 14.9773C8.62829 14.7408 9.2498 14.9232 9.27007 14.5652C9.27007 14.0991 8.64186 14.0518 7.24358 12.3496C6.22769 11.2066 5.36688 9.93475 4.68342 8.56681C4.29015 7.73298 4.04551 6.83688 3.96059 5.91888C3.88385 5.00838 3.98022 4.09159 4.24441 3.21689C4.48743 2.71051 4.85177 2.27196 5.30499 1.94019C5.52887 1.74601 5.8072 1.62569 6.10203 1.59568C6.17557 1.58058 6.25129 1.58058 6.32483 1.59568C6.32483 1.59568 6.42626 1.66997 6.42626 1.74427C6.42626 1.81858 6.42629 1.8051 6.29119 1.94696C6.20692 2.02191 6.11644 2.08968 6.02089 2.1496C5.64787 2.4739 5.33074 2.85728 5.08202 3.28443C4.64599 3.98137 4.39916 4.77994 4.36596 5.60137C4.33296 6.33556 4.44071 7.06928 4.68342 7.76297C5.07414 8.89718 5.69765 9.93719 6.51399 10.8162C8.18301 12.7096 9.98922 14.4774 11.918 16.1053C13.3067 17.1216 14.5578 18.3136 15.64 19.6517C16.7968 21.0962 17.7263 22.709 18.396 24.4342C18.9419 26.0729 19.198 27.7941 19.1527 29.5207C19.1958 30.8617 19.071 32.2029 18.7811 33.5129" fill="white"/>
<path d="M22.9421 26.2243C22.9421 25.8235 23.061 25.4316 23.2837 25.0984C23.5064 24.7651 23.8229 24.5054 24.1932 24.352C24.5635 24.1986 24.9708 24.1585 25.3639 24.2367C25.757 24.3149 26.1182 24.5079 26.4016 24.7913C26.685 25.0747 26.878 25.4358 26.9562 25.8289C27.0344 26.222 26.9943 26.6294 26.8409 26.9997C26.6875 27.37 26.4278 27.6865 26.0945 27.9092C25.7613 28.1319 25.3694 28.2508 24.9686 28.2508C24.4312 28.2508 23.9157 28.0372 23.5357 27.6572C23.1556 27.2771 22.9421 26.7617 22.9421 26.2243Z" fill="white"/>
<path d="M5.63607 55.1153C5.38394 55.3816 5.08016 55.5938 4.74338 55.739C4.4066 55.8842 4.04377 55.9592 3.67703 55.9597C3.22989 55.9611 2.78768 55.8667 2.38013 55.6827C1.98366 55.4974 1.62601 55.2384 1.32632 54.9194C1.02231 54.5878 0.781848 54.2032 0.617016 53.7846C0.439005 53.333 0.349636 52.8514 0.353645 52.366C0.351858 51.9028 0.441305 51.4437 0.617016 51.015C0.783506 50.6002 1.02902 50.2217 1.33984 49.9005C1.64581 49.5785 2.01341 49.3212 2.4207 49.1439C2.84512 48.9525 3.30612 48.8556 3.7717 48.8602C4.3612 48.8453 4.94405 48.9875 5.46044 49.2723C5.91449 49.5332 6.28281 49.9204 6.52085 50.3868L5.5076 51.1367C5.34101 50.8033 5.08041 50.5262 4.7579 50.3395C4.44245 50.1551 4.08299 50.0594 3.7176 50.0626C3.43638 50.0618 3.15888 50.1266 2.90704 50.2517C2.66156 50.3762 2.44505 50.5511 2.27195 50.7651C2.09745 50.9916 1.96069 51.2448 1.86675 51.5149C1.77099 51.8047 1.72311 52.1081 1.72492 52.4133C1.72209 52.7269 1.77704 53.0383 1.88704 53.332C1.98186 53.6073 2.12855 53.8618 2.31928 54.0818C2.50771 54.2914 2.73777 54.4593 2.99478 54.5749C3.25216 54.6972 3.53391 54.7596 3.81886 54.7573C4.1768 54.7458 4.52769 54.6543 4.84563 54.4895C5.16358 54.3247 5.44049 54.0907 5.65619 53.8048V53.3117H4.2107V52.312H6.74381V55.9124H5.62255L5.63607 55.1153Z" fill="white"/>
<path d="M11.7694 55.9056V48.9007H14.8632C15.1743 48.8984 15.4818 48.9678 15.7617 49.1034C16.0173 49.2389 16.2462 49.4197 16.4372 49.637C16.6326 49.8597 16.79 50.113 16.9032 50.3868C17.011 50.6554 17.0683 50.9417 17.0721 51.2312C17.0767 51.6675 16.9572 52.0962 16.7276 52.4673C16.5167 52.8278 16.1942 53.11 15.8089 53.2712L17.4031 55.9056H15.8765L14.4443 53.5616H13.0934V55.9056H11.7694ZM13.1204 52.366H14.8294C14.9523 52.3692 15.0738 52.3389 15.1807 52.2782C15.2901 52.2162 15.3864 52.1336 15.4644 52.035C15.545 51.9269 15.6067 51.8058 15.6468 51.677C15.6954 51.5334 15.7206 51.3828 15.7211 51.2312C15.723 51.0765 15.6954 50.923 15.64 50.7786C15.5924 50.6461 15.5191 50.5244 15.424 50.4206C15.3403 50.3213 15.2366 50.2408 15.1198 50.1841C15.012 50.1258 14.8912 50.0956 14.7686 50.0963H13.1204V52.366Z" fill="white"/>
<path d="M25.151 55.9597C24.67 55.967 24.1937 55.8629 23.7595 55.6557C23.3516 55.4614 22.9849 55.1909 22.6788 54.8586C22.3881 54.5209 22.1595 54.1344 22.0033 53.717C21.8427 53.2988 21.7602 52.8546 21.76 52.4066C21.7584 51.9433 21.848 51.4843 22.0236 51.0556C22.1906 50.6366 22.4332 50.2519 22.7395 49.9207C23.0498 49.5908 23.4216 49.3247 23.8339 49.1372C24.2577 48.9432 24.7187 48.8441 25.1848 48.8467C25.6531 48.8451 26.1154 48.9514 26.5358 49.1574C26.9428 49.3556 27.3056 49.6336 27.603 49.9748C27.8963 50.3107 28.1253 50.6976 28.2785 51.1164C28.4438 51.5312 28.5287 51.9736 28.5285 52.4201C28.5284 53.3322 28.1834 54.2106 27.5626 54.8789C27.2548 55.2087 26.8852 55.4749 26.475 55.6625C26.059 55.8521 25.6082 55.9533 25.151 55.9597ZM23.1245 52.4066C23.1239 52.705 23.1717 53.0017 23.2664 53.2847C23.3498 53.558 23.4852 53.8125 23.665 54.0345C23.8486 54.2561 24.0794 54.4338 24.3405 54.5547C24.6078 54.6912 24.9051 54.7585 25.2051 54.7506C25.5078 54.7556 25.8071 54.686 26.0765 54.5479C26.3386 54.4225 26.5694 54.2402 26.752 54.0143C26.9285 53.7886 27.0613 53.5321 27.1437 53.2577C27.2324 52.9827 27.2779 52.6955 27.2788 52.4066C27.2795 52.1081 27.2316 51.8115 27.137 51.5284C27.0485 51.256 26.9113 51.0019 26.7318 50.7786C26.5579 50.561 26.3388 50.3836 26.0899 50.2585C25.8195 50.1309 25.5244 50.0648 25.2254 50.0648C24.9264 50.0648 24.6312 50.1309 24.3608 50.2585C24.1099 50.3866 23.8906 50.5689 23.7189 50.7922C23.5412 51.0145 23.4083 51.2691 23.3272 51.542C23.2142 51.8176 23.1457 52.1094 23.1245 52.4066Z" fill="white"/>
<path d="M36.4387 54.7506C36.7034 54.7669 36.9678 54.713 37.205 54.5944C37.4423 54.4758 37.6439 54.2967 37.7897 54.0751C37.9289 53.8542 38.0251 53.6089 38.0733 53.3523C38.1303 53.0744 38.1598 52.7916 38.1612 52.5079V48.9346H39.5122V52.5079C39.5143 52.9641 39.4553 53.4185 39.3366 53.8589C39.23 54.2598 39.0465 54.6361 38.7961 54.9667C38.5379 55.2839 38.2127 55.54 37.8437 55.7165C37.3978 55.9036 36.919 56 36.4354 56C35.9517 56 35.473 55.9036 35.027 55.7165C34.6547 55.5361 34.3288 55.2727 34.0744 54.9465C33.8258 54.6141 33.6466 54.235 33.5475 53.8319C33.4384 53.4037 33.3839 52.9634 33.3854 52.5215V48.9481H34.7364V52.5215C34.7341 52.8075 34.7637 53.093 34.8243 53.3726C34.8706 53.6319 34.9669 53.8797 35.108 54.1021C35.2414 54.31 35.4219 54.4835 35.6349 54.6087C35.8853 54.7271 36.1628 54.7761 36.4387 54.7506Z" fill="white"/>
<path d="M44.7405 55.9056V48.9007H47.7126C48.0215 48.898 48.3269 48.9674 48.6043 49.1034C49.1385 49.3729 49.5545 49.8298 49.7729 50.3868C49.8839 50.6545 49.9412 50.9414 49.9418 51.2312C49.9417 51.5269 49.8867 51.8201 49.7797 52.0958C49.6804 52.3685 49.5316 52.6204 49.3406 52.8389C49.1519 53.055 48.9223 53.2317 48.6652 53.359C48.388 53.4957 48.0825 53.5651 47.7735 53.5617H46.0915V55.9056H44.7405ZM46.0915 52.366H47.6654C47.7865 52.3673 47.9062 52.3406 48.0152 52.2878C48.1242 52.2351 48.2195 52.1578 48.2936 52.0621C48.4729 51.8236 48.5614 51.529 48.5434 51.2312C48.5478 51.0681 48.5227 50.9057 48.4692 50.7516C48.4215 50.6207 48.3505 50.4994 48.2598 50.3936C48.18 50.2965 48.0781 50.2201 47.9626 50.1706C47.8514 50.1235 47.7321 50.0983 47.6113 50.0964H46.0915V52.366Z" fill="white"/>
</svg>
