<svg width="135" height="26" viewBox="0 0 135 26" fill="none" xmlns="http://www.w3.org/2000/svg">
<g clip-path="url(#clip0_1646_7959)">
<path d="M58.6733 20.5569V25.5891H58.1118V20.5569H58.6733Z" fill="white"/>
<path d="M62.6813 21.0326V25.5891H62.1236V21.0326H60.6177V20.5569H64.1872V21.0326H62.6813Z" fill="white"/>
<path d="M65.0278 25.5891L66.5746 20.5569H67.4038L68.9506 25.5891H68.3669L67.8946 24.0133H66.0875L65.6116 25.5891H65.0278ZM66.2251 23.5413H67.7534L67.0283 20.9397H66.9502L66.2251 23.5413Z" fill="white"/>
<path d="M70.7803 25.5891V20.5569H71.3417V25.1171H73.7252V25.5891H70.7803Z" fill="white"/>
<path d="M75.8334 23.4706L74.2866 20.5569H74.9001L76.1123 22.8648L77.3245 20.5569H77.938L76.3912 23.4706V25.5891H75.8334V23.4706Z" fill="white"/>
<path d="M61.2017 15.3424H62.9084V8.71584H74.0149V15.3424H75.7253V1.21216H74.0149V7.1995H62.9084V1.21216H61.2017V15.3424Z" fill="white"/>
<path d="M76.2125 15.8331H73.5242V9.20653H63.3993V15.8331H60.7109V0.72168H63.3993V6.70901H73.5242V0.72168H76.2125V15.8331ZM74.5058 14.8519H75.2309V1.70284H74.5058V7.69018H62.4176V1.70284H61.674V14.8519H62.4176V8.22535H74.5058V14.8519Z" fill="white"/>
<path fill-rule="evenodd" clip-rule="evenodd" d="M92.8256 2.8252H98.8344C101.277 2.8252 103.107 3.17457 103.107 5.21494C103.107 7.25532 101.277 7.62697 98.8344 7.62697H92.8256V2.8252ZM91.1523 15.3351H92.8442V9.12846H98.351L102.858 15.3351H104.955L100.337 9.09129C102.028 9.01324 104.743 8.16587 104.743 5.23724C104.743 1.80688 101.471 1.32373 99.2359 1.32373H91.1523V15.3351Z" fill="white"/>
<path d="M105.91 15.8218H102.586L98.0834 9.61889H93.3165V15.8218H90.6431V0.833008H99.2175C104.174 0.833008 105.215 3.22646 105.215 5.2371C105.215 7.88699 103.222 9.13946 101.218 9.4851L105.91 15.8218ZM103.088 14.8444H103.962L99.3736 8.64145L100.296 8.60056C100.954 8.57083 104.233 8.26608 104.233 5.25568C104.233 2.95143 102.594 1.83276 99.2175 1.83276H91.6247V14.8629H92.3386V8.65631H98.5891L103.088 14.8444ZM98.8345 8.1137H92.3386V2.33449H98.8345C100.381 2.33449 103.598 2.33449 103.598 5.21481C103.598 8.09512 100.381 8.1137 98.8345 8.1137ZM93.3165 7.13625H98.8345C101.627 7.13625 102.616 6.63081 102.616 5.21481C102.616 3.79881 101.627 3.31565 98.8345 3.31565H93.3165V7.13625Z" fill="white"/>
<path d="M1.44482 15.3834H3.14037V10.7972L7.12266 7.67526L14.0164 15.3834H16.3069L8.4501 6.65321L15.288 1.37573H12.689L3.14037 8.8311V1.37573H1.44482V15.3834Z" fill="white"/>
<path d="M17.4076 15.8738H13.812L7.06327 8.34415L3.62756 11.0349V15.8664H0.954102V0.885056H3.62756V7.82383L12.518 0.881348H16.7234L9.17154 6.70887L17.4076 15.8738ZM14.2359 14.8853H15.2063L7.73256 6.58251L13.8492 1.87738H12.8564L2.65708 9.8382V1.87738H1.94689V14.8853H2.65708V10.5592L7.1934 7.00619L14.2359 14.8853Z" fill="white"/>
<path d="M44.1421 15.2272H45.8376V8.65632V7.15113V1.21582H44.1421V15.2272Z" fill="white"/>
<path d="M31.3774 15.2272H33.0693V8.65632V7.15113V1.21582H31.3774V15.2272Z" fill="white"/>
<path d="M31.3921 1.21582V2.91428H37.9586H39.4608H45.3878V1.21582H31.3921Z" fill="white"/>
<path d="M44.1422 2.91428H33.0691V13.5436H44.1422V2.91428ZM31.3921 1.21582H45.8377V15.2272L39.4683 15.2569H31.3921L31.3735 1.2344L31.3921 1.21582Z" fill="white"/>
<path d="M39.4681 15.729H30.9161L30.8975 0.725342H46.3433V15.7178L39.4681 15.729ZM31.8902 14.7478H45.3542V1.70651H31.8679L31.8902 14.7478ZM44.6403 14.0343H32.5781V2.4238H44.6329L44.6403 14.0343ZM33.5672 13.0531H43.6587V3.3901H33.5598L33.5672 13.0531Z" fill="white"/>
<path d="M36.2373 5.85791H40.9744V10.6002H36.2373V5.85791Z" fill="white"/>
<path d="M132.771 15.1788H134.463V8.60427V7.10279V1.16748H132.771V15.1788Z" fill="white"/>
<path d="M120.003 15.1788H121.698V8.60427V7.10279V1.16748H120.003V15.1788Z" fill="white"/>
<path d="M120.471 13.5957V15.2904H127.045H128.547H134.485V13.5957H120.471Z" fill="white"/>
<path d="M31.459 13.5957V15.2904H38.0329H39.5388H45.477V13.5957H31.459Z" fill="white"/>
<path d="M120.021 1.16748V2.86222H126.584H128.086H134.017V1.16748H120.021Z" fill="white"/>
<path d="M126.584 15.6769H119.52L119.501 0.677002H134.954V15.6658L126.584 15.6769ZM120.527 14.6995H133.991V1.65817H120.494L120.527 14.6995ZM133.281 13.9822H121.208V2.37174H133.262L133.281 13.9822ZM122.204 13.001H132.299V3.36406H122.186L122.204 13.001Z" fill="white"/>
<path d="M124.866 5.80591H129.603V10.5482H124.866V5.80591Z" fill="white"/>
</g>
<defs>
<clipPath id="clip0_1646_7959">
<rect width="134" height="24.9119" fill="white" transform="translate(0.954102 0.677002)"/>
</clipPath>
</defs>
</svg>
