<svg width="171" height="31" viewBox="0 0 171 31" fill="none" xmlns="http://www.w3.org/2000/svg">
<g clip-path="url(#clip0_1732_860)">
<path d="M2.36244 0.70554V14.4298H3.81438V14.7944H0.565577V14.4298H1.96136V1.07397H0.457275V0.690186L2.36244 0.70554ZM7.62472 14.9825L2.16592 0.70554H5.23024L9.14085 10.8145L12.7907 0.697863H13.1918L8.04588 14.9748L7.62472 14.9825ZM17.5397 0.70554V1.08933H16.1558V14.4452H17.5397V14.8098H11.5233V14.4452H13.0956V0.70554H17.5397Z" fill="white"/>
<path d="M21.5184 14.9827C20.782 15.0205 20.0568 14.7979 19.4809 14.3571C19.2279 14.1488 19.0278 13.8882 18.8958 13.595C18.7637 13.3017 18.7032 12.9836 18.7188 12.6646C18.7094 12.2682 18.8099 11.8766 19.01 11.5294C19.21 11.1822 19.5026 10.892 19.858 10.6881C20.616 10.2083 21.6949 9.96656 23.0866 9.96656H25.413V10.2889H23.7244C23.2972 10.2669 22.8743 10.3802 22.5211 10.6113C22.2289 10.8147 22.0022 11.0927 21.8673 11.4134C21.7364 11.7138 21.6682 12.0359 21.6668 12.3614C21.6617 12.6367 21.701 12.9111 21.7831 13.175C21.8517 13.3975 21.9805 13.5987 22.1562 13.7584C22.3355 13.9082 22.568 13.9864 22.8059 13.9771C23.0979 13.9725 23.38 13.8753 23.6081 13.7008C23.8981 13.4764 24.1186 13.1805 24.2458 12.845C24.4291 12.3794 24.5149 11.8838 24.4985 11.3866H24.7512C24.7653 12.0404 24.6284 12.6891 24.3501 13.2863C24.1118 13.8006 23.7214 14.2368 23.2271 14.5413C22.7137 14.8425 22.1205 14.9958 21.5184 14.9827ZM26.7085 14.9827C26.3225 14.9887 25.9385 14.9302 25.5735 14.81C25.2623 14.706 24.9902 14.5164 24.7913 14.265C24.5877 13.987 24.4861 13.6523 24.5025 13.3132V9.09152C24.5035 8.6556 24.4565 8.22079 24.3622 7.79431C24.2879 7.41479 24.1046 7.06259 23.8327 6.77727C23.6752 6.63786 23.4888 6.53166 23.2857 6.46555C23.0826 6.39944 22.8672 6.37488 22.6535 6.39348C22.3544 6.39477 22.0562 6.42434 21.7631 6.48176C21.448 6.53797 21.1419 6.63345 20.8526 6.76576C20.5845 6.88606 20.3475 7.06169 20.1588 7.28004C19.9736 7.4958 19.8766 7.76858 19.886 8.04762H19.4247C19.4197 7.86529 19.4591 7.68435 19.5399 7.51915C19.6207 7.35394 19.7405 7.209 19.89 7.09582C20.1924 6.85775 20.5733 6.72994 20.9649 6.73505C21.3672 6.72693 21.7618 6.84115 22.0919 7.06128C22.2499 7.16813 22.3772 7.31134 22.462 7.4777C22.5468 7.64405 22.5864 7.82819 22.5772 8.01308C22.5888 8.20725 22.5498 8.40113 22.4637 8.5773C22.3775 8.75348 22.2471 8.90643 22.0839 9.02243C21.7595 9.24939 21.3667 9.36928 20.9649 9.36401C20.5625 9.37617 20.1688 9.25102 19.8539 9.01092C19.7065 8.8944 19.5891 8.74681 19.5112 8.57969C19.4333 8.41257 19.3968 8.23046 19.4047 8.04762C19.3974 7.7184 19.5125 7.3974 19.7296 7.14187C19.9656 6.87539 20.26 6.66183 20.5919 6.5163C20.9759 6.34904 21.38 6.22787 21.7951 6.15554C22.2358 6.07847 22.6829 6.03993 23.1308 6.0404C23.9525 6.00147 24.7733 6.13236 25.5373 6.42419C26.0854 6.6422 26.5434 7.02652 26.8409 7.51799C27.114 8.00206 27.2521 8.54532 27.2419 9.09535V13.6049C27.2352 13.7908 27.281 13.9751 27.3743 14.1383C27.4278 14.2143 27.5021 14.2746 27.5892 14.3126C27.6763 14.3505 27.7727 14.3646 27.8677 14.3533C28.0754 14.3402 28.2766 14.2783 28.4532 14.1729C28.6862 14.042 28.8721 13.8466 28.9866 13.6125L29.2233 13.8467C29.0184 14.2255 28.6845 14.5261 28.2768 14.6987C27.7834 14.9062 27.247 15.0033 26.7085 14.9827Z" fill="white"/>
<path d="M33.876 6.15544V14.4299H35.404V14.7945H29.7888V14.4299H31.1245V6.52004H29.7888V6.15544H33.876ZM33.6473 10.8146C33.6465 10.2057 33.7042 9.59807 33.8198 8.99931C33.9223 8.4669 34.1005 7.9504 34.3492 7.46416C34.5646 7.04286 34.8806 6.67604 35.2718 6.39339C35.6675 6.12971 36.1414 5.99512 36.6234 6.0096C37.0262 5.99811 37.4241 6.09663 37.7705 6.29361C38.0598 6.45869 38.2979 6.69448 38.4604 6.97675C38.6147 7.26139 38.6959 7.57717 38.6971 7.89784C38.7085 8.32207 38.5491 8.73427 38.2518 9.04921C38.1046 9.2066 37.923 9.33115 37.7199 9.41404C37.5168 9.49694 37.2973 9.53616 37.0767 9.52894C36.8616 9.53674 36.6469 9.50306 36.4457 9.42987C36.2445 9.35668 36.0608 9.2455 35.9054 9.10294C35.7595 8.97231 35.6436 8.81412 35.5649 8.6384C35.4862 8.46267 35.4465 8.27324 35.4482 8.08206C35.4401 7.87583 35.4765 7.6702 35.5551 7.47804C35.6338 7.28587 35.753 7.1113 35.9054 6.96524C36.0592 6.82225 36.2414 6.71019 36.4411 6.63571C36.6409 6.56122 36.8543 6.5258 37.0686 6.53155C37.3589 6.52732 37.6452 6.59614 37.8989 6.73113C38.1322 6.85198 38.3296 7.02763 38.4724 7.24157C38.6058 7.44237 38.6767 7.67529 38.677 7.9132H38.296C38.2971 7.64269 38.2235 7.37669 38.0826 7.14215C37.9417 6.90761 37.7386 6.71287 37.4938 6.57761C37.2136 6.43133 36.8984 6.35726 36.5793 6.36269C36.1791 6.35989 35.7884 6.47957 35.4643 6.70426C35.1105 6.96139 34.819 7.28871 34.6099 7.66374C34.3584 8.11157 34.1735 8.59081 34.0605 9.08759C33.9304 9.65212 33.8671 10.2289 33.872 10.807L33.6473 10.8146Z" fill="white"/>
<path d="M39.3427 6.52005V6.15546H45.5635V6.52005H39.3427ZM43.0527 14.925C42.5462 14.9547 42.0409 14.8498 41.5928 14.6218C41.268 14.4336 41.0236 14.1412 40.9029 13.7967C40.7722 13.4127 40.7085 13.0107 40.7144 12.6069V4.29024C41.2005 4.28626 41.685 4.24001 42.1623 4.15208C42.6168 4.07849 43.0557 3.9346 43.4618 3.72607V12.937C43.4356 13.2759 43.4961 13.6158 43.6383 13.9272C43.698 14.0219 43.784 14.0989 43.8866 14.1497C43.9893 14.2005 44.1047 14.2231 44.2199 14.215C44.5425 14.2022 44.8497 14.0798 45.0863 13.8696C45.4 13.6095 45.647 13.2838 45.8082 12.9178L46.1531 13.079C45.9147 13.6222 45.5249 14.0922 45.0261 14.4376C44.438 14.794 43.7476 14.9645 43.0527 14.925Z" fill="white"/>
<path d="M50.9543 6.15549V14.43H52.2859V14.7946H46.8833V14.43H48.2069V6.52009H46.8833V6.15549H50.9543ZM49.5866 3.74146C49.3638 3.74736 49.1421 3.70954 48.9351 3.63033C48.7282 3.55113 48.5404 3.43221 48.3834 3.28091C48.2231 3.13191 48.0972 2.95253 48.0136 2.75427C47.93 2.556 47.8907 2.34322 47.8981 2.12954C47.9029 1.8681 47.9745 1.61177 48.1068 1.38297C48.2391 1.15417 48.428 0.959878 48.657 0.817083C48.8859 0.674287 49.1479 0.587337 49.4201 0.563845C49.6922 0.540353 49.9663 0.581031 50.2182 0.682321C50.4702 0.783611 50.6923 0.942429 50.8653 1.14488C51.0382 1.34733 51.1567 1.58725 51.2104 1.84365C51.264 2.10005 51.2511 2.36512 51.173 2.61568C51.0948 2.86623 50.9536 3.09463 50.7618 3.28091C50.609 3.43016 50.426 3.54799 50.2239 3.62718C50.0218 3.70638 49.8049 3.74526 49.5866 3.74146Z" fill="white"/>
<path d="M57.2433 6.15547V14.43H58.2741V14.7945H53.1803V14.43H54.5039V6.52006H53.1682V6.15547H57.2433ZM63.2316 8.7921V14.43H64.5672V14.7945H59.4733V14.43H60.5202V9.03004C60.5252 8.6031 60.5024 8.17626 60.452 7.75202C60.4317 7.49392 60.3357 7.24653 60.1752 7.03818C60.0972 6.95994 60.0022 6.89909 59.8968 6.85996C59.7915 6.82083 59.6784 6.80437 59.5657 6.81175C59.2072 6.80974 58.8598 6.93095 58.5869 7.15331C58.2803 7.40479 58.0318 7.71454 57.857 8.06289C57.6568 8.452 57.5072 8.86318 57.4118 9.28718C57.3122 9.71695 57.2612 10.1557 57.2594 10.5959L56.9665 10.6151C56.9711 10.1214 57.0249 9.62917 57.127 9.14518C57.2327 8.61048 57.4191 8.09335 57.6805 7.61002C57.935 7.13745 58.3036 6.72964 58.7554 6.42028C59.2647 6.09517 59.8683 5.93261 60.4801 5.95589C61.0739 5.92354 61.6655 6.04977 62.1887 6.32049C62.5777 6.55473 62.8708 6.90971 63.019 7.32602C63.1741 7.8001 63.2459 8.29552 63.2316 8.7921Z" fill="white"/>
<path d="M70.5474 14.9826C69.6988 14.9976 68.8586 14.8187 68.0967 14.4606C67.3881 14.1178 66.7998 13.5842 66.4041 12.9255C65.9723 12.1716 65.759 11.3208 65.7864 10.4615C65.7579 9.60611 65.9625 8.7583 66.3801 8.00145C66.7579 7.34432 67.3318 6.80984 68.0286 6.46629C68.7828 6.10696 69.6168 5.92786 70.4592 5.94434C71.2907 5.91212 72.1144 6.10786 72.8336 6.50851C73.4326 6.85917 73.9141 7.36657 74.2213 7.97074C74.5246 8.56868 74.6811 9.22505 74.6786 9.88969H67.102V9.5251H71.7547C71.7547 9.14131 71.7546 8.75752 71.7145 8.37373C71.6933 8.02192 71.6397 7.67259 71.5541 7.32982C71.4869 7.04682 71.3493 6.7835 71.1531 6.56224C71.065 6.4662 70.9555 6.39043 70.8326 6.34059C70.7096 6.29075 70.5765 6.26812 70.4431 6.2744C70.2944 6.27157 70.1466 6.29766 70.0087 6.35109C69.8709 6.40453 69.7457 6.4842 69.6409 6.58527C69.4021 6.82837 69.2287 7.12342 69.1356 7.44496C69.0059 7.85633 68.9212 8.2795 68.8829 8.70762C68.8388 9.18352 68.8147 9.69012 68.8147 10.2428C68.8212 10.8191 68.8641 11.3946 68.9431 11.966C68.9906 12.4272 69.1026 12.8803 69.276 13.3131C69.4109 13.6625 69.6407 13.9712 69.9418 14.2073C70.2614 14.4294 70.6501 14.5416 71.0448 14.5259C71.8045 14.5487 72.5489 14.318 73.1505 13.8734C73.7175 13.4458 74.1425 12.8698 74.3738 12.2154H74.7749C74.5249 12.9961 74.0307 13.6846 73.359 14.1881C72.5464 14.7567 71.5525 15.0375 70.5474 14.9826Z" fill="white"/>
<path d="M80.4381 0.70554V14.4298H82.1548V14.7944H75.962V14.4298H77.6908V1.07397H75.962V0.690186L80.4381 0.70554Z" fill="white"/>
<path d="M87.5816 0.70554V14.4298H89.3023V14.7944H83.1095V14.4298H84.8342V1.07397H83.1095V0.690186L87.5816 0.70554Z" fill="white"/>
<path d="M94.4362 6.15529V14.4298H95.7678V14.7944H90.3611V14.4298H91.6847V6.51989H90.3611V6.15529H94.4362ZM93.0684 3.74127C92.8456 3.74717 92.624 3.70935 92.4171 3.63014C92.2101 3.55093 92.0223 3.43201 91.8652 3.28071C91.7049 3.13171 91.5791 2.95234 91.4955 2.75407C91.4119 2.5558 91.3725 2.34302 91.3799 2.12935C91.379 1.81112 91.4767 1.49977 91.6605 1.23455C91.8443 0.969322 92.106 0.76209 92.4127 0.638964C92.7193 0.515839 93.0573 0.482329 93.3838 0.54266C93.7104 0.602991 94.011 0.754461 94.2477 0.977983C94.4045 1.12902 94.5277 1.30894 94.6097 1.50684C94.6918 1.70474 94.731 1.91652 94.725 2.12935C94.7294 2.34016 94.6892 2.54964 94.6069 2.74523C94.5246 2.94082 94.4018 3.1185 94.246 3.26759C94.0901 3.41669 93.9045 3.53413 93.7001 3.61289C93.4957 3.69164 93.2768 3.73009 93.0565 3.72591L93.0684 3.74127Z" fill="white"/>
<path d="M109.589 9.2525H115.87V9.63628H114.88V11.8815C114.559 12.2 114.218 12.5377 113.861 12.8985C113.493 13.2703 113.09 13.6094 112.658 13.9117C112.18 14.2427 111.653 14.5016 111.094 14.6793C110.419 14.8871 109.713 14.987 109.004 14.9748C107.692 15.0117 106.395 14.7037 105.254 14.0844C104.207 13.492 103.369 12.614 102.847 11.5629C102.263 10.3625 101.977 9.04881 102.013 7.72503C101.997 6.7074 102.19 5.6967 102.582 4.75066C102.938 3.89687 103.472 3.12124 104.151 2.47095C104.813 1.8385 105.601 1.33993 106.469 1.00488C107.361 0.65972 108.315 0.485008 109.277 0.490609C109.836 0.492022 110.391 0.586829 110.917 0.770773C111.443 0.950896 111.936 1.21 112.377 1.53835L114.134 0.682503H114.467V4.82741H114.066C113.954 4.32492 113.765 3.84115 113.504 3.39205C113.237 2.93401 112.9 2.51627 112.505 2.15241C112.113 1.78961 111.657 1.49598 111.158 1.28505C110.652 1.07319 110.105 0.96469 109.553 0.966503C108.88 0.947775 108.22 1.148 107.68 1.53451C107.137 1.94377 106.701 2.46965 106.409 3.06967C106.063 3.75669 105.818 4.48651 105.683 5.23807C105.525 6.05969 105.447 6.8935 105.45 7.72886C105.449 8.56649 105.502 9.40341 105.607 10.235C105.695 10.9917 105.88 11.7353 106.156 12.4495C106.382 13.0473 106.755 13.5844 107.243 14.0153C107.729 14.4158 108.355 14.6256 108.996 14.6025C109.364 14.613 109.73 14.5352 110.059 14.3761C110.348 14.234 110.606 14.0413 110.821 13.8081C111.021 13.5903 111.193 13.3491 111.33 13.0904C111.447 12.8743 111.548 12.6512 111.635 12.4226V9.6171H109.573L109.589 9.2525Z" fill="white"/>
<path d="M120.848 6.15536V14.4298H122.184V14.7944H116.773V14.4298H118.101V6.51996H116.773V6.15536H120.848ZM119.484 3.74133C119.15 3.74437 118.822 3.65202 118.542 3.47608C118.263 3.30013 118.045 3.04855 117.915 2.75339C117.786 2.45824 117.751 2.13287 117.815 1.81877C117.88 1.50467 118.041 1.21605 118.277 0.989698C118.514 0.763348 118.815 0.609516 119.144 0.54781C119.472 0.486105 119.812 0.519319 120.12 0.643219C120.429 0.767119 120.692 0.976092 120.876 1.24351C121.059 1.51093 121.156 1.82468 121.153 2.14477C121.156 2.35529 121.115 2.56429 121.032 2.7594C120.95 2.9545 120.827 3.13175 120.671 3.28062C120.516 3.4295 120.331 3.54699 120.127 3.62612C119.923 3.70526 119.704 3.74444 119.484 3.74133Z" fill="white"/>
<path d="M127.141 6.15547V14.43H128.168V14.7945H123.09V14.43H124.426V6.52006H123.09V6.15547H127.141ZM133.125 8.7921V14.43H134.461V14.7945H129.367V14.43H130.398V9.03004C130.403 8.6031 130.38 8.17626 130.33 7.75202C130.311 7.49351 130.215 7.24561 130.053 7.03818C129.976 6.95981 129.881 6.89883 129.777 6.85967C129.672 6.8205 129.559 6.80414 129.447 6.81175C129.088 6.8095 128.739 6.93068 128.465 7.15331C128.159 7.40502 127.912 7.71478 127.739 8.06289C127.537 8.4513 127.387 8.86269 127.293 9.28718C127.192 9.71664 127.141 10.1556 127.141 10.5959L126.844 10.6151C126.85 10.1212 126.905 9.62907 127.009 9.14518C127.111 8.60958 127.297 8.09195 127.562 7.61002C127.814 7.13584 128.183 6.72751 128.637 6.42028C129.145 6.09474 129.747 5.9321 130.358 5.95589C130.952 5.92354 131.543 6.04977 132.066 6.32049C132.457 6.55281 132.751 6.90849 132.897 7.32602C133.054 7.79966 133.129 8.29509 133.117 8.7921H133.125Z" fill="white"/>
<path d="M140.457 14.9825C139.61 14.998 138.771 14.819 138.01 14.4606C137.3 14.1206 136.711 13.5863 136.318 12.9254C135.883 12.1726 135.668 11.3214 135.696 10.4615C135.669 9.60574 135.875 8.75792 136.294 8.00143C136.669 7.34257 137.244 6.8075 137.942 6.46627C138.689 6.10969 139.514 5.93065 140.349 5.94432C141.182 5.91222 142.007 6.10792 142.727 6.50849C143.325 6.8603 143.806 7.36739 144.115 7.97072C144.418 8.56866 144.575 9.22503 144.572 9.88966H136.992V9.52507H141.644C141.644 9.14128 141.644 8.75749 141.608 8.37371C141.586 8.02177 141.531 7.67244 141.444 7.3298C141.382 7.04856 141.252 6.78539 141.063 6.56222C140.974 6.4661 140.864 6.39032 140.74 6.3405C140.616 6.29067 140.483 6.26807 140.349 6.27438C140.2 6.27199 140.052 6.29828 139.915 6.35169C139.777 6.4051 139.652 6.48453 139.547 6.58524C139.308 6.82835 139.134 7.12339 139.041 7.44493C138.911 7.85602 138.828 8.27937 138.793 8.7076C138.744 9.1835 138.724 9.6901 138.724 10.2428C138.721 10.8056 138.751 11.3682 138.817 11.9276C138.864 12.3888 138.976 12.8419 139.15 13.2747C139.286 13.6244 139.517 13.9331 139.819 14.1689C140.139 14.3915 140.528 14.5038 140.922 14.4875C141.682 14.509 142.426 14.2785 143.028 13.835C143.588 13.4051 144.006 12.8293 144.231 12.177H144.632C144.384 12.9574 143.891 13.646 143.221 14.1497C142.426 14.7209 141.451 15.0148 140.457 14.9825Z" fill="white"/>
<path d="M145.671 6.52005V6.15546H151.892V6.52005H145.671ZM149.381 14.925C148.875 14.9543 148.37 14.8494 147.921 14.6218C147.597 14.4336 147.352 14.1412 147.231 13.7967C147.101 13.4127 147.037 13.0107 147.043 12.6069V4.29024C147.529 4.28656 148.014 4.24031 148.491 4.15208C148.946 4.07784 149.387 3.934 149.794 3.72607V12.937C149.771 13.2613 149.829 13.5864 149.963 13.885C150.021 13.98 150.106 14.0573 150.208 14.1082C150.311 14.1591 150.426 14.1815 150.54 14.1728C150.864 14.1593 151.172 14.037 151.411 13.8274C151.722 13.566 151.968 13.2406 152.129 12.8756L152.474 13.0368C152.235 13.58 151.845 14.05 151.347 14.3954C150.766 14.765 150.078 14.9503 149.381 14.925Z" fill="white"/>
<path d="M152.915 6.52005V6.15546H159.136V6.52005H152.915ZM156.625 14.925C156.119 14.9543 155.613 14.8494 155.165 14.6218C154.84 14.4336 154.596 14.1412 154.475 13.7967C154.344 13.4127 154.281 13.0107 154.287 12.6069V4.29024C154.773 4.28656 155.257 4.24031 155.735 4.15208C156.19 4.07784 156.63 3.934 157.038 3.72607V12.937C157.01 13.276 157.07 13.6164 157.215 13.9272C157.273 14.0222 157.358 14.0995 157.46 14.1505C157.562 14.2014 157.677 14.2237 157.792 14.215C158.116 14.2015 158.424 14.0792 158.663 13.8696C158.974 13.6073 159.22 13.2822 159.385 12.9178L159.726 13.079C159.487 13.6222 159.097 14.0922 158.598 14.4376C158.01 14.794 157.32 14.9645 156.625 14.925Z" fill="white"/>
<path d="M165.449 14.9825C164.55 15.0059 163.662 14.7921 162.882 14.3646C162.184 13.9692 161.612 13.4002 161.226 12.7182C160.846 12.0262 160.648 11.2564 160.648 10.4749C160.648 9.69345 160.846 8.92367 161.226 8.23167C161.612 7.54965 162.184 6.98065 162.882 6.58522C163.668 6.17978 164.548 5.96753 165.441 5.96753C166.334 5.96753 167.213 6.17978 168 6.58522C168.695 6.98098 169.265 7.55007 169.648 8.23167C170.03 8.92297 170.23 9.69303 170.23 10.4749C170.23 11.2568 170.03 12.0269 169.648 12.7182C169.265 13.3998 168.695 13.9689 168 14.3646C167.225 14.7911 166.343 15.0049 165.449 14.9825ZM165.449 14.6179C165.613 14.6218 165.776 14.5946 165.929 14.5379C166.081 14.4813 166.221 14.3963 166.339 14.2879C166.604 14.0356 166.802 13.7264 166.917 13.386C167.068 12.9564 167.17 12.5125 167.222 12.0619C167.345 11.0059 167.345 9.9401 167.222 8.88412C167.17 8.43484 167.068 7.99221 166.917 7.56389C166.802 7.22346 166.604 6.91422 166.339 6.66198C166.221 6.55353 166.081 6.46855 165.929 6.41191C165.776 6.35526 165.613 6.32808 165.449 6.33193C165.283 6.3274 165.118 6.35422 164.963 6.41086C164.808 6.4675 164.667 6.55284 164.547 6.66198C164.282 6.91422 164.083 7.22346 163.969 7.56389C163.818 7.99187 163.717 8.4347 163.668 8.88412C163.54 9.93982 163.54 11.0062 163.668 12.0619C163.716 12.5126 163.817 12.9568 163.969 13.386C164.083 13.7264 164.282 14.0356 164.547 14.2879C164.667 14.397 164.808 14.4824 164.963 14.539C165.118 14.5956 165.283 14.6224 165.449 14.6179Z" fill="white"/>
<path d="M57.3796 29.1865C57.1316 29.4639 56.8242 29.687 56.4782 29.8406C56.1322 29.9942 55.7556 30.0748 55.3741 30.0769C54.9557 30.0785 54.543 29.9838 54.1709 29.8006C53.8055 29.6217 53.4789 29.3782 53.2083 29.0829C52.9365 28.7813 52.7208 28.4373 52.5705 28.0659C52.2576 27.2997 52.2576 26.4488 52.5705 25.6825C52.717 25.3137 52.9317 24.9731 53.2043 24.677C53.4737 24.3859 53.8026 24.1507 54.1709 23.9862C54.5467 23.8153 54.958 23.7274 55.3741 23.7291C55.9235 23.7088 56.4671 23.8421 56.9384 24.1129C57.336 24.3563 57.6586 24.6968 57.8729 25.0992L57.2352 25.5214C57.0629 25.184 56.791 24.9025 56.4531 24.7116C56.1188 24.5327 55.7411 24.4414 55.3581 24.4467C55.0439 24.4425 54.7336 24.5137 54.4556 24.654C54.188 24.7886 53.9519 24.974 53.7618 25.199C53.5693 25.4284 53.4201 25.6882 53.3206 25.9666C53.2161 26.2633 53.1632 26.5745 53.1641 26.8876C53.1628 27.2112 53.2227 27.5324 53.3407 27.8356C53.4531 28.1155 53.6145 28.3751 53.818 28.6032C54.0169 28.8258 54.2612 29.0073 54.5359 29.1366C54.817 29.267 55.126 29.3327 55.4384 29.3285C55.8169 29.3166 56.1873 29.2214 56.5212 29.0503C56.8551 28.8793 57.1433 28.637 57.3635 28.3422V27.5094H55.9558V26.9107H58.0654V30.0309H57.3635L57.3796 29.1865Z" fill="white"/>
<path d="M67.1703 30.031V23.7752H69.9779C70.2555 23.7702 70.5304 23.8281 70.7801 23.9441C71.0193 24.0551 71.2322 24.2119 71.4057 24.4046C71.5774 24.5943 71.7131 24.8112 71.8068 25.0455C71.9017 25.278 71.9507 25.5252 71.9512 25.7748C71.9516 25.9879 71.9192 26.2 71.855 26.4042C71.7943 26.6014 71.7009 26.788 71.5783 26.9568C71.458 27.1185 71.3118 27.261 71.145 27.379C70.9749 27.4968 70.7831 27.5827 70.5795 27.6323L72.1839 30.031H71.2453L69.7533 27.782H68.0205V30.031H67.1703ZM68.0005 27.0796H69.9819C70.1438 27.0804 70.3035 27.0435 70.4472 26.9722C70.5846 26.9027 70.7049 26.8058 70.8001 26.6882C70.9026 26.5614 70.9813 26.4185 71.0327 26.266C71.0857 26.1072 71.1127 25.9415 71.1129 25.7748C71.114 25.6041 71.0813 25.4348 71.0167 25.2758C70.9551 25.1253 70.8684 24.9853 70.76 24.8613C70.6561 24.7438 70.5277 24.6484 70.383 24.5812C70.2412 24.5127 70.0845 24.4772 69.9257 24.4775H68.0005V27.0796Z" fill="white"/>
<path d="M83.7072 30.0769C83.2714 30.0812 82.8403 29.9893 82.4477 29.8082C82.0771 29.6337 81.747 29.3897 81.4771 29.0905C81.2026 28.7928 80.9902 28.4476 80.8514 28.0735C80.7048 27.6992 80.6301 27.3026 80.6308 26.9029C80.6288 26.4921 80.7077 26.0846 80.8634 25.7017C81.0149 25.3294 81.235 24.9862 81.5132 24.6885C81.7892 24.3957 82.1232 24.1583 82.4959 23.99C82.8791 23.8153 83.2988 23.7261 83.7232 23.729C84.1588 23.7234 84.5893 23.8182 84.9786 24.0053C85.3455 24.1886 85.6733 24.4359 85.9452 24.7345C86.2152 25.0353 86.4271 25.3797 86.5709 25.7516C86.7161 26.1196 86.7908 26.5096 86.7915 26.9029C86.7879 27.7161 86.4758 28.5003 85.9131 29.1097C85.6377 29.4015 85.3053 29.6388 84.9345 29.8082C84.5519 29.9855 84.1323 30.0774 83.7072 30.0769ZM81.4691 26.9029C81.4682 27.2164 81.5224 27.5278 81.6295 27.824C81.7302 28.1101 81.8837 28.3766 82.0828 28.6108C82.2764 28.8395 82.5183 29.0265 82.7927 29.1596C83.0792 29.2955 83.3955 29.364 83.7152 29.3592C84.0421 29.3656 84.3652 29.2916 84.6537 29.1443C84.9274 29.0052 85.1678 28.813 85.3596 28.5801C85.5547 28.3452 85.7042 28.0787 85.8008 27.7933C85.9005 27.5061 85.9519 27.2056 85.9532 26.9029C85.9547 26.5894 85.9005 26.2779 85.7928 25.9818C85.6895 25.7011 85.5332 25.4409 85.3316 25.2143C85.1347 24.9907 84.8934 24.8067 84.6217 24.6731C84.3411 24.5362 84.0301 24.4664 83.7152 24.4697C83.3891 24.466 83.0669 24.5384 82.7766 24.6808C82.5041 24.8183 82.2639 25.0076 82.0707 25.2373C81.8776 25.4669 81.727 25.7265 81.6256 26.0049C81.5225 26.294 81.4696 26.5974 81.4691 26.9029Z" fill="white"/>
<path d="M98.4632 29.3594C98.7927 29.3711 99.1195 29.2982 99.4097 29.1483C99.655 29.0163 99.8618 28.8277 100.011 28.5995C100.166 28.3645 100.275 28.1044 100.332 27.8319C100.393 27.54 100.424 27.2431 100.424 26.9454V23.783H101.251V26.9339C101.254 27.3389 101.203 27.7427 101.098 28.1351C101.007 28.4958 100.844 28.836 100.617 29.1368C100.391 29.4277 100.095 29.662 99.7547 29.8199C99.344 29.9908 98.9009 30.0789 98.4531 30.0789C98.0053 30.0789 97.5623 29.9908 97.1516 29.8199C96.8113 29.6543 96.5171 29.4136 96.2932 29.1176C96.0677 28.8161 95.9081 28.4741 95.824 28.1121C95.7284 27.7351 95.6799 27.3486 95.6796 26.9607V23.7983H96.5098V26.9339C96.5089 27.2369 96.5411 27.5392 96.6061 27.8358C96.6638 28.108 96.7725 28.3681 96.927 28.6033C97.0775 28.8273 97.2826 29.013 97.5246 29.1445C97.8113 29.2963 98.1358 29.3706 98.4632 29.3594Z" fill="white"/>
<path d="M110.556 30.031V23.7753H113.283C113.561 23.7698 113.836 23.8277 114.086 23.9441C114.325 24.0552 114.538 24.2119 114.711 24.4047C114.883 24.5944 115.019 24.8113 115.112 25.0456C115.207 25.278 115.256 25.5253 115.257 25.7748C115.258 26.03 115.212 26.2834 115.12 26.5232C115.029 26.7596 114.893 26.9781 114.719 27.1679C114.552 27.3558 114.346 27.5086 114.114 27.617C113.864 27.7314 113.589 27.7879 113.312 27.782H111.362V30.031H110.556ZM111.386 27.0797H113.291C113.453 27.0818 113.613 27.0462 113.757 26.976C113.895 26.9092 114.016 26.8135 114.11 26.6959C114.211 26.57 114.29 26.4286 114.342 26.2776C114.395 26.1148 114.423 25.9453 114.422 25.7748C114.424 25.6004 114.392 25.4272 114.326 25.2644C114.268 25.1121 114.181 24.9716 114.07 24.8499C113.966 24.7335 113.838 24.6404 113.693 24.5774C113.55 24.5118 113.394 24.4777 113.235 24.4776H111.386V27.0797Z" fill="white"/>
<path d="M43.2052 27.2371H0V27.6208H43.2052V27.2371Z" fill="white"/>
<path d="M171.004 27.0603H127.799V27.4441H171.004V27.0603Z" fill="white"/>
</g>
<defs>
<clipPath id="clip0_1732_860">
<rect width="171" height="29.5556" fill="white" transform="translate(0 0.517578)"/>
</clipPath>
</defs>
</svg>
