<svg width="213" height="95" viewBox="0 0 213 95" fill="none" xmlns="http://www.w3.org/2000/svg">
<path d="M0.418945 70.5479H0.495792C1.76602 70.5479 1.95435 69.7383 1.95435 68.9217V57.8945H0.509594V57.5525H5.39508L8.54273 66.7023H8.57766L11.7812 57.5525H16.3457V57.8945H14.9498V70.5479H16.3457V70.8899H10.3434V70.5479H11.9697V58.2365H11.9347L7.5168 70.8899H7.00733L2.47779 58.0061V68.7542C2.47779 70.2827 2.87561 70.5479 3.87364 70.5479H4.13895V70.8899H0.467848L0.418945 70.5479Z" fill="white"/>
<path d="M17.0503 70.5479H17.2944C17.6019 70.5212 17.8929 70.3972 18.1251 70.1938C18.3573 69.9905 18.5186 69.7185 18.5857 69.4173L22.9756 57.2524H23.2617L28.3426 70.5479H29.2709V70.8899H23.6177V70.5479H25.1321L23.7363 66.6116H20.0582L19.151 69.2847C19.0735 69.4637 19.0285 69.6552 19.0183 69.85C19.0183 70.4781 19.5487 70.5479 19.9256 70.5479H20.4561V70.8899H17.0293L17.0503 70.5479ZM23.6037 66.2696L21.9567 61.4749H21.9148L20.2327 66.2696H23.6037Z" fill="white"/>
<path d="M29.9897 70.5479H31.5253V57.8945H29.9897V57.5525H35.9361C38.0299 57.5525 41.3939 57.8945 41.3939 60.6792C41.3939 62.9754 38.8535 63.7291 36.9412 63.8617V63.9036C39.7329 64.1479 41.0869 65.2297 41.1288 67.2537C41.1288 70.2268 41.4289 70.513 42.1896 70.513C42.439 70.4907 42.6788 70.4068 42.8876 70.2687L43.0201 70.5479C42.3327 70.997 41.5237 71.2236 40.703 71.1969C38.679 71.1969 38.1836 69.7522 38.1836 67.6724C38.1836 64.6225 37.4856 64.1828 35.4965 64.127H34.4915V70.5479H36.0828V70.8899H30.0037L29.9897 70.5479ZM34.4775 63.785H35.5384C37.7159 63.6733 38.2672 62.8428 38.2113 60.4698C38.1555 58.0969 37.4716 57.8945 35.8594 57.8945H34.4636L34.4775 63.785Z" fill="white"/>
<path d="M45.9025 70.5479H47.6613V57.8945H46.8867C44.423 57.8945 43.7948 59.6183 43.5156 61.7051H43.1597V57.5176H55.0943V61.7051H54.7523C54.4661 59.6114 53.8449 57.8945 51.3813 57.8945H50.6065V70.5479H52.3653V70.8898H45.8885L45.9025 70.5479Z" fill="white"/>
<path d="M56.1481 70.5479H57.6835V57.8945H56.1481V57.5525H62.1711V57.8945H60.6077V70.5479H62.1431V70.8899H56.1201L56.1481 70.5479Z" fill="white"/>
<path d="M63.1553 70.5479H63.4973C64.0835 70.5479 64.635 70.3455 64.635 69.1869V59.0112L63.8045 57.8945H63.2112V57.5525H67.1196L74.2594 66.7442H74.2943V58.9763C74.2943 58.2783 73.8406 57.8945 73.0101 57.8945H72.6471V57.5525H76.2274V57.8945H75.9623C75.8144 57.876 75.6644 57.8884 75.5216 57.931C75.3789 57.9736 75.2465 58.0454 75.133 58.1419C75.0194 58.2384 74.9271 58.3574 74.8621 58.4914C74.797 58.6255 74.7605 58.7715 74.7549 58.9204V71.1202H73.9592L65.1305 59.5974H65.0885V69.2846C65.0885 70.3594 65.5074 70.5479 66.5682 70.5479H66.7357V70.8899H63.1553V70.5479Z" fill="white"/>
<path d="M76.9463 70.5479H78.4819V57.8945H76.9463V57.5525H87.5409V61.3003H87.199V61.0351C87.199 59.3113 85.9287 57.8735 83.7093 57.8735H81.4688V63.6733H82.781C84.0094 63.6733 84.6514 62.9754 84.6514 61.1677V60.9653H84.9934V66.9466H84.6514V66.5139C84.6514 65.1669 84.0094 64.0153 82.781 64.0153H81.4688V70.5269H84.1978C87.3106 70.5269 87.7641 67.9516 87.7641 66.8768V66.6116H88.1061V70.8689H76.9812L76.9463 70.5479Z" fill="white"/>
<path d="M89.6763 70.5479H91.2118V57.8945H89.6763V57.5525H95.8739V57.8945H94.1641V70.5479H96.3485C99.6985 70.5479 100.459 68.9217 100.459 66.7232V66.3464H100.801V70.8899H89.6763V70.5479Z" fill="white"/>
<path d="M102.316 70.5479H103.879V57.8945H102.351V57.5525H108.541V57.8945H106.838V70.5479H109.016C112.366 70.5479 113.127 68.9217 113.127 66.7232V66.3464H113.469V70.8899H102.351L102.316 70.5479Z" fill="white"/>
<path d="M115.116 70.5479H116.651V57.8945H115.116V57.5525H121.139V57.8945H119.61V70.5479H121.139V70.8899H115.116V70.5479Z" fill="white"/>
<path d="M139.236 69.5848C137.81 70.6944 136.038 71.2653 134.232 71.197C130.742 71.197 127.902 68.4053 127.902 64.4481C127.902 60.2047 130.652 57.2524 134.002 57.2524C135.747 57.2524 137.17 58.2575 137.68 58.2575C138.078 58.2575 138.245 58.0062 138.245 57.6503H138.587V61.9983H138.245C137.98 59.765 136.584 57.5874 134.134 57.5874C131.81 57.5874 131.084 60.3791 131.084 64.2177C131.084 70.1082 132.376 70.848 134.176 70.848C135.425 70.848 136.389 70.2199 136.389 68.8171V66.7233H134.993V66.3813H140.332V66.7233H139.236V69.5848Z" fill="white"/>
<path d="M141.449 70.5479H142.984V57.8945H141.449V57.5525H147.472V57.8945H145.936V70.5479H147.472V70.8899H141.449V70.5479Z" fill="white"/>
<path d="M148.456 70.5479H148.798C149.384 70.5479 149.936 70.3455 149.936 69.1869V59.0112L149.105 57.8945H148.547V57.5525H152.455L159.595 66.7442V58.9763C159.595 58.2783 159.141 57.8945 158.311 57.8945H157.948V57.5525H161.528V57.8945H161.263C161.115 57.8749 160.964 57.8866 160.82 57.9287C160.676 57.9708 160.543 58.0425 160.429 58.1391C160.315 58.2356 160.222 58.355 160.156 58.4896C160.091 58.6241 160.054 58.7709 160.049 58.9204V71.1202H159.26L150.431 59.5974H150.389V69.2846C150.389 70.3594 150.808 70.5479 151.869 70.5479H152.036V70.8899H148.456V70.5479Z" fill="white"/>
<path d="M162.247 70.5479H163.782V57.8945H162.247V57.5525H172.841V61.3003H172.499V61.0351C172.499 59.3113 171.229 57.8735 168.975 57.8735H166.734V63.6733H168.046C169.275 63.6733 169.924 62.9754 169.924 61.1677V60.9653H170.259V66.9466H169.924V66.5139C169.924 65.1669 169.275 64.0153 168.046 64.0153H166.734V70.5269H169.484C172.597 70.5269 173.051 67.9516 173.051 66.8768V66.6116H173.393V70.8689H162.268L162.247 70.5479Z" fill="white"/>
<path d="M177.552 70.5479H179.318V57.8945H178.557C176.101 57.8945 175.472 59.6183 175.186 61.7051H174.844V57.5176H186.786V61.7051H186.444C186.158 59.6114 185.53 57.8945 183.073 57.8945H182.291V70.5479H184.057V70.8898H177.573L177.552 70.5479Z" fill="white"/>
<path d="M190.206 70.5479H191.972V57.8945H191.19C188.733 57.8945 188.105 59.6183 187.819 61.7051H187.477V57.5176H199.418V61.7051H199.076C198.79 59.6114 198.169 57.8945 195.706 57.8945H194.924V70.5479H196.704V70.8898H190.22L190.206 70.5479Z" fill="white"/>
<path d="M206.161 57.2524C209.741 57.2524 212.184 60.5118 212.184 64.2317C212.26 67.7702 209.511 71.211 206.161 71.211C202.81 71.211 200.061 67.7772 200.137 64.2317C200.137 60.5118 202.58 57.2524 206.161 57.2524ZM209.001 64.2317C209.001 58.2435 207.605 57.6014 206.161 57.6014C204.716 57.6014 203.32 58.2435 203.32 64.2317C203.32 69.0404 203.941 70.862 206.161 70.862C208.38 70.862 209.001 69.0334 209.001 64.2247V64.2317Z" fill="white"/>
<path d="M71.4673 92.9515C70.9908 93.5149 70.3379 93.9008 69.6145 94.0465C68.8911 94.1922 68.1397 94.0891 67.4822 93.7541C67.0286 93.5211 66.6234 93.2037 66.2886 92.8189C65.9463 92.4267 65.6748 91.978 65.4861 91.4929C65.2928 91.004 65.1935 90.4831 65.193 89.9574C65.1851 88.8981 65.5706 87.8735 66.2748 87.082C66.6116 86.7055 67.0196 86.3995 67.4752 86.1816C67.9485 85.9578 68.4661 85.8433 68.9897 85.8466C69.673 85.8202 70.3494 85.9923 70.9369 86.3422C71.4354 86.6558 71.8384 87.0999 72.1024 87.6263L71.3138 88.1777C71.0994 87.7376 70.7593 87.3709 70.3366 87.1238C69.9109 86.8847 69.4289 86.7642 68.9408 86.7749C68.5493 86.7695 68.1628 86.8631 67.8172 87.0471C67.4874 87.2201 67.1955 87.4574 66.9588 87.745C66.7143 88.0482 66.5274 88.3935 66.4074 88.764C66.2764 89.1506 66.2104 89.5562 66.2119 89.9644C66.2089 90.3859 66.2822 90.8044 66.4283 91.1997C66.5654 91.5727 66.7687 91.9179 67.0285 92.2187C67.2735 92.5119 67.578 92.7498 67.9218 92.9166C68.2704 93.0911 68.6558 93.1797 69.0456 93.1749C69.5168 93.1574 69.9778 93.0319 70.3928 92.8081C70.8079 92.5842 71.166 92.2679 71.4394 91.8837V90.76H69.6876V89.9853H72.3118V94.0473H71.4394L71.4673 92.9515Z" fill="white"/>
<path d="M83.6396 94.0539V85.9021H87.1293C87.4723 85.9 87.8113 85.9764 88.1203 86.1255C88.4163 86.2745 88.6816 86.4782 88.902 86.7257C89.1162 86.9753 89.2883 87.2582 89.4115 87.5632C89.5301 87.8657 89.5916 88.1875 89.593 88.5124C89.5922 88.7888 89.5523 89.0637 89.4744 89.329C89.3946 89.5781 89.2769 89.8135 89.1254 90.0269C88.9776 90.2388 88.796 90.425 88.588 90.5783C88.3792 90.7324 88.142 90.8439 87.8901 90.9063L89.8651 94.033H88.6926L86.8362 91.1017H84.6796V94.033L83.6396 94.0539ZM84.6726 90.2084H87.1363C87.338 90.211 87.5372 90.163 87.7156 90.0688C87.8887 89.9781 88.0408 89.8521 88.1622 89.6989C88.4196 89.3576 88.5548 88.9397 88.5461 88.5124C88.55 88.2903 88.5097 88.0697 88.4275 87.8633C88.3511 87.6655 88.2425 87.4816 88.1063 87.3189C87.9782 87.1659 87.8188 87.0422 87.6388 86.956C87.4611 86.8672 87.265 86.8218 87.0664 86.8234H84.6726V90.2084Z" fill="white"/>
<path d="M104.263 94.1028C103.72 94.1088 103.183 93.9894 102.693 93.7538C102.232 93.5253 101.822 93.2074 101.486 92.8186C101.146 92.4308 100.881 91.9836 100.704 91.4995C100.525 91.0098 100.432 90.4925 100.432 89.971C100.434 88.9089 100.823 87.884 101.527 87.0886C101.873 86.7111 102.287 86.4031 102.749 86.1813C103.228 85.9519 103.753 85.835 104.284 85.8393C104.825 85.8302 105.36 85.9548 105.841 86.2023C106.302 86.4358 106.712 86.7584 107.048 87.1514C107.386 87.5402 107.651 87.9871 107.83 88.4705C108.009 88.9552 108.102 89.468 108.102 89.985C108.1 91.043 107.71 92.0634 107.006 92.8535C106.668 93.2361 106.254 93.5449 105.792 93.7608C105.316 93.992 104.792 94.1091 104.263 94.1028ZM101.472 89.971C101.472 90.3796 101.541 90.7852 101.674 91.1715C101.8 91.5441 101.992 91.8915 102.239 92.1974C102.483 92.4891 102.785 92.7268 103.126 92.8954C103.48 93.0737 103.873 93.1647 104.27 93.1606C104.679 93.1669 105.083 93.0684 105.443 92.8744C105.777 92.6997 106.076 92.4629 106.322 92.1765C106.562 91.8678 106.748 91.521 106.873 91.1505C107.134 90.3858 107.134 89.5563 106.873 88.7916C106.746 88.42 106.552 88.0747 106.301 87.7726C106.054 87.484 105.753 87.2468 105.415 87.0747C105.058 86.8981 104.665 86.8062 104.267 86.8062C103.868 86.8062 103.476 86.8981 103.119 87.0747C102.781 87.2454 102.482 87.4828 102.239 87.7726C101.994 88.0763 101.805 88.4214 101.681 88.7916C101.544 89.1723 101.474 89.5735 101.472 89.978V89.971Z" fill="white"/>
<path d="M122.639 93.1818C123.05 93.1947 123.458 93.0983 123.819 92.9026C124.124 92.7362 124.383 92.4963 124.573 92.2047C124.767 91.8974 124.902 91.5565 124.971 91.1997C125.046 90.8204 125.083 90.4347 125.082 90.0481V85.9233H126.115V90.0481C126.118 90.575 126.054 91.1001 125.927 91.6114C125.813 92.079 125.609 92.5199 125.327 92.9096C125.046 93.2899 124.677 93.5964 124.252 93.8029C123.751 94.0336 123.204 94.1458 122.653 94.131C122.087 94.1497 121.524 94.0299 121.013 93.782C120.586 93.572 120.217 93.2604 119.939 92.8747C119.66 92.4793 119.461 92.0337 119.352 91.5626C119.234 91.0665 119.176 90.5581 119.178 90.0481V85.9233H120.204V90.0481C120.203 90.4423 120.245 90.8355 120.329 91.2206C120.398 91.5775 120.533 91.9183 120.727 92.2256C120.918 92.5139 121.174 92.753 121.474 92.9235C121.833 93.1112 122.235 93.2003 122.639 93.1818Z" fill="white"/>
<path d="M137.701 94.054V85.9022H141.1C141.443 85.899 141.782 85.9755 142.091 86.1255C142.389 86.2709 142.655 86.4751 142.872 86.7257C143.089 86.9736 143.261 87.2569 143.382 87.5633C143.504 87.8648 143.565 88.1872 143.563 88.5124C143.564 88.843 143.507 89.1713 143.396 89.4826C143.283 89.7881 143.118 90.0715 142.907 90.3201C142.697 90.566 142.438 90.7657 142.147 90.9063C141.842 91.0541 141.508 91.1282 141.169 91.1227H138.734V94.054H137.701ZM138.734 90.2084H141.114C141.315 90.2117 141.513 90.1662 141.693 90.0758C141.863 89.9843 142.013 89.8584 142.133 89.7059C142.258 89.5418 142.355 89.3578 142.419 89.1615C142.489 88.9524 142.524 88.7331 142.523 88.5124C142.527 88.2745 142.487 88.0379 142.405 87.8145C142.327 87.6193 142.219 87.4379 142.084 87.2771C141.951 87.1274 141.79 87.0062 141.609 86.9212C141.432 86.8384 141.239 86.7955 141.044 86.7955H138.734V90.2084Z" fill="white"/>
<path d="M53.8101 90.4177H0V90.9202H53.8101V90.4177Z" fill="white"/>
<path d="M213 90.1875H159.183V90.69H213V90.1875Z" fill="white"/>
<path fill-rule="evenodd" clip-rule="evenodd" d="M131.845 11.4336C131.684 11.3836 131.511 11.3836 131.35 11.4336L131.433 11.2591C131.433 11.2591 131.496 11.1126 131.657 10.7775C131.754 10.5777 131.802 10.3575 131.796 10.1355C131.796 10.0517 131.796 9.97493 131.796 9.89118C131.794 9.5345 131.652 9.19295 131.4 8.94073C131.148 8.68852 130.806 8.54602 130.449 8.54419C130.209 8.54484 129.974 8.60995 129.768 8.73273C129.561 8.8555 129.392 9.03143 129.277 9.24211L129.151 9.48638C129.083 9.61794 129.023 9.75307 128.97 9.89118C128.739 10.5377 128.399 11.1397 127.965 11.6709C127.366 12.492 126.662 13.2311 125.871 13.8694C125.45 14.2357 124.935 14.4774 124.384 14.5673C124.209 14.6168 124.023 14.6168 123.847 14.5673C123.847 14.5673 124.224 14.4277 126.045 12.4037C127.198 11.2162 128.184 9.87794 128.977 8.42554C129.508 7.54014 129.828 6.54426 129.912 5.51519C130.009 4.78566 129.94 4.04368 129.71 3.34464C129.339 2.21382 128.599 1.24039 127.609 0.580849C127.248 0.334056 126.843 0.160792 126.415 0.0709719C125.988 -0.0188481 125.546 -0.02346 125.117 0.0574045C124.827 0.0691528 124.55 0.178132 124.33 0.366783C124.109 0.555435 123.959 0.812775 123.903 1.09732C123.819 1.45326 124.196 1.71847 124.196 1.71847C123.9 1.87509 123.665 2.12606 123.529 2.43151C123.392 2.73696 123.361 3.07934 123.441 3.40423C123.522 3.72913 123.708 4.01788 123.971 4.22459C124.234 4.4313 124.559 4.5441 124.894 4.54506C125.1 4.57368 125.309 4.5472 125.501 4.4683C125.596 4.56106 125.674 4.66971 125.731 4.78934C125.898 5.25925 125.974 5.75669 125.955 6.25499C126.042 7.24973 125.826 8.24763 125.333 9.11648C125.014 9.73105 124.615 10.3012 124.147 10.8124C124.014 10.9311 123.784 11.1614 123.784 11.1614L123.638 11.2661L123.519 11.3568H123.393H123.282L123.198 11.2103C123.238 11.148 123.273 11.0827 123.303 11.0148C123.361 10.9126 123.392 10.7974 123.393 10.6798C123.388 10.46 123.367 10.2407 123.331 10.0238C123.227 9.72285 123.068 9.44367 122.863 9.20024C122.596 8.87941 122.246 8.63801 121.851 8.50231C121.794 8.47956 121.732 8.47274 121.672 8.48258C121.612 8.49242 121.555 8.51854 121.509 8.55814C121.453 8.55814 121.453 8.66283 121.453 8.71867C121.453 8.76613 121.468 8.81244 121.495 8.85128C121.518 8.89594 121.549 8.93613 121.586 8.96992L121.648 9.15138C121.656 9.16411 121.66 9.17855 121.66 9.19325C121.66 9.20795 121.656 9.22239 121.648 9.23513L121.607 9.32586H121.502C121.42 9.31502 121.345 9.27833 121.285 9.22118C121.164 9.10842 121.057 8.98194 120.964 8.84429C120.784 8.67375 120.579 8.53034 120.357 8.41855C120.228 8.36095 120.087 8.33464 119.946 8.34178C119.846 8.34178 119.747 8.36146 119.654 8.39969C119.562 8.43792 119.478 8.49396 119.408 8.5646C119.337 8.63524 119.281 8.71911 119.243 8.8114C119.204 8.9037 119.185 9.00263 119.185 9.10253C119.184 9.21738 119.21 9.33077 119.261 9.43374C119.312 9.53671 119.386 9.62642 119.478 9.69576C119.518 9.78197 119.567 9.86382 119.625 9.94004C119.739 10.1194 119.819 10.3181 119.862 10.5263C119.895 10.6714 119.921 10.8182 119.939 10.966C119.939 11.1126 119.862 11.1056 119.729 11.1405C119.597 11.1754 119.597 11.0079 119.597 10.952C119.584 10.7978 119.539 10.648 119.464 10.5123C119.432 10.4368 119.377 10.3732 119.307 10.3306C119.237 10.288 119.155 10.2685 119.073 10.275C118.745 10.275 118.731 10.4216 118.647 10.5821C118.547 11.0185 118.547 11.4718 118.647 11.9082C118.718 12.3333 118.718 12.7672 118.647 13.1924C118.446 13.5835 118.213 13.957 117.949 14.3091C117.656 14.7069 115.695 16.8006 115.255 17.3729C114.816 17.9452 112.778 20.7509 112.778 20.7509C111.783 22.3486 111.054 24.0977 110.621 25.9295C109.016 33.4741 112.568 40.6837 118.403 41.919L118.71 41.9818C119.308 42.0582 119.909 42.1025 120.511 42.1144C121.282 42.0936 122.048 41.9692 122.786 41.7445C123.384 41.5272 123.947 41.2213 124.454 40.8372C125.315 40.201 125.968 39.3244 126.331 38.3177C126.63 37.4602 126.721 36.5441 126.597 35.6446C126.516 34.9267 126.17 34.2647 125.627 33.7882C125.454 33.6512 125.252 33.5571 125.036 33.5134C124.82 33.4697 124.596 33.4778 124.384 33.5369C123.931 33.6695 123.826 34.2348 123.686 34.3325C123.573 34.3752 123.453 34.3929 123.332 34.3845C123.212 34.3761 123.094 34.3417 122.988 34.2837C122.758 34.165 122.688 33.9277 122.646 33.5858C122.601 33.1607 122.629 32.7309 122.73 32.3155C122.917 31.7563 123.2 31.2342 123.568 30.7731C124.82 29.5132 126.51 28.7856 128.286 28.7422C130.379 28.5956 121.453 28.5328 120.671 32.3365L120.609 32.6436C120.54 33.0212 120.526 33.4066 120.567 33.7882C120.626 34.4199 120.894 35.0141 121.327 35.4771C121.54 35.6969 121.795 35.8719 122.077 35.9917C122.359 36.1116 122.662 36.1739 122.968 36.1751C123.171 36.1727 123.372 36.1302 123.559 36.05C123.746 35.9697 123.915 35.8533 124.056 35.7075C124.221 35.5227 124.372 35.3268 124.51 35.1212C124.552 35.0793 124.81 35.0305 124.957 35.3376C125.053 35.6643 125.107 36.0021 125.117 36.3426C125.105 37.3448 124.739 38.3105 124.084 39.0691C123.429 39.8277 122.527 40.3303 121.537 40.4882C121.27 40.5191 121.001 40.5191 120.734 40.4882C120.234 40.4244 119.749 40.2708 119.303 40.0346C118.676 39.6939 118.132 39.2169 117.712 38.6387C117.22 37.9745 116.844 37.231 116.602 36.4403C116.346 35.7319 116.361 34.9538 116.644 34.2558C116.79 33.9972 116.993 33.7752 117.237 33.6067L117.342 33.509C117.367 33.4443 117.381 33.3759 117.384 33.3066C117.384 33.2089 117.384 33.2368 117.384 33.16C117.379 33.1202 117.363 33.0826 117.339 33.0507C117.314 33.0189 117.282 32.994 117.244 32.9786C117.204 32.9572 117.158 32.946 117.112 32.946C117.066 32.946 117.02 32.9572 116.979 32.9786C116.887 33.0253 116.806 33.092 116.742 33.174C116.693 33.2782 116.658 33.3885 116.637 33.502C116.63 33.5286 116.618 33.5536 116.601 33.5753C116.584 33.5971 116.563 33.6154 116.539 33.629C116.515 33.6426 116.488 33.6514 116.461 33.6547C116.433 33.6581 116.406 33.656 116.379 33.6486C116.302 33.6486 116.288 33.516 116.281 33.3903C116.276 33.3043 116.276 33.2181 116.281 33.1321C116.288 33.0529 116.307 32.9751 116.337 32.9018C116.41 32.7586 116.509 32.6307 116.63 32.5249C116.723 32.4029 116.857 32.3186 117.007 32.2876C117.245 32.2876 117.272 32.2876 117.293 32.4342C117.314 32.5807 117.154 32.7483 117.74 32.9576C117.863 32.9982 117.995 33.0012 118.119 32.9664C118.243 32.9316 118.354 32.8605 118.438 32.7622C118.566 32.5841 118.644 32.3748 118.663 32.1562C118.683 31.9376 118.643 31.7179 118.548 31.52C118.453 31.3222 118.306 31.1537 118.124 31.0321C117.941 30.9104 117.729 30.8403 117.51 30.829C117.005 30.7094 116.482 30.6834 115.967 30.7522C115.519 30.8718 115.122 31.1339 114.837 31.499L114.725 31.15C114.782 30.8657 114.912 30.6011 115.102 30.3823C115.409 29.987 115.847 29.7146 116.337 29.6146C116.641 29.5138 116.966 29.4946 117.279 29.5587C117.705 29.6146 117.712 29.7891 117.775 29.9077C117.838 30.0263 117.852 30.0054 117.949 30.0822C117.973 30.1043 118.003 30.1198 118.035 30.1271C118.066 30.1344 118.1 30.1334 118.131 30.1241L118.243 30.0612C118.286 29.995 118.323 29.9249 118.354 29.8519C118.389 29.7503 118.41 29.6447 118.417 29.5378C118.417 29.4401 118.319 29.3563 118.298 29.2586C118.229 28.8957 118.578 29.0841 118.633 29.14C118.689 29.2329 118.729 29.3343 118.752 29.4401C118.836 29.5683 118.948 29.6757 119.08 29.7542C119.178 29.817 119.331 29.7053 119.331 29.7053C119.331 29.7053 119.485 29.6564 119.52 29.3214C119.539 29.2223 119.539 29.1205 119.52 29.0213C119.481 28.9011 119.42 28.7896 119.338 28.6933C119.178 28.5713 119.008 28.4639 118.829 28.3723C118.71 28.2955 118.752 28.114 119.101 28.1001C119.197 28.0957 119.293 28.1149 119.38 28.1559C119.579 28.2329 119.753 28.3633 119.883 28.5328C119.993 28.7164 120.115 28.8935 120.246 29.0632C120.483 29.3563 120.553 29.3284 120.79 29.3424C120.906 29.3325 121.018 29.2989 121.12 29.2437C121.222 29.1884 121.312 29.1127 121.383 29.0213C121.558 28.7572 121.659 28.4512 121.676 28.135C121.662 27.678 121.492 27.2397 121.195 26.8927C120.99 26.5928 120.698 26.3636 120.357 26.2366C120.357 26.2366 120.246 26.1529 120.267 26.097C120.287 26.0506 120.318 26.0099 120.357 25.9784L120.713 25.9016C120.896 25.8508 121.076 25.7879 121.251 25.7132C121.341 25.6626 121.414 25.5852 121.459 25.4914C121.504 25.3976 121.519 25.2922 121.502 25.1897C121.502 24.9385 121.383 24.8966 121.202 24.7989C121.02 24.7012 120.846 24.7221 120.378 24.7221C119.91 24.7383 119.443 24.7896 118.982 24.8756C118.361 24.9803 117.796 25.2106 117.712 25.2106C117.628 25.2106 117.628 25.1199 117.586 25.0641C117.545 25.0083 117.656 24.8966 117.698 24.8198C117.958 24.6072 118.244 24.4289 118.55 24.2894C118.902 24.0992 119.281 23.9627 119.673 23.8846C120.282 23.7165 120.918 23.6738 121.544 23.759C121.963 23.8008 122.374 23.8497 122.905 23.9404C123.118 23.9972 123.34 24.0086 123.558 23.9737C123.775 23.9388 123.983 23.8585 124.168 23.738C124.285 23.6357 124.377 23.5087 124.439 23.3663C124.5 23.2239 124.529 23.0695 124.524 22.9145C124.493 22.7068 124.398 22.514 124.252 22.3631C124.135 22.237 123.998 22.1309 123.847 22.049C124.179 21.9605 124.527 21.9462 124.866 22.0072C125.459 22.1049 125.564 22.5027 125.829 22.8935C126.094 23.2844 126.004 23.6822 125.864 23.7799C125.786 23.838 125.689 23.8653 125.592 23.8567L125.473 24.0172C125.541 24.2438 125.68 24.4423 125.87 24.5832C126.06 24.7241 126.29 24.7998 126.527 24.7989C126.816 24.7989 127.093 24.6842 127.297 24.48C127.501 24.2758 127.616 23.9989 127.616 23.7101C127.619 23.5473 127.58 23.3864 127.504 23.2425L127.33 22.9145C127.246 22.8522 127.167 22.7846 127.092 22.7121L126.946 22.5655C126.89 22.4887 126.946 22.4469 126.946 22.391C126.95 22.3462 126.97 22.3043 127.001 22.2724H127.134C127.134 22.2724 127.246 22.3492 127.546 22.5167C127.857 22.6145 128.183 22.657 128.509 22.6423C129.097 22.5521 129.647 22.2954 130.093 21.9025C130.281 21.7275 130.42 21.507 130.497 21.2624C130.574 21.0178 130.586 20.7575 130.533 20.5066C130.511 20.2934 130.416 20.0941 130.265 19.9418C130.114 19.7896 129.916 19.6934 129.703 19.6691C129.478 19.6573 129.257 19.7328 129.087 19.8797C128.917 20.0267 128.809 20.2338 128.788 20.4578C128.788 20.4578 128.837 20.5764 128.788 20.6392C128.757 20.6833 128.713 20.7173 128.663 20.737C128.589 20.7766 128.508 20.8026 128.425 20.8137C128.353 20.8177 128.281 20.8177 128.209 20.8137C128.008 20.7743 127.822 20.6801 127.672 20.5415C127.577 20.4576 127.497 20.3586 127.434 20.2484C127.35 20.1341 127.279 20.0099 127.225 19.8785C127.148 19.6831 127.344 19.7319 127.344 19.7319C127.437 19.707 127.533 19.6907 127.63 19.6831C127.867 19.6482 127.937 19.6831 127.93 19.5086C127.916 19.4218 127.89 19.3373 127.853 19.2573C127.803 19.1162 127.716 18.991 127.602 18.8944C127.265 18.5847 126.85 18.3724 126.401 18.2803C125.908 18.1263 125.396 18.0372 124.88 18.015C124.125 18.0206 123.373 18.1143 122.639 18.2942C122.112 18.4393 121.6 18.6356 121.111 18.8805L120.881 18.9642C120.803 18.9821 120.722 18.9821 120.643 18.9642C120.525 18.9642 120.497 18.8805 120.497 18.8805C120.489 18.8241 120.497 18.7665 120.521 18.7146C120.544 18.6627 120.582 18.6186 120.629 18.5873C120.804 18.4408 121.125 18.4687 121.46 18.4059C121.795 18.3431 123.254 17.9522 125.026 17.4846C126.516 17.1296 127.947 16.5632 129.277 15.8026C130.266 15.2499 131.129 14.4963 131.81 13.5902C132.138 13.1947 132.333 12.7065 132.369 12.1943C132.38 12.048 132.345 11.9018 132.269 11.7765C132.192 11.6512 132.078 11.5532 131.943 11.4964L131.845 11.4336ZM124.964 15.3629C125.803 15.3001 126.615 15.0342 127.33 14.5882C128.037 14.1066 128.692 13.5522 129.284 12.9341C130.212 11.9431 130.135 11.2731 130.47 11.2661C130.617 11.2661 130.596 11.4825 130.589 11.5173C130.548 11.6657 130.489 11.8086 130.414 11.9431C130.099 12.5462 129.686 13.0933 129.193 13.5623C128.456 14.3526 127.539 14.9536 126.52 15.3141C125.8 15.4882 125.053 15.519 124.322 15.4048L124.964 15.3629ZM119.038 26.7531C119.314 26.8195 119.579 26.9228 119.827 27.0602L120.127 27.2137C120.127 27.2137 120.469 27.5417 120.176 27.6743C119.883 27.8069 119.534 27.5696 119.331 27.4999C118.999 27.3675 118.652 27.2761 118.298 27.2277C117.889 27.1705 117.473 27.1705 117.063 27.2277C116.543 27.2772 116.035 27.4165 115.563 27.6394C115.205 27.8523 114.875 28.1077 114.579 28.4002L114.292 28.8259L114.174 29.0492L113.943 29.0841L113.902 28.7771C114.298 28.2252 114.768 27.7298 115.297 27.3044C115.963 26.8721 116.726 26.613 117.517 26.5507C118.023 26.5252 118.529 26.5818 119.017 26.7182L119.038 26.7531ZM122.772 23.2285C122.656 23.2422 122.539 23.2422 122.423 23.2285L122.074 23.1518C121.778 23.07 121.474 23.0232 121.167 23.0122C120.457 22.9679 119.745 23.0651 119.073 23.2983C118.026 23.5984 117.391 24.1568 116.281 25.2037C115.625 25.8161 115.007 26.4687 114.432 27.1579L114.188 27.1997L114.523 26.7042C115.103 25.8757 115.727 25.0789 116.393 24.3173C117.155 23.3352 118.245 22.6611 119.464 22.4189C120.366 22.2035 121.303 22.1821 122.214 22.3561C122.835 22.4538 122.988 22.5306 123.037 22.7679C123.107 23.1169 122.898 23.1797 122.779 23.2076L122.772 23.2285ZM122.577 20.1298C125.271 19.9134 126.066 20.8277 126.066 20.8277L125.843 20.7788C125.843 20.7788 125.347 20.6881 125.145 20.6672C124.525 20.562 123.897 20.5106 123.268 20.5136C121.796 20.5646 120.342 20.8619 118.969 21.393C117.671 21.8318 116.519 22.6189 115.639 23.6682C115.277 24.1052 114.952 24.5722 114.669 25.0641C114.751 24.7062 114.875 24.3595 115.039 24.0312C115.275 23.6247 115.563 23.2515 115.898 22.9215C116.483 22.3336 117.154 21.8372 117.887 21.4488C119.347 20.7127 120.939 20.2716 122.57 20.1507L122.577 20.1298ZM121.99 15.998C120.539 17.0246 119.161 18.151 117.866 19.369C116.254 20.9862 114.943 22.8767 113.992 24.9524C113.036 26.9136 112.994 29.6285 113.008 32.3086C113.062 34 113.461 35.6626 114.181 37.194L113.985 37.1591L113.769 36.7334C113.386 35.9728 113.111 35.1623 112.952 34.3256C112.657 32.9715 112.53 31.586 112.575 30.2008C112.526 28.4173 112.789 26.6389 113.35 24.9454C114.047 23.1679 115.009 21.5065 116.205 20.0181C117.318 18.6339 118.609 17.402 120.043 16.354C122.038 14.6738 123.904 12.8471 125.627 10.8892C126.471 9.97883 127.115 8.90188 127.518 7.72761C127.77 7.01338 127.883 6.25787 127.853 5.50123C127.814 4.65339 127.559 3.82952 127.113 3.10734C126.854 2.66358 126.524 2.26516 126.136 1.92784C126.037 1.86594 125.944 1.79591 125.857 1.71847C125.71 1.57191 125.717 1.50909 125.717 1.50909L125.822 1.35555C125.898 1.33746 125.977 1.33746 126.052 1.35555C126.36 1.38136 126.652 1.50624 126.883 1.71149C127.349 2.05654 127.725 2.50906 127.979 3.03057C128.246 3.93552 128.345 4.88161 128.272 5.82227C128.183 6.77141 127.928 7.69752 127.518 8.55814C126.811 9.97158 125.924 11.2876 124.88 12.4735C123.421 14.2323 122.744 14.2811 122.786 14.7627C122.786 15.1326 123.442 14.9721 123.365 15.1884C123.289 15.4048 122.493 15.6421 122.011 15.9701L121.99 15.998ZM131.029 13.1435C130.939 13.3038 130.839 13.4578 130.728 13.6041C130.357 14.1734 129.86 14.6507 129.277 15C128.186 15.8165 126.892 16.3164 125.536 16.4447C124.848 16.5329 124.149 16.4903 123.477 16.3191C123.835 16.3383 124.194 16.3383 124.552 16.3191C126.221 16.186 127.817 15.5781 129.151 14.5673C129.767 14.1242 130.293 13.5675 130.701 12.9272C130.91 12.6061 131.294 12.7178 131.029 13.1645" fill="white"/>
<path fill-rule="evenodd" clip-rule="evenodd" d="M102.386 26.2156C101.959 24.3819 101.23 22.6319 100.229 21.037C100.229 21.037 98.1982 18.2453 97.7585 17.652C97.3188 17.0588 95.3507 14.9859 95.0576 14.5951C94.7905 14.2455 94.5568 13.8717 94.3597 13.4784C94.2847 13.0513 94.2847 12.6144 94.3597 12.1873C94.4518 11.7524 94.4518 11.303 94.3597 10.8682C94.2689 10.7077 94.2549 10.589 93.9338 10.5611C93.8509 10.5531 93.7675 10.5718 93.696 10.6145C93.6244 10.6571 93.5683 10.7216 93.536 10.7984C93.4647 10.9354 93.4197 11.0845 93.4034 11.2381C93.4034 11.2939 93.3337 11.4405 93.2708 11.4265C93.208 11.4126 93.0545 11.4265 93.0684 11.252C93.0824 11.0775 93.1243 10.8682 93.1383 10.8123C93.1843 10.6051 93.2644 10.407 93.3755 10.2261C93.4359 10.1509 93.4874 10.0689 93.529 9.98181C93.6186 9.90961 93.6909 9.81818 93.7404 9.71428C93.79 9.61039 93.8156 9.49669 93.8152 9.38159C93.8153 9.28202 93.7955 9.18343 93.7571 9.09152C93.7188 8.99961 93.6628 8.91621 93.592 8.84613C93.5213 8.77604 93.4372 8.72067 93.345 8.6832C93.2527 8.64573 93.154 8.62691 93.0544 8.62783C92.9136 8.61901 92.7726 8.64291 92.6426 8.69763C92.4246 8.81244 92.2229 8.95559 92.0425 9.12336C91.9454 9.25929 91.8381 9.38761 91.7215 9.50722C91.6577 9.56018 91.5803 9.59406 91.4981 9.60492H91.3935L91.3516 9.52118C91.3442 9.50718 91.3403 9.49161 91.3403 9.47581C91.3403 9.46001 91.3442 9.44444 91.3516 9.43044C91.3516 9.37461 91.4073 9.25596 91.4073 9.25596C91.4425 9.22049 91.4731 9.18061 91.4981 9.13732C91.5254 9.09848 91.54 9.05218 91.54 9.00472C91.54 8.94888 91.5399 8.8721 91.4841 8.84419C91.44 8.80296 91.3846 8.77567 91.325 8.76574C91.2654 8.75581 91.2043 8.76368 91.1491 8.78835C90.7525 8.92038 90.4015 9.16242 90.1372 9.48628C89.9288 9.72602 89.7676 10.0031 89.6625 10.3029C89.6218 10.5332 89.6032 10.7669 89.6067 11.0008C89.6083 11.1183 89.6394 11.2335 89.6974 11.3358C89.7254 11.4022 89.7606 11.4653 89.8022 11.5242L89.7114 11.6708H89.6067H89.4742L89.3624 11.587L89.2159 11.4823L88.8459 11.1334C88.3769 10.6207 87.978 10.048 87.6595 9.43044C87.1686 8.56379 86.9542 7.5678 87.0452 6.57593C87.0264 6.07822 87.0998 5.58133 87.2616 5.11029C87.3212 4.98809 87.4016 4.87711 87.499 4.78226C87.6901 4.86452 87.8998 4.89346 88.1061 4.86601C88.4407 4.86505 88.7656 4.75224 89.0288 4.54553C89.2919 4.33882 89.4785 4.05007 89.5587 3.72518C89.6389 3.40029 89.6082 3.05791 89.4714 2.75246C89.3347 2.44701 89.0998 2.19603 88.804 2.03941C88.9034 1.96931 88.9828 1.87449 89.0342 1.76431C89.0856 1.65414 89.1073 1.53244 89.0973 1.41128C89.0374 1.12726 88.885 0.871112 88.664 0.68294C88.4429 0.494768 88.1658 0.385194 87.8759 0.371367C87.4462 0.290341 87.0046 0.295508 86.5768 0.386564C86.1491 0.477621 85.7437 0.65276 85.3842 0.901798C84.3792 1.53284 83.6129 2.48075 83.2066 3.59579C82.9742 4.29429 82.9028 5.03628 82.9974 5.76633C83.081 6.79868 83.4035 7.79743 83.9395 8.68367C84.7317 10.1326 85.7154 11.4683 86.8639 12.6549C88.6925 14.6858 89.0693 14.8254 89.0693 14.8254C88.8912 14.8744 88.7031 14.8744 88.5249 14.8254C87.9748 14.7334 87.4606 14.492 87.0384 14.1275C86.2546 13.4925 85.5617 12.7527 84.9794 11.929C84.5399 11.4012 84.1995 10.7982 83.9744 10.1493C83.9256 10.0307 83.8209 9.80733 83.793 9.74452L83.6604 9.50024C83.5109 9.24203 83.2799 9.04076 83.0037 8.92801C82.7275 8.81526 82.4217 8.79741 82.1342 8.87726C81.8467 8.95712 81.5938 9.13015 81.4153 9.36922C81.2368 9.60828 81.1427 9.89985 81.1478 10.1982C81.1405 10.2771 81.1405 10.3565 81.1478 10.4355C81.1426 10.6575 81.1904 10.8777 81.2873 11.0775C81.4479 11.4195 81.5037 11.5661 81.5037 11.5661L81.5946 11.7406C81.4314 11.6868 81.2553 11.6868 81.0921 11.7406C80.958 11.7985 80.8455 11.897 80.7704 12.0222C80.6953 12.1474 80.6613 12.293 80.6732 12.4385C80.7046 12.9504 80.8977 13.4392 81.2246 13.8344C81.9048 14.7438 82.7707 15.498 83.765 16.0468C85.093 16.8116 86.5247 17.3805 88.0154 17.7358C89.7882 18.2034 91.2399 18.6012 91.5749 18.657C91.9099 18.7129 92.2309 18.657 92.4124 18.8315C92.4601 18.8627 92.4978 18.9069 92.5213 18.9588C92.5448 19.0107 92.553 19.0682 92.545 19.1246C92.5097 19.1727 92.4572 19.2052 92.3984 19.2154C92.3203 19.233 92.2392 19.233 92.1611 19.2154C92.0983 19.2154 92.1612 19.2154 91.9239 19.1316C91.4383 18.8825 90.9284 18.6837 90.4023 18.5384C89.6685 18.3614 88.9168 18.2701 88.162 18.2662C87.6438 18.2888 87.1304 18.3756 86.6336 18.5244C86.1854 18.6212 85.7711 18.8356 85.4332 19.1456C85.3218 19.245 85.2357 19.3693 85.1818 19.5085C85.143 19.5871 85.1194 19.6724 85.1121 19.7597C85.1121 19.9552 85.1679 19.8993 85.4052 19.9273L85.6983 19.9761C85.6983 19.9761 85.8868 19.9342 85.817 20.1227C85.762 20.2574 85.6892 20.3841 85.6006 20.4995C85.5406 20.6093 85.4627 20.7084 85.3703 20.7927C85.2177 20.9284 85.0325 21.0222 84.8329 21.0649C84.7585 21.0689 84.6839 21.0689 84.6095 21.0649C84.529 21.052 84.4513 21.0261 84.3793 20.9881C84.324 20.9701 84.2771 20.933 84.2467 20.8834C84.1979 20.8276 84.2467 20.7089 84.2467 20.7089C84.2271 20.4837 84.1208 20.2748 83.9502 20.1264C83.7797 19.978 83.5582 19.9016 83.3324 19.9133C83.1182 19.9378 82.9189 20.035 82.7677 20.1887C82.6166 20.3424 82.5229 20.5433 82.5019 20.7578C82.4506 21.0086 82.464 21.2684 82.5409 21.5126C82.6178 21.7569 82.7557 21.9775 82.9415 22.1536C83.3881 22.5465 83.9379 22.8033 84.5258 22.8934C84.8518 22.9093 85.1779 22.8668 85.4889 22.7678C85.6322 22.6944 85.7699 22.6104 85.9007 22.5166L86.0333 22.5515C86.0636 22.5816 86.0833 22.6208 86.0892 22.6631C86.0892 22.7259 86.0892 22.7678 86.0892 22.8446C86.044 22.897 85.995 22.946 85.9426 22.9911C85.8449 23.0889 85.7123 23.1935 85.7123 23.1935L85.5378 23.5146C85.4624 23.6613 85.4242 23.8242 85.4262 23.9892C85.4259 24.2519 85.5206 24.5058 85.6928 24.7041C85.8651 24.9025 86.1032 25.0319 86.3633 25.0684C86.6235 25.105 86.888 25.0462 87.1083 24.9031C87.3285 24.7599 87.4897 24.5419 87.5619 24.2893L87.4431 24.1288C87.3461 24.1367 87.2495 24.1095 87.171 24.052C87.0314 23.9543 86.9756 23.5565 87.2129 23.1656C87.4502 22.7748 87.5827 22.384 88.169 22.2862C88.5096 22.2257 88.8592 22.2376 89.1949 22.3211C89.0439 22.4065 88.9055 22.5122 88.7832 22.6352C88.6358 22.7879 88.5404 22.9834 88.5109 23.1935C88.5074 23.3484 88.5374 23.5021 88.5989 23.6442C88.6603 23.7864 88.7517 23.9136 88.8669 24.0171C89.0523 24.1356 89.2601 24.2148 89.4774 24.2496C89.6947 24.2844 89.917 24.2742 90.1302 24.2195C90.6676 24.1288 91.0723 24.0729 91.4911 24.0311C92.1168 23.9493 92.7524 23.992 93.3615 24.1567C93.7551 24.2393 94.1356 24.3755 94.4922 24.5615C94.7935 24.7086 95.0788 24.8863 95.3437 25.0919C95.3855 25.1687 95.4902 25.2803 95.4483 25.3432C95.4064 25.406 95.4065 25.4897 95.3227 25.4897C94.9081 25.3549 94.4863 25.2431 94.0594 25.1547C93.5988 25.0665 93.1322 25.0128 92.6636 24.9942C92.196 24.9942 92.0145 24.9942 91.8401 25.071C91.6656 25.1477 91.5679 25.2105 91.54 25.4618C91.5227 25.5661 91.5382 25.6732 91.5845 25.7682C91.6307 25.8632 91.7054 25.9415 91.7981 25.9922C91.972 26.0691 92.1518 26.1321 92.3356 26.1807L92.6845 26.2574C92.7266 26.2881 92.7603 26.3289 92.7823 26.3761C92.7823 26.4319 92.6845 26.5087 92.6845 26.5087C92.3449 26.6403 92.0531 26.8714 91.847 27.1717C91.5495 27.5187 91.3796 27.9571 91.3655 28.414C91.3823 28.7314 91.4861 29.0381 91.6656 29.3004C91.7369 29.3915 91.8265 29.4665 91.9287 29.5206C92.0309 29.5747 92.1435 29.6067 92.2589 29.6145C92.4892 29.6145 92.5588 29.6145 92.8031 29.3423C93.0474 29.0701 92.9636 29.0701 93.1591 28.8118C93.2875 28.6382 93.4651 28.5069 93.6687 28.435C93.7543 28.3895 93.8513 28.37 93.9478 28.3791C94.2968 28.3791 94.3316 28.5746 94.2199 28.6513C93.9687 28.8188 93.7802 28.8677 93.7035 28.9654C93.6199 29.0619 93.5602 29.1766 93.529 29.3004C93.5094 29.3995 93.5094 29.5014 93.529 29.6005C93.529 29.9285 93.7244 29.9844 93.7244 29.9844C93.7244 29.9844 93.8711 30.0891 93.9688 30.0332C94.1019 29.9566 94.2145 29.8488 94.2968 29.7192C94.3387 29.6214 94.3595 29.4749 94.4224 29.4191C94.4852 29.3632 94.8271 29.1678 94.7504 29.5377C94.7504 29.6354 94.6388 29.7192 94.6388 29.8169C94.6433 29.9213 94.6622 30.0246 94.6946 30.124C94.7287 30.1989 94.7683 30.2713 94.8132 30.3403L94.9248 30.4031C94.9561 30.4125 94.9893 30.4135 95.0211 30.4062C95.0529 30.3988 95.0823 30.3833 95.1063 30.3612C95.204 30.2845 95.225 30.2984 95.2808 30.1868C95.3366 30.0751 95.3436 29.8936 95.7763 29.8308C96.0907 29.773 96.4146 29.7946 96.7186 29.8936C97.2073 29.9977 97.6442 30.2692 97.9539 30.6614C98.1455 30.8792 98.2756 31.1442 98.3308 31.4291L98.212 31.778C97.9301 31.4119 97.5352 31.1494 97.0885 31.0313C96.5716 30.9625 96.0466 30.9885 95.5391 31.108C95.3201 31.1179 95.1078 31.1869 94.9248 31.3077C94.7419 31.4284 94.5949 31.5965 94.4997 31.794C94.4045 31.9915 94.3646 32.2111 94.3842 32.4295C94.4037 32.6478 94.4821 32.8568 94.6108 33.0343C94.6973 33.1289 94.8082 33.1978 94.9313 33.2335C95.0544 33.2692 95.185 33.2703 95.3087 33.2367C95.888 33.0203 95.7346 32.8668 95.7555 32.7133C95.7764 32.5597 95.8043 32.5388 96.0346 32.5667C96.1847 32.5934 96.3193 32.6756 96.4115 32.797C96.5293 32.9057 96.6282 33.033 96.7046 33.1739C96.7386 33.2489 96.7599 33.3291 96.7675 33.4112C96.7742 33.4948 96.7742 33.5788 96.7675 33.6624C96.7675 33.795 96.7674 33.8997 96.6697 33.9276C96.6161 33.9391 96.5603 33.9305 96.5127 33.9035C96.4651 33.8765 96.4291 33.8329 96.4115 33.7811C96.3923 33.6651 96.357 33.5524 96.3067 33.4461C96.2451 33.3649 96.1666 33.2982 96.0765 33.2507C95.9892 33.2153 95.8915 33.2153 95.8042 33.2507C95.7677 33.2688 95.7361 33.2954 95.7119 33.3281C95.6876 33.3609 95.6714 33.3989 95.6647 33.4391C95.6529 33.4872 95.6529 33.5375 95.6647 33.5857C95.6669 33.6521 95.6787 33.7179 95.6996 33.7811C95.7336 33.8193 95.7709 33.8543 95.8112 33.8858C96.0566 34.0511 96.258 34.2739 96.3975 34.5348C96.6808 35.2329 96.6957 36.011 96.4395 36.7194C96.2024 37.5107 95.8291 38.2546 95.3367 38.9178C94.9126 39.4946 94.367 39.9711 93.7384 40.3137C93.3023 40.5417 92.8301 40.6929 92.3425 40.7603C92.076 40.7931 91.8065 40.7931 91.54 40.7603C90.5502 40.5996 89.6486 40.0952 88.9938 39.3357C88.339 38.5763 87.9728 37.6104 87.9596 36.6077C87.9665 36.2692 88.0205 35.9333 88.1201 35.6096C88.2666 35.2956 88.525 35.3514 88.5598 35.3933C88.7018 35.5976 88.8555 35.7933 89.0204 35.9795C89.3058 36.2712 89.6943 36.4391 90.1022 36.4472C90.4093 36.4458 90.713 36.3834 90.9958 36.2636C91.2785 36.1437 91.5348 35.9689 91.7494 35.7492C92.1969 35.2904 92.4729 34.6916 92.531 34.0533C92.5717 33.6717 92.5575 33.2863 92.4891 32.9087L92.4264 32.6016C91.6517 28.7979 82.6972 28.8537 84.8189 29.0073C86.5907 29.0527 88.2773 29.7773 89.5299 31.0313C89.8987 31.4926 90.1844 32.0145 90.3744 32.5737C90.4776 32.9888 90.5037 33.4194 90.4512 33.8439C90.4093 34.2138 90.3465 34.4511 90.1092 34.5418C90.0034 34.6005 89.8858 34.6347 89.765 34.642C89.6442 34.6492 89.5234 34.6293 89.4113 34.5837C89.2647 34.4651 89.16 33.9276 88.7134 33.795C88.5017 33.735 88.2789 33.7258 88.063 33.7682C87.8471 33.8107 87.6442 33.9036 87.471 34.0393C86.9317 34.5217 86.5868 35.1843 86.501 35.9028C86.3834 36.8 86.4741 37.7123 86.7661 38.5689C87.1295 39.5775 87.7826 40.4564 88.6435 41.0953C89.1556 41.4724 89.7169 41.7776 90.3116 42.0027C91.0506 42.2243 91.8157 42.3463 92.5869 42.3656C93.189 42.3536 93.79 42.3093 94.3874 42.233L94.6946 42.1771C100.529 40.9348 104.082 33.7253 102.476 26.1877L102.386 26.2156ZM82.6972 11.4754C83.0392 11.4754 82.9555 12.1733 83.8838 13.1364C84.4732 13.7591 85.1283 14.316 85.8378 14.7975C86.5548 15.2433 87.369 15.5091 88.2109 15.5722L88.8459 15.6141C88.1164 15.7245 87.3725 15.6937 86.6545 15.5233C85.6326 15.1648 84.7129 14.5637 83.9744 13.7715C83.4855 13.2987 83.0734 12.7524 82.7531 12.1524C82.6859 12.0152 82.6299 11.8728 82.5856 11.7266C82.5856 11.7266 82.5506 11.4754 82.6972 11.4754ZM87.6316 16.6959C86.2771 16.5695 84.9845 16.0693 83.8977 15.2512C83.3111 14.9061 82.8138 14.4279 82.446 13.8553C82.3346 13.7095 82.2343 13.5555 82.1459 13.3947C81.8807 12.948 82.2576 12.8363 82.474 13.1574C82.8832 13.7963 83.4087 14.3526 84.0233 14.7975C84.7991 15.3716 85.6581 15.8235 86.5707 16.1375C87.2356 16.3477 87.9211 16.4858 88.6156 16.5493C88.9736 16.5685 89.3324 16.5685 89.6904 16.5493C89.018 16.72 88.3191 16.7603 87.6316 16.6679V16.6959ZM88.0085 20.9183C87.813 20.9183 87.3105 21.03 87.3105 21.03L87.0802 21.0719C87.0802 21.0719 87.8618 20.1715 90.5698 20.3739C92.2022 20.4923 93.7945 20.936 95.2528 21.679C95.9884 22.0669 96.6614 22.5633 97.249 23.1517C97.5866 23.477 97.8736 23.851 98.1004 24.2614C98.2685 24.5887 98.3951 24.9357 98.4773 25.2943C98.1919 24.8038 97.8676 24.337 97.5073 23.8985C96.6232 22.8551 95.4726 22.0712 94.1782 21.6302C92.8058 21.0938 91.3516 20.7963 89.8789 20.7508C89.2496 20.7426 88.621 20.7941 88.0015 20.9043L88.0085 20.9183ZM94.0734 23.5286C93.4024 23.291 92.6898 23.1937 91.9796 23.2424C91.6709 23.2524 91.3642 23.2969 91.0653 23.375C90.9606 23.4099 90.8071 23.4378 90.7163 23.4588C90.6028 23.4734 90.4879 23.4734 90.3744 23.4588C90.2557 23.4588 90.0464 23.375 90.1162 23.0191C90.1581 22.7818 90.3186 22.712 90.9327 22.6143C91.8432 22.4405 92.7799 22.4595 93.6825 22.6701C94.9003 22.92 95.9906 23.5924 96.7605 24.5685C97.4238 25.3327 98.0458 26.1318 98.6239 26.9623L98.9659 27.4579L98.7147 27.416C98.1444 26.7224 97.5288 26.0673 96.8721 25.4548C95.7624 24.4149 95.1203 23.8496 94.0804 23.5565L94.0734 23.5286ZM98.589 28.6234C98.2918 28.3372 97.9642 28.0844 97.6119 27.8697C97.1368 27.6468 96.6269 27.5074 96.1045 27.4579C95.695 27.3968 95.2786 27.3968 94.8691 27.4579C94.5152 27.5073 94.1685 27.5987 93.8362 27.7301C93.6338 27.7999 93.2847 28.0441 92.9916 27.9045C92.6984 27.765 93.0475 27.4369 93.0475 27.4369L93.3475 27.2834C93.5948 27.1499 93.8573 27.0468 94.1293 26.9763C94.6171 26.84 95.1241 26.7858 95.6298 26.8158C96.4234 26.8761 97.1892 27.1353 97.8563 27.5695C98.3878 27.9931 98.8576 28.4888 99.2521 29.0422L99.2102 29.3493H98.9728L98.8612 29.1189C98.8612 29.1189 98.6866 28.8537 98.568 28.6932L98.589 28.6234ZM100.173 34.6744C100.02 35.5127 99.7452 36.3239 99.3567 37.0823L99.1473 37.501L98.9519 37.5429C99.6677 36.01 100.067 34.3483 100.125 32.6574C100.125 29.9704 100.09 27.2625 99.1403 25.3013C98.1899 23.2255 96.8783 21.335 95.2668 19.7179C93.9709 18.4959 92.5903 17.3671 91.1352 16.3399C90.6606 16.0189 89.872 15.8025 89.7882 15.5582C89.7045 15.314 90.3464 15.5024 90.3674 15.1325C90.3674 14.6579 89.7183 14.6021 88.2736 12.8433C87.224 11.6624 86.3347 10.3483 85.6286 8.93492C85.2223 8.0734 84.9695 7.14753 84.8818 6.19905C84.8025 5.25833 84.9019 4.31109 85.1748 3.40735C85.4241 2.88493 85.801 2.43369 86.2706 2.09525C86.5003 1.8909 86.7883 1.76393 87.0941 1.73232C87.1701 1.71671 87.2485 1.71671 87.3245 1.73232C87.3245 1.73232 87.4291 1.80909 87.4291 1.88587C87.4291 1.96264 87.4292 1.94868 87.2896 2.09525C87.2025 2.17268 87.1092 2.24272 87.0105 2.30463C86.6272 2.64174 86.2996 3.03749 86.0403 3.47714C85.5886 4.19925 85.3335 5.02691 85.3004 5.878C85.2669 6.63425 85.3784 7.38995 85.6286 8.10439C86.0323 9.27626 86.6765 10.3508 87.5199 11.259C89.2426 13.2169 91.1089 15.0436 93.1033 16.7238C94.5382 17.7737 95.8309 19.0054 96.9489 20.3879C98.1436 21.8782 99.1037 23.5422 99.7964 25.3222C100.36 27.0153 100.625 28.7937 100.578 30.5776C100.626 31.9633 100.497 33.3494 100.194 34.7023" fill="white"/>
<path d="M104.389 27.1021C104.389 26.688 104.511 26.2832 104.742 25.9388C104.972 25.5945 105.299 25.3262 105.681 25.1677C106.064 25.0092 106.485 24.9677 106.891 25.0485C107.297 25.1293 107.67 25.3287 107.963 25.6216C108.256 25.9144 108.455 26.2875 108.536 26.6936C108.617 27.0998 108.575 27.5207 108.417 27.9033C108.258 28.2859 107.99 28.6129 107.646 28.843C107.301 29.0731 106.897 29.1959 106.482 29.1959C105.927 29.1959 105.395 28.9753 105.002 28.5826C104.609 28.1899 104.389 27.6574 104.389 27.1021Z" fill="white"/>
</svg>
