<svg width="121" height="50" viewBox="0 0 121 50" fill="none" xmlns="http://www.w3.org/2000/svg">
<path d="M6.57155 32.9526H7.50486V32.6914H5.11974L3.75243 37.4732L2.43121 32.6914H0V32.9526H0.933307V39.4204H0V39.6854H2.15083V39.4204H1.23289V33.1293H1.25593L3.13023 39.6854H3.44901L5.33483 33.1293H5.36555V39.4204H4.43225V39.6854H7.50486V39.4204H6.57155V32.9526Z" fill="white"/>
<path fill-rule="evenodd" clip-rule="evenodd" d="M11.3765 34.389L12.2599 37.308H10.424L11.3765 34.389ZM10.6967 39.6854V39.4243H9.73652L10.3203 37.5692H12.3559L12.932 39.4243H11.9488V39.6854H14.9408V39.4243H14.1726L12.0141 32.5339H11.6953L9.45614 39.4243H8.68799V39.6854H10.6967Z" fill="white"/>
<path fill-rule="evenodd" clip-rule="evenodd" d="M18.5085 32.9527H19.3304C20.1677 32.9527 20.4826 33.2561 20.4826 34.4314C20.4826 35.3724 20.1331 35.8218 19.2843 35.8218H18.5161V32.9527H18.5085ZM18.5085 36.0829H19.027C19.3524 36.0957 19.6605 36.2332 19.8873 36.467C20.1293 36.6975 20.2714 37.3465 20.2714 38.2184C20.2714 39.2861 20.7707 39.82 21.7232 39.82C21.994 39.8144 22.2628 39.7718 22.5221 39.6933V39.4436C21.6195 39.6318 21.5887 39.2132 21.5887 38.8444C21.5887 37.1391 21.2584 36.2596 19.7913 36.0061V35.9869C20.667 35.8832 21.7885 35.4723 21.7885 34.2893C21.7885 32.8337 20.5633 32.6992 19.5339 32.6992H16.3691V32.9604H17.3024V39.4321H16.3691V39.6933H19.4418V39.4321H18.5085V36.0906V36.0829Z" fill="white"/>
<path d="M28.3102 39.6854V39.4242H27.3193V32.9525C28.6482 32.8795 29.0553 33.5901 29.2397 34.9305H29.5316L29.4279 32.6875H24.0124L23.9087 34.9267H24.2083C24.3773 33.5862 24.7844 32.8757 26.1287 32.9487V39.4204H25.1377V39.6815L28.3102 39.6854Z" fill="white"/>
<path d="M33.2765 32.9526H34.2059V32.6914H31.1333V32.9526H32.0666V39.4204H31.1333V39.6854H34.2059V39.4204H33.2765V32.9526Z" fill="white"/>
<path d="M41.1805 32.9526H42.1215V32.6914H39.9745V32.9526H40.8771V37.2658L38.0887 32.6914H35.6729V32.9526H36.5985V39.4204H35.6729V39.6854H37.8237V39.4204H36.8981V33.16L40.8963 39.8199H41.1805V32.9526Z" fill="white"/>
<path d="M46.7573 32.9525C47.034 32.9405 47.3109 32.969 47.5793 33.037C48.0594 33.183 48.4165 33.5709 48.6163 34.5733H48.8813L48.8237 32.6875H43.6079V32.9487H44.5527V39.4204H43.6079V39.6815H48.985L49.0695 37.4309H48.7968C48.5971 38.6138 48.3359 39.4204 47.1107 39.4204H45.7703V36.221C46.7881 36.1864 47.1184 36.4399 47.2029 37.5998H47.4679V34.6809H47.2029C47.1568 35.8024 46.6767 35.9598 45.7703 35.9598V32.9525H46.7573Z" fill="white"/>
<path d="M56.0138 39.6854L56.1099 37.331H55.818C55.7795 38.5331 55.3532 39.4242 54.1549 39.4242H52.922V32.9525H53.9014V32.6875H50.7827V32.9487H51.7045V39.4204H50.7827V39.6815L56.0138 39.6854Z" fill="white"/>
<path d="M62.758 39.6854L62.854 37.331H62.5621C62.5237 38.5331 62.1012 39.4242 60.9029 39.4242H59.6662V32.9525H60.6494V32.6875H57.5269V32.9487H58.4602V39.4204H57.5269V39.6815L62.758 39.6854Z" fill="white"/>
<path d="M66.4875 32.9526H67.4208V32.6914H64.3481V32.9526H65.2815V39.4204H64.3481V39.6854H67.4208V39.4204H66.4875V32.9526Z" fill="white"/>
<path d="M77.6527 34.6578V32.6376H77.4376L77.0536 33.0716C76.6091 32.7049 76.0471 32.5112 75.4712 32.5262C75.0619 32.5264 74.6591 32.6279 74.2986 32.8216C73.938 33.0153 73.631 33.2951 73.4048 33.6362C72.8383 34.3672 72.5304 35.2655 72.5291 36.1903C72.4951 37.0239 72.7293 37.8464 73.1974 38.537C73.8772 39.4357 74.4994 39.8352 75.5633 39.8352C75.8853 39.8486 76.2065 39.7944 76.5062 39.6761C76.8059 39.5577 77.0774 39.3778 77.3032 39.1479C77.5291 38.9181 77.7042 38.6435 77.8173 38.3418C77.9305 38.04 77.9791 37.718 77.96 37.3963H78.6168V37.1351H75.667V37.3963H76.6196C76.6196 38.4717 76.7693 39.574 75.4673 39.574C73.7428 39.574 73.931 37.5 73.931 36.1173C73.931 34.581 73.8465 32.7874 75.5979 32.7874C76.6157 32.7874 77.1803 33.7207 77.38 34.6501L77.6527 34.6578Z" fill="white"/>
<path d="M82.277 32.9526H83.2103V32.6914H80.1377V32.9526H81.071V39.4204H80.1377V39.6854H83.2103V39.4204H82.277V32.9526Z" fill="white"/>
<path d="M90.1811 32.9526H91.1259V32.6914H88.9751V32.9526H89.8815V37.2658L87.0892 32.6914H84.6772V32.9526H85.599V39.4204H84.6772V39.6854H86.8242V39.4204H85.9025V33.16L89.9007 39.8199H90.1811V32.9526Z" fill="white"/>
<path d="M95.7617 32.9525C96.0371 32.9403 96.3128 32.9688 96.5798 33.037C97.0599 33.183 97.4209 33.5709 97.6168 34.5733H97.8818L97.8242 32.6875H92.6123V32.9487H93.5687V39.4204H92.6277V39.6815H98.0047L98.0892 37.4309H97.7935C97.5976 38.6138 97.3326 39.4204 96.1074 39.4204H94.7708V36.221C95.7886 36.1864 96.1189 36.4399 96.2034 37.5998H96.4646V34.6809H96.2034C96.1535 35.8024 95.6734 35.9598 94.7708 35.9598V32.9525H95.7617Z" fill="white"/>
<path d="M104.323 39.6854V39.4243H103.336V32.9526C104.665 32.8796 105.068 33.5901 105.256 34.9306H105.548L105.445 32.6914H100.01L99.9062 34.9306H100.21C100.379 33.5901 100.782 32.8796 102.13 32.9526V39.4243H101.139V39.6854H104.323Z" fill="white"/>
<path d="M111.586 39.6854V39.4243H110.595V32.9526C111.924 32.8796 112.331 33.5901 112.515 34.9306H112.807L112.704 32.6914H107.284L107.181 34.9306H107.484C107.653 33.5901 108.06 32.8796 109.404 32.9526V39.4243H108.414V39.6854H111.586Z" fill="white"/>
<path fill-rule="evenodd" clip-rule="evenodd" d="M117.52 39.8429C119.386 39.8429 120.454 37.9225 120.454 36.0021C120.454 34.2738 119.094 32.5454 117.52 32.5454C115.945 32.5454 114.582 34.293 114.582 36.0021C114.582 37.9225 115.653 39.8429 117.52 39.8429ZM119.056 37.1812C119.07 37.5754 119.038 37.9698 118.96 38.3565C118.791 39.0786 118.407 39.5817 117.508 39.5817C116.609 39.5817 116.229 39.0786 116.056 38.3565C115.978 37.9698 115.943 37.5756 115.953 37.1812V34.8998C115.954 34.5468 116.002 34.1956 116.095 33.8551C116.183 33.5495 116.368 33.2808 116.623 33.0896C116.877 32.8984 117.186 32.795 117.504 32.795C117.822 32.795 118.132 32.8984 118.386 33.0896C118.64 33.2808 118.826 33.5495 118.914 33.8551C119.013 34.1944 119.06 34.5465 119.056 34.8998V37.1812Z" fill="white"/>
<path d="M58.8252 18.6689C58.8252 18.3931 58.907 18.1236 59.0602 17.8943C59.2134 17.665 59.4311 17.4863 59.6859 17.3808C59.9406 17.2753 60.2209 17.2477 60.4914 17.3014C60.7618 17.3552 61.0103 17.488 61.2052 17.683C61.4002 17.878 61.533 18.1264 61.5868 18.3969C61.6406 18.6673 61.613 18.9476 61.5075 19.2024C61.4019 19.4571 61.2232 19.6749 60.994 19.8281C60.7647 19.9813 60.4951 20.0631 60.2194 20.0631C59.8496 20.0631 59.495 19.9162 59.2335 19.6547C58.9721 19.3932 58.8252 19.0386 58.8252 18.6689Z" fill="white"/>
<path fill-rule="evenodd" clip-rule="evenodd" d="M46.8843 25.7742C46.9187 25.957 46.9675 26.1368 47.0302 26.3119C47.2742 26.9819 47.7096 27.5655 48.2823 27.9903C48.6207 28.2447 48.9947 28.4478 49.3923 28.5933C49.8835 28.7423 50.3924 28.8249 50.9056 28.8391C51.3549 28.8391 51.9695 28.7776 52.1039 28.7508L52.3113 28.7123C53.1417 28.517 53.9242 28.1561 54.6118 27.6512C55.2995 27.1464 55.8782 26.5079 56.3134 25.7742H53.2407C53.1273 26.0351 52.9787 26.2794 52.7991 26.5001C52.5203 26.8858 52.1579 27.2036 51.739 27.4295C51.4419 27.5821 51.1212 27.6834 50.7903 27.7291C50.6117 27.7494 50.4313 27.7494 50.2526 27.7291C49.7289 27.6534 49.2385 27.4267 48.8416 27.0768C48.4446 26.7269 48.1581 26.2689 48.0173 25.7588L46.8843 25.7742Z" fill="white"/>
<path fill-rule="evenodd" clip-rule="evenodd" d="M49.5228 22.7016C49.5404 22.8496 49.5404 22.9991 49.5228 23.1471C49.4959 23.3891 49.4537 23.5312 49.2962 23.6272C49.223 23.6702 49.1407 23.6954 49.056 23.7007C48.9712 23.7061 48.8864 23.6914 48.8084 23.6579C48.7124 23.5773 48.6432 23.2201 48.3398 23.1318C48.1982 23.0935 48.0496 23.0885 47.9057 23.1172C47.7618 23.1458 47.6264 23.2073 47.5102 23.2969C47.1515 23.6162 46.9231 24.0565 46.8688 24.5336C46.822 24.9478 46.831 25.3663 46.8957 25.7781H48.0095C47.9275 25.5216 47.8784 25.2557 47.8636 24.9869C47.8704 24.7604 47.9066 24.5358 47.9711 24.3186C48.0671 24.115 48.24 24.1457 48.2668 24.1726C48.3581 24.3082 48.4595 24.4366 48.5703 24.5567C48.7599 24.7529 49.0195 24.8661 49.2923 24.8716C49.4962 24.8713 49.6981 24.8304 49.886 24.7512C50.0739 24.6721 50.2442 24.5564 50.387 24.4107C50.6854 24.1038 50.8697 23.704 50.9093 23.2777C50.9289 23.0849 50.9289 22.8906 50.9093 22.6978L49.5228 22.7016ZM52.4917 22.7016C52.5783 22.7422 52.6769 22.749 52.7682 22.7208H52.8105L52.4917 22.7016ZM53.7054 22.7016C53.725 22.7437 53.7354 22.7896 53.7361 22.836C53.7403 22.8936 53.7403 22.9513 53.7361 23.0089C53.7361 23.0934 53.7361 23.1663 53.6708 23.1817C53.6352 23.1903 53.5977 23.1852 53.5657 23.1674C53.5336 23.1496 53.5095 23.1204 53.498 23.0857C53.4859 23.0085 53.4626 22.9334 53.4288 22.8629C53.3865 22.8084 53.3328 22.7638 53.2714 22.7323C53.2436 22.7198 53.2135 22.7133 53.183 22.7133C53.1526 22.7133 53.1225 22.7198 53.0947 22.7323C53.0702 22.7438 53.0487 22.761 53.032 22.7823C53.0154 22.8037 53.0039 22.8286 52.9987 22.8552C52.9853 22.8868 52.9787 22.9208 52.9795 22.9551C52.9808 22.9999 52.9899 23.044 53.0064 23.0857L53.0793 23.1548C53.2393 23.2661 53.3708 23.4135 53.4634 23.585C53.6501 24.0506 53.6596 24.5684 53.4903 25.0406C53.3828 25.3325 53.2906 25.5707 53.1946 25.7781H56.2672C56.8528 24.8346 57.2651 23.794 57.4847 22.7054H56.1059C56.0647 23.0333 56.007 23.3589 55.933 23.681C55.8291 24.239 55.6467 24.7795 55.3915 25.2864L55.2494 25.5668L55.1188 25.5937C55.5445 24.6856 55.8047 23.7088 55.8869 22.7093L53.7054 22.7016Z" fill="white"/>
<path fill-rule="evenodd" clip-rule="evenodd" d="M46.2161 16.5564C46.2152 16.7322 46.278 16.9023 46.393 17.0353C46.5079 17.1682 46.6672 17.255 46.8413 17.2794C47.0153 17.3038 47.1923 17.2642 47.3394 17.1679C47.4865 17.0717 47.5937 16.9254 47.6411 16.7562L47.5604 16.6486C47.4961 16.6549 47.4318 16.6371 47.3799 16.5987C47.362 16.5842 47.3475 16.5658 47.3377 16.5449L46.2161 16.5564ZM48.4822 16.5564L48.5091 16.5833C48.6319 16.6638 48.7702 16.7176 48.915 16.7414C49.0599 16.7653 49.2081 16.7585 49.3502 16.7216C49.7074 16.6563 49.9801 16.6217 50.2566 16.5949C50.6729 16.5403 51.0959 16.569 51.501 16.6794C51.769 16.7304 52.0279 16.821 52.2692 16.9482C52.4711 17.0447 52.6617 17.1632 52.8376 17.3016C52.8607 17.3553 52.9337 17.4283 52.9068 17.4667C52.8799 17.5051 52.876 17.5666 52.8223 17.5666C52.5448 17.4762 52.2627 17.4006 51.9773 17.34C51.6732 17.2817 51.365 17.247 51.0555 17.2363C50.7444 17.2363 50.6253 17.2363 50.5063 17.29C50.3872 17.3438 50.3258 17.3822 50.3104 17.5474C50.299 17.6165 50.309 17.6874 50.3393 17.7506C50.3695 17.8138 50.4184 17.8662 50.4794 17.9007C50.595 17.9512 50.7144 17.9923 50.8366 18.0236L51.0709 18.0774C51.0979 18.098 51.1201 18.1242 51.1362 18.1542C51.1362 18.1926 51.0709 18.2464 51.0709 18.2464C50.8447 18.3318 50.6503 18.4846 50.514 18.6842C50.314 18.915 50.2012 19.2085 50.1952 19.5138C50.2056 19.7239 50.2733 19.9271 50.3911 20.1015C50.4371 20.1612 50.495 20.2107 50.5611 20.2471C50.6272 20.2834 50.7 20.3058 50.7751 20.3127C50.9288 20.3127 50.9787 20.3127 51.1362 20.1284C51.2936 19.944 51.2437 19.9517 51.3743 19.7789C51.4611 19.6644 51.5781 19.5766 51.7123 19.5254C51.7696 19.4975 51.833 19.4843 51.8966 19.487C52.1309 19.487 52.154 19.6175 52.081 19.6675C51.9605 19.7281 51.846 19.8001 51.7392 19.8826C51.6828 19.9451 51.642 20.0201 51.6201 20.1015C51.6073 20.1674 51.6073 20.2352 51.6201 20.3012C51.6431 20.5201 51.7468 20.5585 51.7468 20.5585C51.7468 20.5585 51.8467 20.6277 51.912 20.5893C52 20.5363 52.0748 20.4641 52.1309 20.378C52.148 20.3079 52.1752 20.2406 52.2116 20.1783C52.25 20.1399 52.4804 20.0131 52.4343 20.2589C52.4343 20.3242 52.3537 20.378 52.3537 20.4433C52.3576 20.5141 52.3718 20.584 52.3959 20.6507C52.4178 20.7 52.4435 20.7475 52.4728 20.7928L52.5457 20.8351C52.5668 20.8413 52.5891 20.8421 52.6106 20.8374C52.6321 20.8327 52.6521 20.8226 52.6686 20.8082C52.7339 20.7544 52.7454 20.7698 52.7839 20.6891C52.8223 20.6085 52.8261 20.4971 53.1142 20.4587C53.3226 20.4166 53.5385 20.4298 53.7402 20.4971C54.066 20.5647 54.3573 20.7457 54.5621 21.0079C54.6881 21.1542 54.7753 21.3299 54.8156 21.5187L54.735 21.7492C54.5425 21.5017 54.2716 21.327 53.9668 21.2537C53.6236 21.2069 53.2746 21.2238 52.9375 21.3036C52.7498 21.3158 52.5717 21.3912 52.4323 21.5174C52.2928 21.6436 52.2001 21.8133 52.1693 21.9988C52.1427 22.2067 52.1933 22.4172 52.3114 22.5903C52.3618 22.6357 52.4188 22.6733 52.4804 22.7017H52.7992C53.1372 22.5711 53.0412 22.4751 53.0527 22.3752C53.0642 22.2753 53.0873 22.26 53.2409 22.2754C53.3411 22.2946 53.431 22.3491 53.4944 22.429C53.5725 22.5018 53.6375 22.5876 53.6864 22.6825C53.6881 22.6901 53.6881 22.6979 53.6864 22.7055H55.9294C55.9294 22.5826 55.9294 22.4559 55.9294 22.3214C55.9294 20.5316 55.9295 18.7265 55.2727 17.4206C55.1344 17.1364 54.9846 16.8445 54.8233 16.5526H54.4392C54.5276 16.6832 54.5737 16.7677 54.589 16.7946C54.698 17.0132 54.7805 17.2439 54.8348 17.4821C54.645 17.1603 54.4292 16.8546 54.1896 16.568H53.2409C53.3984 16.7101 53.5367 16.8599 53.6749 17.0097C54.1165 17.5185 54.5306 18.0505 54.9155 18.6036L55.1421 18.9339L54.9769 18.9031C54.5951 18.4437 54.1846 18.0088 53.7479 17.6011C53.3692 17.1999 52.9407 16.8488 52.4728 16.5564H48.4822ZM55.3303 16.5564C55.4609 16.833 55.5876 17.121 55.7144 17.436C56.0892 18.5633 56.2646 19.7473 56.2329 20.9349C56.2329 21.7914 56.1983 22.2984 56.1522 22.7055H57.5311C57.8413 21.1747 57.8309 19.5962 57.5003 18.0697C57.389 17.5542 57.2335 17.0492 57.0356 16.5603L55.3303 16.5564ZM50.898 22.7017C50.898 22.6172 50.875 22.5557 50.8712 22.5212L50.8289 22.3176C50.3642 20.0515 45.5479 19.8441 45.5479 19.8979C45.6184 19.9143 45.6905 19.9233 45.7629 19.9248C47.1226 20.017 48.2825 20.5508 48.9008 21.2729C49.1454 21.5813 49.3351 21.9295 49.4616 22.3022C49.4923 22.4635 49.5115 22.5903 49.523 22.6863L50.898 22.7017ZM51.213 18.8878C51.213 18.8878 50.9787 19.1067 51.1746 19.195C51.3705 19.2834 51.6047 19.1259 51.7392 19.0798C51.9601 18.9917 52.191 18.931 52.4267 18.8993C52.7003 18.8659 52.9773 18.8737 53.2486 18.9224C53.596 18.9545 53.9352 19.0468 54.251 19.195C54.4871 19.3374 54.7061 19.5062 54.904 19.6982C54.9808 19.8057 55.096 19.9824 55.096 19.9824L55.1728 20.1322L55.3264 20.1552L55.3572 19.9517C55.0884 19.5836 54.7705 19.2541 54.4123 18.9723C53.9689 18.6855 53.4604 18.5151 52.9337 18.4768C52.5969 18.4589 52.2596 18.4965 51.9351 18.5882C51.7521 18.6346 51.5754 18.7029 51.4089 18.7918L51.213 18.8955V18.8878Z" fill="white"/>
<path fill-rule="evenodd" clip-rule="evenodd" d="M47.3378 16.5562C47.305 16.4677 47.2941 16.3725 47.3062 16.2789C47.3182 16.1852 47.3528 16.0959 47.4069 16.0185C47.5606 15.7612 47.6527 15.4962 48.0483 15.4309C48.2742 15.3905 48.5062 15.3996 48.7282 15.4578C48.6263 15.5131 48.5332 15.5829 48.4516 15.6652C48.3532 15.771 48.2913 15.9056 48.2749 16.0493C48.2717 16.1459 48.2885 16.2422 48.3242 16.3321C48.3599 16.4219 48.4137 16.5035 48.4823 16.5716H52.4729C52.2896 16.4735 52.0965 16.395 51.8968 16.3373C51.4493 16.1821 50.9752 16.1181 50.5026 16.1491C50.2976 16.1558 50.0941 16.1854 49.8958 16.2375C49.8187 16.2596 49.7405 16.2775 49.6615 16.2912C49.585 16.3011 49.5075 16.3011 49.431 16.2912C49.3542 16.2912 49.2159 16.2336 49.262 15.9993C49.2928 15.8419 49.3964 15.7919 49.8074 15.7266C50.4142 15.6126 51.038 15.6257 51.6395 15.765C52.2371 15.873 52.7922 16.1472 53.2411 16.5562H54.159C53.5709 15.8701 52.8096 15.3542 51.9544 15.0622C51.0409 14.7053 50.0733 14.5066 49.093 14.4745C48.6735 14.4705 48.2545 14.5039 47.8409 14.5744C47.7142 14.5744 47.3877 14.6512 47.3877 14.6512L47.2379 14.6819C47.2379 14.6819 47.7564 14.0828 49.5424 14.2249C50.629 14.3034 51.6891 14.5972 52.6611 15.0891C53.1561 15.3429 53.6104 15.6691 54.0092 16.0569C54.1623 16.2139 54.3035 16.3821 54.4317 16.5601H54.8158C54.2593 15.5017 53.5414 14.5363 52.688 13.6987C51.826 12.8868 50.9084 12.136 49.9418 11.4519C49.6192 11.2368 49.1007 11.0947 49.0393 10.9295C48.9778 10.7644 49.4233 10.8949 49.4233 10.6453C49.4425 10.3265 48.9932 10.2958 48.0176 9.10898C47.3201 8.32227 46.7299 7.44665 46.2624 6.50494C45.9904 5.93187 45.8201 5.31585 45.7592 4.68442C45.7106 4.05675 45.777 3.42548 45.9551 2.82165C46.133 2.47721 46.3929 2.18178 46.7118 1.96132C46.8652 1.82612 47.0574 1.74279 47.261 1.72319C47.3117 1.71285 47.3639 1.71285 47.4146 1.72319C47.4146 1.72319 47.4799 1.77697 47.4799 1.82306C47.4799 1.86915 47.4799 1.8653 47.3916 1.96516C47.3332 2.01688 47.2702 2.06316 47.2034 2.10343C46.9484 2.32415 46.7294 2.58332 46.5543 2.87158C46.2558 3.35165 46.0864 3.9007 46.0627 4.4655C46.0415 4.96937 46.1171 5.47264 46.2854 5.94804C46.5525 6.72961 46.9804 7.44658 47.5414 8.05277C48.6878 9.35523 49.9292 10.571 51.2554 11.69C52.4076 12.6425 53.0951 13.1802 53.8133 14.1289C54.4099 14.8744 54.925 15.6818 55.3496 16.537H57.0473C56.7737 15.8726 56.4489 15.2306 56.0755 14.6167C56.0755 14.6167 54.7198 12.7424 54.4279 12.3621C54.136 11.9819 52.8263 10.5877 52.6342 10.3265C52.4622 10.0923 52.3117 9.84288 52.1848 9.5814C52.1354 9.29805 52.1354 9.00826 52.1848 8.72491C52.2477 8.4351 52.2477 8.13519 52.1848 7.84538C52.1234 7.73784 52.1157 7.66102 51.9006 7.64182C51.8455 7.63656 51.7901 7.64898 51.7424 7.67729C51.6948 7.7056 51.6574 7.74832 51.6356 7.79929C51.5883 7.88999 51.5596 7.98923 51.5511 8.09118C51.5511 8.12959 51.5012 8.22562 51.4628 8.21793C51.4244 8.21025 51.313 8.19873 51.3245 8.09887C51.3363 8.0008 51.3529 7.90337 51.3745 7.80697C51.4032 7.67105 51.4551 7.54111 51.5281 7.42289C51.568 7.37273 51.6027 7.31868 51.6318 7.26158C51.6894 7.21499 51.7363 7.15661 51.7694 7.09035C51.8026 7.0241 51.8211 6.95152 51.8238 6.8775C51.8238 6.74304 51.7704 6.61409 51.6753 6.51901C51.5802 6.42393 51.4513 6.37053 51.3168 6.37053C51.2221 6.36665 51.1277 6.38369 51.0403 6.42045C50.9002 6.49771 50.7711 6.5933 50.6562 6.70467C50.5942 6.79694 50.5221 6.88197 50.4411 6.95816C50.4002 6.99483 50.3495 7.01885 50.2952 7.02729H50.2261C50.1992 6.96968 50.18 6.94664 50.1876 6.90823L50.2261 6.793C50.251 6.76985 50.2718 6.74257 50.2875 6.71235C50.3055 6.68647 50.315 6.65556 50.3144 6.62402C50.3144 6.58561 50.3144 6.53567 50.276 6.51647C50.2459 6.49026 50.209 6.47311 50.1696 6.46699C50.1302 6.46087 50.0898 6.46604 50.0532 6.4819C49.7883 6.57321 49.5551 6.73848 49.3811 6.95816C49.2401 7.11665 49.1329 7.30222 49.0661 7.50355C49.0392 7.6492 49.0263 7.79711 49.0277 7.94523C49.0273 8.02323 49.0471 8.10001 49.0853 8.168C49.1046 8.21223 49.1277 8.25465 49.1545 8.29474L49.0969 8.39076L49.0277 8.40997H48.9394L48.8626 8.35236L48.7627 8.28322C48.7627 8.28322 48.6091 8.12959 48.5208 8.05277C48.2084 7.71149 47.9424 7.33055 47.7296 6.91975C47.3994 6.33671 47.256 5.66646 47.3186 4.99937C47.3056 4.66759 47.3564 4.3364 47.4684 4.02381C47.5068 3.94378 47.5588 3.87101 47.622 3.80873C47.7485 3.86502 47.8881 3.88497 48.0253 3.86634C48.2471 3.86358 48.4619 3.78759 48.636 3.65018C48.8102 3.51277 48.9341 3.32164 48.9884 3.10653C49.0428 2.89142 49.0245 2.6644 48.9364 2.46076C48.8484 2.25712 48.6955 2.08828 48.5016 1.98052C48.5016 1.98052 48.7474 1.80001 48.6974 1.56572C48.6578 1.37712 48.5567 1.20698 48.4101 1.0819C48.2635 0.956815 48.0795 0.883845 47.887 0.874388C47.6011 0.819603 47.3071 0.822292 47.0223 0.882299C46.7374 0.942306 46.4673 1.05842 46.2278 1.22389C45.5551 1.64323 45.0425 2.27618 44.7722 3.02138C44.6205 3.48677 44.5746 3.98011 44.6377 4.4655C44.6971 5.14447 44.9098 5.80111 45.2599 6.38588C45.7908 7.35012 46.4469 8.23993 47.211 9.03218C48.4247 10.3803 48.6782 10.4763 48.6782 10.4763C48.56 10.5085 48.4354 10.5085 48.3172 10.4763C47.9523 10.419 47.6098 10.2637 47.3263 10.0269C46.8061 9.60239 46.345 9.11026 45.9551 8.5636C45.6644 8.21028 45.4382 7.80856 45.2868 7.37681C45.2561 7.29615 45.1831 7.14635 45.1639 7.10795L45.0794 6.94664C44.9822 6.77412 44.8306 6.6387 44.6482 6.5616C44.4658 6.48451 44.263 6.47009 44.0715 6.52059C43.8801 6.57109 43.7107 6.68367 43.5901 6.84069C43.4695 6.99772 43.4043 7.19031 43.4049 7.38833C43.4053 7.44264 43.4118 7.49673 43.4241 7.54963C43.4202 7.69707 43.4518 7.84328 43.5162 7.97596C43.6238 8.20257 43.6622 8.29859 43.6622 8.29859L43.7198 8.41765C43.6126 8.38192 43.4967 8.38192 43.3895 8.41765C43.3001 8.45205 43.2242 8.51435 43.173 8.5953C43.1218 8.67624 43.0981 8.77152 43.1053 8.86703C43.1288 9.21267 43.2636 9.54141 43.4893 9.80417C43.9392 10.4099 44.5143 10.9116 45.1754 11.2752C46.0604 11.7836 47.0136 12.1626 48.0061 12.4005C49.1852 12.7116 50.1531 12.9728 50.3758 13.015C50.5986 13.0573 50.8137 13.0342 50.9328 13.1303C50.9643 13.1514 50.9893 13.181 51.0049 13.2156C51.0205 13.2502 51.0261 13.2885 51.0211 13.3262C51.0211 13.3262 51.0019 13.3646 50.9212 13.3838C50.8725 13.4033 50.8196 13.41 50.7676 13.403C50.7139 13.3872 50.6613 13.3679 50.6101 13.3454C50.2848 13.1862 49.9453 13.0576 49.5962 12.9613C49.1069 12.8428 48.6055 12.7809 48.1021 12.7769C47.758 12.7928 47.4173 12.8522 47.0882 12.9536C46.7894 13.0153 46.5132 13.1574 46.2893 13.3646C46.2138 13.43 46.1557 13.5131 46.1203 13.6065C46.0967 13.659 46.0812 13.7146 46.0742 13.7717C46.0742 13.9023 46.1126 13.8677 46.2701 13.8869C46.3352 13.8914 46.3996 13.903 46.4621 13.9215C46.4621 13.9215 46.5927 13.8908 46.5428 14.0175C46.5056 14.1061 46.4579 14.1899 46.4007 14.2671C46.3586 14.3402 46.3054 14.4062 46.2432 14.463C46.1434 14.5526 46.0214 14.6137 45.8898 14.6397C45.8399 14.6397 45.7823 14.6397 45.74 14.6397C45.6864 14.6319 45.6344 14.615 45.5864 14.5898C45.5495 14.5783 45.518 14.5537 45.4981 14.5206C45.4673 14.4822 45.4981 14.4054 45.4981 14.4054C45.4853 14.2549 45.4144 14.1154 45.3003 14.0164C45.1863 13.9174 45.0381 13.8668 44.8874 13.8754C44.7456 13.8922 44.6139 13.957 44.514 14.059C44.4141 14.161 44.3521 14.2941 44.3382 14.4361C44.3061 14.6008 44.3161 14.7708 44.3671 14.9305C44.4181 15.0903 44.5086 15.2346 44.6301 15.3502C44.9289 15.6109 45.2948 15.7826 45.6863 15.8457C45.9033 15.8534 46.1201 15.8249 46.3277 15.7612C46.4215 15.7111 46.5125 15.656 46.6004 15.596H46.6887C46.7096 15.6168 46.7231 15.6438 46.7271 15.6729C46.7271 15.7113 46.7463 15.742 46.7079 15.7919C46.6695 15.8419 46.6772 15.8188 46.6119 15.8879C46.5618 15.9367 46.5092 15.9829 46.4544 16.0262L46.3354 16.2413C46.2886 16.3357 46.2637 16.4394 46.2624 16.5447L47.3378 16.5562ZM45.114 9.38169C45.5077 9.79428 45.9441 10.1638 46.416 10.484C46.8933 10.7797 47.4347 10.9562 47.9946 10.9986L48.4171 11.0294C47.9299 11.1029 47.433 11.0821 46.9537 10.9679C46.2782 10.7298 45.6688 10.3349 45.1754 9.8157C44.8488 9.50257 44.574 9.13958 44.3612 8.74027C44.3123 8.6506 44.2748 8.55511 44.2498 8.45606C44.2498 8.43302 44.2268 8.28707 44.3228 8.28707C44.5494 8.28707 44.4956 8.74027 45.114 9.39704V9.38169ZM44.173 9.40858C44.4429 9.83614 44.7939 10.2067 45.2062 10.4994C45.7202 10.8848 46.2918 11.1868 46.8999 11.3942C47.3433 11.5341 47.8004 11.6255 48.2634 11.6669C48.5014 11.6796 48.7398 11.6796 48.9778 11.6669C48.53 11.7808 48.0647 11.8081 47.6066 11.7476C46.6618 11.6362 46.2355 11.4903 45.1217 10.7874C44.7338 10.5602 44.4028 10.2476 44.1538 9.8733C44.0797 9.7773 44.013 9.67587 43.9541 9.56988C43.7774 9.2703 44.0309 9.18581 44.173 9.40858Z" fill="white"/>
<path fill-rule="evenodd" clip-rule="evenodd" d="M67.2326 25.5783C67.3475 25.8373 67.496 26.0801 67.6743 26.3003C67.954 26.6852 68.3162 27.0028 68.7343 27.2298C69.0302 27.3852 69.3515 27.4866 69.683 27.5294C69.8615 27.552 70.0422 27.552 70.2207 27.5294C70.7451 27.4544 71.2363 27.228 71.634 26.8781C72.0317 26.5281 72.3187 26.0697 72.4599 25.5591H73.5698C73.5359 25.7407 73.4871 25.9193 73.4239 26.0929C73.1813 26.7637 72.7457 27.3477 72.1718 27.7714C71.8333 28.0265 71.4594 28.231 71.0618 28.3782C70.5708 28.5275 70.0617 28.609 69.5486 28.6202C69.1477 28.6147 68.7476 28.5852 68.3502 28.5318L68.1428 28.4934C67.3143 28.2972 66.5337 27.9363 65.8475 27.4321C65.1613 26.928 64.5834 26.2911 64.1484 25.5591L67.2326 25.5783Z" fill="white"/>
<path fill-rule="evenodd" clip-rule="evenodd" d="M64.3134 22.5059C64.3518 22.8515 64.4095 23.1242 64.4824 23.4814C64.586 24.0383 64.7684 24.5776 65.024 25.083L65.1661 25.3634L65.2967 25.3903C64.8723 24.4817 64.6122 23.5052 64.5285 22.5059H66.7446C66.7245 22.5478 66.714 22.5937 66.7139 22.6403C66.7098 22.6965 66.7098 22.753 66.7139 22.8093C66.7139 22.8976 66.7139 22.9668 66.7792 22.9821C66.7969 22.9874 66.8154 22.9891 66.8337 22.9871C66.852 22.9851 66.8697 22.9794 66.8858 22.9705C66.9019 22.9615 66.9161 22.9495 66.9274 22.935C66.9388 22.9205 66.9472 22.9039 66.9521 22.8861C66.9635 22.81 66.9868 22.7361 67.0212 22.6672C67.0624 22.6116 67.1164 22.5668 67.1787 22.5366C67.2059 22.5221 67.2362 22.5146 67.267 22.5146C67.2978 22.5146 67.3281 22.5221 67.3553 22.5366C67.3792 22.548 67.4003 22.5646 67.4169 22.5852C67.4335 22.6058 67.4453 22.6299 67.4513 22.6557C67.4513 22.7094 67.4705 22.6902 67.4705 22.7555C67.4693 22.8003 67.4602 22.8445 67.4437 22.8861L67.3707 22.9552C67.211 23.0684 67.0795 23.2169 66.9866 23.3892C66.7998 23.8535 66.7903 24.3702 66.9597 24.8411C67.0673 25.133 67.1594 25.3749 67.2555 25.5823H64.1828C63.5983 24.6383 63.186 23.5979 62.9653 22.5097L64.3134 22.5059ZM67.9622 22.5059C67.9185 22.5247 67.8714 22.5344 67.8239 22.5344C67.7764 22.5344 67.7293 22.5247 67.6856 22.5059H67.6434H67.9622ZM70.9349 22.5059C70.9174 22.6526 70.9174 22.8008 70.9349 22.9476C70.9618 23.1934 71.0041 23.3508 71.1615 23.4315C71.2373 23.4802 71.3241 23.5092 71.414 23.5159C71.5039 23.5227 71.594 23.5068 71.6762 23.4699C71.7722 23.3931 71.8413 23.0321 72.1448 22.9437C72.2864 22.9052 72.435 22.9001 72.579 22.9287C72.723 22.9574 72.8583 23.019 72.9744 23.1089C73.3336 23.4298 73.5631 23.871 73.6196 24.3494C73.6653 24.7625 73.655 25.1797 73.5889 25.59H72.4443C72.5233 25.3316 72.571 25.0647 72.5865 24.795C72.5792 24.5688 72.5443 24.3444 72.4828 24.1267C72.3829 23.9231 72.2101 23.9577 72.1832 23.9846C72.091 24.1194 71.9896 24.2478 71.8798 24.3686C71.7858 24.4654 71.6736 24.5428 71.5497 24.5961C71.4258 24.6495 71.2926 24.6779 71.1577 24.6797C70.954 24.6799 70.7524 24.6396 70.5645 24.5611C70.3766 24.4827 70.2061 24.3676 70.0631 24.2227C69.7654 23.9152 69.5812 23.5157 69.5407 23.0897C69.5208 22.8956 69.5208 22.6999 69.5407 22.5059H70.9349Z" fill="white"/>
<path fill-rule="evenodd" clip-rule="evenodd" d="M65.1242 16.3604C64.9936 16.6331 64.8668 16.925 64.7401 17.2361C64.3658 18.3636 64.1904 19.5475 64.2216 20.735C64.2188 21.3263 64.247 21.9173 64.3061 22.5056H62.9234C62.6132 20.9735 62.6236 19.3938 62.9541 17.866C63.0672 17.3522 63.2227 16.8486 63.4189 16.3604H65.1242ZM66.0191 16.3604C65.9637 16.4368 65.9149 16.5177 65.8731 16.6024C65.7623 16.8192 65.6784 17.0488 65.6235 17.286C65.8139 16.9659 66.0297 16.6615 66.2687 16.3758H67.1867C67.033 16.5179 66.8948 16.6677 66.7527 16.8175C66.3114 17.3253 65.8973 17.856 65.5121 18.4075L65.2855 18.7378L65.4545 18.7071C65.8349 18.2489 66.2442 17.8153 66.6797 17.4089C67.0631 17.0088 67.4969 16.6602 67.9702 16.3719H71.9607L71.9339 16.3988C71.8103 16.4775 71.6719 16.5301 71.5272 16.5532C71.3825 16.5763 71.2347 16.5695 71.0927 16.5332C70.7355 16.4718 70.4667 16.4372 70.1863 16.4103C69.7701 16.352 69.3464 16.3808 68.9419 16.4948C68.6737 16.5449 68.4147 16.6356 68.1737 16.7637C67.9712 16.8574 67.7804 16.9747 67.6053 17.1132C67.5784 17.167 67.5054 17.2399 67.5323 17.2783C67.5592 17.3168 67.5631 17.3782 67.6168 17.3782C67.8942 17.2885 68.1763 17.2141 68.4618 17.1554C68.7659 17.0972 69.0741 17.0625 69.3836 17.0517C69.6947 17.0517 69.8137 17.0517 69.9328 17.1017C70.0519 17.1516 70.1133 17.1939 70.1325 17.3628C70.1422 17.4317 70.1309 17.5019 70.1001 17.5643C70.0693 17.6267 70.0203 17.6783 69.9597 17.7124C69.8441 17.7639 69.7247 17.8062 69.6025 17.8391L69.3682 17.889C69.3412 17.9097 69.319 17.9359 69.3029 17.9658C69.3029 18.0081 69.3682 18.058 69.3682 18.058C69.5933 18.1453 69.7872 18.2978 69.9251 18.4959C70.1251 18.7266 70.2379 19.0202 70.2439 19.3255C70.2342 19.5369 70.1664 19.7415 70.048 19.917C70.0018 19.9761 69.9437 20.0251 69.8777 20.0607C69.8116 20.0964 69.7388 20.1181 69.664 20.1244C69.5103 20.1244 69.4642 20.1244 69.3029 19.94C69.2176 19.8277 69.1381 19.711 69.0648 19.5905C68.9789 19.4761 68.8614 19.3893 68.7268 19.3408C68.6703 19.3106 68.6063 19.2973 68.5425 19.3024C68.3082 19.3024 68.2851 19.433 68.3581 19.4829C68.5271 19.5943 68.65 19.6289 68.6999 19.6942C68.7571 19.7577 68.798 19.8341 68.819 19.917C68.8338 19.9814 68.8338 20.0484 68.819 20.1128C68.7959 20.3356 68.6922 20.3702 68.6922 20.3702C68.6922 20.3702 68.5924 20.4431 68.5271 20.4047C68.4391 20.3518 68.3643 20.2795 68.3082 20.1935C68.2911 20.1234 68.2639 20.0561 68.2275 19.9938C68.1891 19.9554 67.9587 19.8286 68.0047 20.0706C68.0047 20.1397 68.0854 20.1935 68.0854 20.2588C68.0803 20.3291 68.0674 20.3987 68.047 20.4662C68.0226 20.5149 67.9957 20.5624 67.9663 20.6083L67.8934 20.6505C67.8726 20.6567 67.8505 20.6572 67.8296 20.6517C67.8086 20.6463 67.7895 20.6353 67.7743 20.6198C67.709 20.5699 67.6936 20.5814 67.6552 20.5046C67.6168 20.4278 67.613 20.3087 67.3249 20.2703C67.1164 20.2301 66.901 20.2433 66.6989 20.3087C66.3735 20.3773 66.0825 20.5581 65.877 20.8195C65.75 20.9647 65.6639 21.141 65.6273 21.3304L65.7041 21.5646C65.898 21.318 66.1681 21.1424 66.4723 21.0653C66.8159 21.0217 67.1645 21.0399 67.5016 21.1191C67.6472 21.1262 67.7883 21.1725 67.9098 21.253C68.0313 21.3335 68.1289 21.4453 68.1922 21.5767C68.2555 21.708 68.2822 21.854 68.2695 21.9992C68.2568 22.1445 68.2051 22.2836 68.12 22.4019C68.07 22.4489 68.0129 22.4877 67.951 22.5171H67.6322C67.2942 22.3866 67.3902 22.2867 67.3787 22.1868C67.3672 22.087 67.3441 22.0716 67.1905 22.087C67.0913 22.1084 67.0029 22.1642 66.9409 22.2445C66.8609 22.3151 66.7945 22.3997 66.745 22.4941C66.745 22.4941 66.745 22.5133 66.745 22.5171H64.5327C64.5327 22.3904 64.5327 22.2637 64.5327 22.1331C64.5327 20.3471 64.5557 18.5381 65.1895 17.2323C65.3277 16.948 65.4775 16.6561 65.6388 16.3681L66.0191 16.3604ZM74.2383 16.3604C74.2281 16.5277 74.1603 16.6863 74.0464 16.8092C73.9326 16.9322 73.7797 17.012 73.6137 17.0351C73.4477 17.0581 73.2788 17.0231 73.1358 16.9358C72.9927 16.8485 72.8842 16.7144 72.8288 16.5563L72.9094 16.4526C72.9741 16.4567 73.038 16.4376 73.0899 16.3988C73.1078 16.3858 73.1223 16.3687 73.1322 16.3489L74.2383 16.3604ZM69.5603 22.5056C69.5654 22.445 69.5744 22.3847 69.5871 22.3251L69.6256 22.1177C70.0903 19.8555 74.9066 19.6481 74.9105 19.698C74.839 19.7166 74.7654 19.7256 74.6915 19.7249C73.3319 19.8209 72.172 20.3548 71.5575 21.0769C71.311 21.3832 71.1199 21.7303 70.9929 22.1024C70.9658 22.2355 70.9466 22.3702 70.9353 22.5056H69.5603ZM69.2415 18.6879C69.2415 18.6879 69.4758 18.9068 69.2799 18.999C69.084 19.0912 68.8497 18.926 68.7153 18.8799C68.4938 18.7936 68.2631 18.733 68.0278 18.6994C67.7541 18.6681 67.4774 18.6759 67.2059 18.7225C66.8593 18.7553 66.5213 18.8489 66.2073 18.999C65.9684 19.139 65.7478 19.308 65.5505 19.5022C65.4775 19.6059 65.3585 19.7864 65.3585 19.7864L65.2855 19.9362L65.128 19.9592L65.1011 19.7556C65.3674 19.3856 65.6841 19.0546 66.0421 18.7724C66.4867 18.4868 66.9943 18.3141 67.5208 18.2693C67.8575 18.253 68.1946 18.2906 68.5194 18.3806C68.7029 18.4272 68.8797 18.4969 69.0456 18.5881L69.2415 18.6879Z" fill="white"/>
<path fill-rule="evenodd" clip-rule="evenodd" d="M63.4263 16.3605C63.699 15.6895 64.0239 15.041 64.398 14.4209C64.398 14.4209 65.7538 12.5504 66.0457 12.1702C66.3376 11.79 67.6473 10.3958 67.8432 10.1308C68.0141 9.89789 68.1633 9.64975 68.2887 9.38949C68.3403 9.10503 68.3403 8.81361 68.2887 8.52916C68.2258 8.24065 68.2258 7.94197 68.2887 7.65346C68.3501 7.54592 68.3578 7.46526 68.5729 7.44606C68.6282 7.44018 68.6838 7.45233 68.7316 7.48072C68.7794 7.5091 68.8167 7.55219 68.8379 7.60353C68.8855 7.6944 68.9155 7.79344 68.9263 7.89543C68.9263 7.93384 68.9723 8.0337 69.0146 8.02217C69.0568 8.01065 69.1605 8.02218 69.149 7.90696C69.1391 7.80736 69.1224 7.70854 69.0991 7.61121C69.0707 7.4752 69.0187 7.34521 68.9455 7.22713C68.9056 7.17697 68.8708 7.12294 68.8418 7.06583C68.7838 7.01958 68.7366 6.96127 68.7034 6.89495C68.6703 6.82862 68.6519 6.75587 68.6497 6.68175C68.6497 6.54729 68.7031 6.41834 68.7982 6.32326C68.8933 6.22818 69.0222 6.17477 69.1567 6.17477C69.2514 6.17089 69.3458 6.18794 69.4332 6.2247C69.5734 6.30026 69.7026 6.39458 69.8173 6.50507C69.8796 6.59827 69.9517 6.68455 70.0324 6.7624C70.073 6.79889 70.1241 6.82173 70.1783 6.8277L70.2475 6.80849C70.2744 6.75088 70.2936 6.73168 70.2859 6.69327L70.2475 6.57421C70.2244 6.55079 70.2038 6.52505 70.186 6.49739C70.1684 6.47129 70.1591 6.44052 70.1591 6.40905C70.1591 6.37064 70.1591 6.32071 70.1975 6.30151C70.2272 6.27466 70.2639 6.2568 70.3034 6.25C70.3428 6.2432 70.3834 6.24775 70.4203 6.26311C70.6861 6.35491 70.9204 6.52002 71.0963 6.73936C71.235 6.90028 71.3407 7.08689 71.4074 7.28859C71.4341 7.43298 71.447 7.5796 71.4458 7.72644C71.4482 7.80467 71.4282 7.88194 71.3882 7.9492C71.3699 7.99386 71.3467 8.03637 71.3191 8.07595L71.3767 8.1758L71.4458 8.19501H71.5341L71.6109 8.13739L71.7108 8.06826C71.7108 8.06826 71.8644 7.9108 71.9528 7.83398C72.2661 7.49347 72.5322 7.11238 72.744 6.70095C73.0705 6.12353 73.2138 5.46051 73.1549 4.79978C73.1658 4.46843 73.1164 4.13787 73.009 3.82422C72.9687 3.74436 72.9155 3.67169 72.8515 3.60914C72.7244 3.66298 72.5851 3.68155 72.4482 3.6629C72.226 3.66187 72.0104 3.587 71.8353 3.45006C71.6602 3.31312 71.5356 3.12187 71.4811 2.9064C71.4266 2.69092 71.4452 2.46344 71.5341 2.25971C71.6229 2.05598 71.777 1.88756 71.972 1.78093C71.972 1.78093 71.7262 1.60041 71.7761 1.36613C71.8156 1.17711 71.9165 1.00646 72.0631 0.880734C72.2097 0.755007 72.3937 0.681258 72.5865 0.67095C72.8727 0.617147 73.1667 0.620668 73.4515 0.681323C73.7363 0.741978 74.0063 0.858553 74.2457 1.02429C74.9174 1.44311 75.4298 2.07445 75.7014 2.81794C75.8544 3.28304 75.9004 3.7767 75.8358 4.26206C75.7818 4.94934 75.5688 5.61465 75.2136 6.20549C74.6852 7.17016 74.0289 8.05902 73.2625 8.84794C72.0488 10.1999 71.7992 10.2921 71.7992 10.2921C71.916 10.3245 72.0395 10.3245 72.1563 10.2921C72.5212 10.2348 72.8637 10.0795 73.1473 9.8427C73.6674 9.41815 74.1286 8.92602 74.5184 8.37936C74.8097 8.02789 75.036 7.62731 75.1867 7.19641C75.2174 7.11192 75.2904 6.96596 75.3096 6.92755L75.3941 6.7624C75.4926 6.59068 75.645 6.45626 75.8276 6.38003C76.0103 6.30379 76.213 6.28999 76.4044 6.34077C76.5957 6.39156 76.7649 6.50409 76.8857 6.66089C77.0065 6.81769 77.0722 7.00999 77.0725 7.20793C77.0765 7.26035 77.0765 7.31299 77.0725 7.36541C77.0736 7.51423 77.0408 7.66134 76.9765 7.79557C76.869 8.01834 76.8306 8.11435 76.8306 8.11435L76.7729 8.23341C76.8816 8.19845 76.9985 8.19845 77.1071 8.23341C77.1955 8.26776 77.2704 8.32962 77.3209 8.40985C77.3714 8.49008 77.3947 8.58442 77.3875 8.67894C77.3626 9.02427 77.228 9.35261 77.0034 9.61609C76.55 10.221 75.9742 10.7236 75.3135 11.0909C74.4291 11.5997 73.4756 11.9774 72.4828 12.2125C71.3037 12.5236 70.3397 12.7886 70.113 12.827C69.8864 12.8654 69.6752 12.8462 69.5561 12.946C69.5243 12.9669 69.499 12.9964 69.4834 13.0311C69.4677 13.0658 69.4623 13.1042 69.4678 13.1419C69.4941 13.1713 69.5291 13.1915 69.5677 13.1995C69.6182 13.2168 69.6719 13.2234 69.7251 13.2187C69.7635 13.2187 69.7251 13.2187 69.8788 13.1611C70.2027 12.9986 70.5425 12.8699 70.8927 12.777C71.3817 12.6567 71.8832 12.5948 72.3868 12.5927C72.7305 12.609 73.071 12.6671 73.4007 12.7655C73.6999 12.8292 73.9769 12.971 74.2035 13.1765C74.3146 13.2889 74.3895 13.432 74.4186 13.5874C74.4186 13.718 74.3763 13.6796 74.2188 13.6988C74.1538 13.704 74.0895 13.7156 74.0268 13.7334C74.0268 13.7334 73.9001 13.7027 73.9461 13.8294C73.9824 13.9185 74.0302 14.0024 74.0882 14.0791C74.1296 14.1526 74.1828 14.2187 74.2457 14.2749C74.3467 14.3656 74.47 14.4279 74.6029 14.4555C74.649 14.4555 74.7105 14.4555 74.7489 14.4555C74.804 14.4489 74.8574 14.4319 74.9063 14.4055C74.9406 14.393 74.9701 14.3702 74.9908 14.3402C75.0216 14.3018 74.9908 14.2212 74.9908 14.2212C75.0045 14.0714 75.0759 13.9328 75.1898 13.8346C75.3037 13.7365 75.4514 13.6864 75.6015 13.695C75.7431 13.7115 75.8749 13.7756 75.9754 13.8768C76.0759 13.9779 76.139 14.1102 76.1546 14.2519C76.1854 14.4174 76.1745 14.588 76.1228 14.7483C76.0712 14.9085 75.9805 15.0534 75.8588 15.1699C75.5606 15.4307 75.1943 15.6013 74.8026 15.6615C74.5855 15.6711 74.3684 15.6425 74.1612 15.577C74.0674 15.5269 73.9764 15.4717 73.8885 15.4118L73.8002 15.431C73.7786 15.4527 73.765 15.4812 73.7618 15.5117C73.7618 15.5501 73.7618 15.577 73.781 15.6269C73.8115 15.6616 73.8449 15.6938 73.8808 15.7229C73.9291 15.7722 73.9804 15.8184 74.0345 15.8612L74.1535 16.0763C74.2021 16.1714 74.2271 16.2767 74.2265 16.3835H73.105C73.1378 16.295 73.1487 16.1998 73.1366 16.1062C73.1246 16.0125 73.09 15.9232 73.0359 15.8458C72.8822 15.5846 72.7901 15.3235 72.3983 15.2582C72.1726 15.2175 71.9409 15.2253 71.7185 15.2812C71.8188 15.3369 71.9107 15.4068 71.9912 15.4886C72.0881 15.5955 72.1498 15.7296 72.1679 15.8727C72.172 15.9695 72.1557 16.066 72.12 16.156C72.0842 16.2461 72.0299 16.3275 71.9605 16.395H67.9814C68.1615 16.2931 68.3538 16.2144 68.5537 16.1608C69.001 16.0047 69.475 15.9394 69.9479 15.9687C70.1532 15.9744 70.357 16.0053 70.5547 16.0609L70.789 16.1147C70.8664 16.1187 70.9439 16.1122 71.0195 16.0955C71.0963 16.0955 71.2346 16.0379 71.1923 15.8036C71.1616 15.6461 71.054 15.5962 70.6431 15.5347C70.0365 15.4186 69.4122 15.4317 68.811 15.5731C68.2058 15.685 67.6457 15.969 67.1979 16.3912H66.2992C66.8868 15.7037 67.6481 15.1864 68.5038 14.8933C69.4178 14.5383 70.3851 14.3397 71.3651 14.3057C71.7847 14.3037 72.2037 14.3384 72.6172 14.4094C72.744 14.4094 73.0704 14.4823 73.0704 14.4823L73.2241 14.5131C73.2241 14.5131 72.7056 13.9139 70.9196 14.056C69.8345 14.1358 68.7759 14.4295 67.8048 14.9202C67.3152 15.1798 66.8672 15.5112 66.4758 15.9034C66.322 16.0584 66.1807 16.2254 66.0534 16.4027H65.6693C66.2251 15.3439 66.943 14.3784 67.7971 13.5414C68.6574 12.726 69.5765 11.975 70.5471 11.2945C70.8658 11.0756 71.3882 10.9335 71.4458 10.7722C71.5034 10.6109 71.0617 10.7338 71.0617 10.488C71.0617 10.1692 71.4957 10.1346 72.4674 8.95165C73.1649 8.16494 73.7551 7.28931 74.2227 6.3476C74.4957 5.77489 74.666 5.15869 74.7258 4.52707C74.7742 3.89941 74.7078 3.26817 74.5299 2.6643C74.3596 2.31861 74.1095 2.01844 73.8002 1.7886C73.6451 1.65356 73.4518 1.57031 73.2471 1.55048C73.1977 1.53989 73.1467 1.53989 73.0973 1.55048C73.0973 1.55048 73.0282 1.60426 73.0282 1.65419C73.0282 1.70412 73.0282 1.69643 73.1165 1.79245C73.176 1.84397 73.2389 1.89145 73.3047 1.93455C73.5618 2.15322 73.7811 2.41275 73.9538 2.70271C74.2517 3.18306 74.421 3.73195 74.4454 4.29662C74.4666 4.8005 74.391 5.30377 74.2227 5.77917C73.9581 6.56191 73.53 7.27939 72.9667 7.88391C71.8212 9.18731 70.5798 10.4031 69.2527 11.5211C68.1005 12.4736 67.4168 13.0152 66.6948 13.96C66.099 14.7062 65.584 15.5134 65.1585 16.3682L63.4263 16.3605ZM75.3327 9.18208C74.9409 9.59672 74.5042 9.96644 74.0306 10.2844C73.5557 10.582 73.015 10.7588 72.4559 10.7991L72.0296 10.8298C72.5167 10.9052 73.0139 10.8843 73.4929 10.7683C74.1695 10.5324 74.7794 10.1372 75.2712 9.61609C75.5988 9.30149 75.8749 8.93728 76.0893 8.53684C76.1353 8.44627 76.1714 8.35098 76.1968 8.25262C76.1968 8.22958 76.2199 8.08363 76.1238 8.08747C75.8972 8.08747 75.951 8.53683 75.3327 9.1936V9.18208ZM76.2736 9.21282C76.0031 9.6386 75.6537 10.0088 75.2443 10.3036C74.7282 10.6871 74.1555 10.9878 73.5467 11.1947C73.1039 11.3373 72.6466 11.43 72.1832 11.4712C71.9453 11.4839 71.7068 11.4839 71.4688 11.4712C71.917 11.5826 72.3819 11.61 72.84 11.5518C73.7848 11.4405 74.2112 11.2907 75.3288 10.5878C75.7144 10.3606 76.0439 10.0495 76.2928 9.67754C76.3675 9.58059 76.4343 9.47785 76.4926 9.37029C76.6692 9.07071 76.4158 8.98621 76.2736 9.21282Z" fill="white"/>
<path d="M40.2358 44.3674H40.9541V49.6293H40.2358V44.3674Z" fill="white"/>
<path d="M51.2704 44.3674V44.9935H49.496V49.6293H48.7701V44.9935H46.9995V44.3674H51.2704Z" fill="white"/>
<path fill-rule="evenodd" clip-rule="evenodd" d="M59.5971 47.4745L58.7982 45.1509L57.9494 47.4745H59.5971ZM58.4257 44.3674H59.2322L61.1526 49.6331H60.3845L59.8276 48.0507H57.7459L57.1774 49.6292H56.4438L58.4257 44.3635V44.3674Z" fill="white"/>
<path d="M67.3403 44.3674H68.0547V49.0032H70.7202V49.6293H67.3403V44.3674Z" fill="white"/>
<path fill-rule="evenodd" clip-rule="evenodd" d="M76.0859 44.3674H76.9155L78.4288 46.8985L79.9382 44.3674H80.7755L78.786 47.5092V49.6293H78.0716V47.5092L76.0859 44.3674Z" fill="white"/>
</svg>
